<?xml version="1.0"?>
<svg xmlns="http://www.w3.org/2000/svg" xmlns:xlink="http://www.w3.org/1999/xlink" xmlns:svgjs="http://svgjs.com/svgjs" version="1.1" width="512" height="512" x="0" y="0" viewBox="0 0 512.002 512.002" style="enable-background:new 0 0 512 512" xml:space="preserve" class=""><g><linearGradient xmlns="http://www.w3.org/2000/svg" id="SVGID_1_" gradientUnits="userSpaceOnUse" x1="256.001" x2="256.001" y1="421.001" y2="91.001"><stop stop-opacity="1" stop-color="#3afdf8" offset="0"/><stop stop-opacity="1" stop-color="#f2fffc" offset="1"/></linearGradient><linearGradient xmlns="http://www.w3.org/2000/svg" id="SVGID_2_" gradientUnits="userSpaceOnUse" x1="256.001" x2="256.001" y1="301.001" y2="91.001"><stop stop-opacity="1" stop-color="#325aef" offset="0.08494208494208494"/><stop stop-opacity="1" stop-color="#3ae5fd" offset="1"/></linearGradient><g xmlns="http://www.w3.org/2000/svg"><path d="m497.001 421.001h-482c-8.284 0-15-6.716-15-15v-300c0-8.284 6.716-15 15-15l239 32 243-32c8.284 0 15 6.716 15 15v300c0 8.284-6.716 15-15 15z" fill="url(#SVGID_1_)" data-original="url(#SVGID_1_)" style=""/><g><path d="m256.001 301.001c-3.157 0-6.314-.994-8.976-2.982l-241-180c-5.178-3.867-7.297-10.615-5.26-16.747 2.038-6.132 7.773-10.271 14.235-10.271h482c6.462 0 12.197 4.138 14.235 10.271 2.037 6.132-.082 12.88-5.26 16.747l-241 180c-2.659 1.988-5.817 2.982-8.974 2.982z" fill="url(#SVGID_2_)" data-original="url(#SVGID_2_)" style=""/></g></g></g></svg>
