<?xml version="1.0"?>
<svg xmlns="http://www.w3.org/2000/svg" xmlns:xlink="http://www.w3.org/1999/xlink" xmlns:svgjs="http://svgjs.com/svgjs" version="1.1" width="512" height="512" x="0" y="0" viewBox="0 0 512 512" style="enable-background:new 0 0 512 512" xml:space="preserve" class=""><g><linearGradient xmlns="http://www.w3.org/2000/svg" id="SVGID_1_" gradientUnits="userSpaceOnUse" x1="256" x2="256" y1="512" y2="0"><stop stop-opacity="1" stop-color="#325aef" offset="0"/><stop stop-opacity="1" stop-color="#3afdf8" offset="1"/></linearGradient><linearGradient xmlns="http://www.w3.org/2000/svg" id="SVGID_2_" gradientUnits="userSpaceOnUse" x1="256" x2="256" y1="300" y2="90"><stop stop-opacity="1" stop-color="#c2d3ff" offset="0"/><stop stop-opacity="1" stop-color="#ffffff" offset="1"/></linearGradient><g xmlns="http://www.w3.org/2000/svg"><path d="m256 512c-4.918 0-9.522-2.41-12.325-6.451-36.233-52.24-67.572-92.289-92.753-124.468-57.983-74.097-89.922-114.913-89.922-186.081 0-107.523 87.477-195 195-195s195 87.477 195 195c0 71.095-32.159 112.221-90.541 186.882-25.072 32.063-56.274 71.966-92.134 123.667-2.803 4.041-7.407 6.451-12.325 6.451z" fill="url(#SVGID_1_)" data-original="url(#SVGID_1_)" style=""/><path d="m256 300c-57.897 0-105-47.103-105-105s47.103-105 105-105 105 47.103 105 105-47.103 105-105 105z" fill="url(#SVGID_2_)" data-original="url(#SVGID_2_)" style=""/></g></g></svg>
