<?xml version="1.0" encoding="UTF-8"?>
<svg xmlns="http://www.w3.org/2000/svg" xmlns:xlink="http://www.w3.org/1999/xlink" width="810pt" height="645.000003pt" viewBox="0 0 810 645.000003" version="1.2">
<defs>
<clipPath id="clip1">
  <path d="M 0.625 0 L 809.371094 0 L 809.371094 644 L 0.625 644 Z M 0.625 0 "/>
</clipPath>
<clipPath id="clip2">
  <path d="M 7.148438 20 L 800.167969 20 L 800.167969 593 L 7.148438 593 Z M 7.148438 20 "/>
</clipPath>
<clipPath id="clip3">
  <path d="M 394.496094 603 L 573 603 L 573 636.820312 L 394.496094 636.820312 Z M 394.496094 603 "/>
</clipPath>
</defs>
<g id="surface1">
<g clip-path="url(#clip1)" clip-rule="nonzero">
<path style=" stroke:none;fill-rule:nonzero;fill:rgb(100%,100%,100%);fill-opacity:1;" d="M 0.625 0 L 809.371094 0 L 809.371094 651.488281 L 0.625 651.488281 Z M 0.625 0 "/>
<path style=" stroke:none;fill-rule:nonzero;fill:rgb(100%,100%,100%);fill-opacity:1;" d="M 0.625 0 L 809.371094 0 L 809.371094 644 L 0.625 644 Z M 0.625 0 "/>
<path style=" stroke:none;fill-rule:nonzero;fill:rgb(100%,100%,100%);fill-opacity:1;" d="M 0.625 0 L 809.371094 0 L 809.371094 644 L 0.625 644 Z M 0.625 0 "/>
</g>
<path style=" stroke:none;fill-rule:nonzero;fill:rgb(100%,100%,100%);fill-opacity:1;" d="M 568.066406 604.980469 L 567.878906 604.957031 L 567.699219 604.894531 C 567.316406 604.757812 566.894531 604.691406 566.441406 604.691406 L 423.226562 604.691406 C 421.179688 604.691406 415.582031 608.597656 413.15625 610.609375 C 411.84375 611.660156 410.363281 612.894531 408.871094 614.144531 L 405.234375 617.171875 C 403.707031 618.464844 402.34375 619.621094 401.324219 620.441406 C 400.128906 621.414062 399.390625 622.472656 399.304688 623.355469 L 399.25 623.917969 L 398.867188 624.335938 C 397.324219 626 396.445312 627.855469 396.445312 629.449219 C 396.445312 632.128906 398.351562 635.125 400.902344 635.125 L 541.859375 635.125 C 545.609375 635.125 551.511719 632.203125 555.027344 629.390625 C 556.847656 627.894531 558.957031 625.957031 560.964844 624.082031 C 562.921875 622.261719 564.660156 620.667969 566.054688 619.542969 C 568.9375 617.207031 570.480469 614.175781 570.707031 612.671875 L 570.707031 607.625 C 570.695312 606.925781 570.410156 605.265625 568.066406 604.980469 "/>
<path style=" stroke:none;fill-rule:nonzero;fill:rgb(100%,100%,100%);fill-opacity:1;" d="M 785.039062 425.011719 C 791.195312 422.921875 795.726562 420.730469 798.53125 418.484375 L 796.3125 410.734375 C 787.3125 379.0625 776.113281 339.640625 739.789062 305.800781 C 700.710938 269.429688 661.519531 267.925781 630.023438 266.71875 L 619.492188 266.308594 C 613.03125 266.066406 605.707031 265.789062 600.710938 261.609375 C 598.523438 259.714844 597.644531 256.988281 597.761719 252.4375 C 597.824219 251.09375 598.023438 237.175781 598.058594 233.765625 L 598.066406 233.058594 L 598.574219 232.570312 C 602.90625 228.371094 606.988281 224.015625 610.703125 219.605469 L 610.851562 219.433594 L 611.035156 219.304688 C 622.261719 211.609375 638.101562 188.421875 643.265625 180.132812 C 653.753906 163.375 658.539062 143.566406 657.109375 122.679688 C 657.964844 94.675781 648.617188 68.234375 631.460938 50.140625 C 624.621094 42.914062 615.277344 37.636719 602.882812 33.988281 C 599.507812 32.980469 594.496094 31.636719 590.003906 31.636719 C 585.351562 31.636719 582.304688 33.011719 580.695312 35.847656 L 579.890625 37.269531 L 578.433594 36.503906 C 574.621094 34.492188 560.089844 27.636719 533.289062 23.867188 C 530.683594 23.484375 528.023438 23.15625 525.335938 22.851562 C 525.292969 22.949219 525.25 23.042969 525.203125 23.128906 C 524.734375 24.140625 524.363281 24.933594 523.667969 25.617188 C 523.019531 26.230469 522.246094 26.40625 521.179688 26.652344 C 520.65625 26.769531 519.984375 26.925781 519.117188 27.167969 L 514.097656 28.585938 L 517.328125 24.492188 C 517.929688 23.730469 518.375 23.144531 518.730469 22.671875 C 518.847656 22.515625 518.953125 22.375 519.058594 22.238281 C 514.628906 21.886719 510.511719 21.710938 506.578125 21.710938 C 493.296875 21.710938 482.132812 23.707031 472.4375 27.808594 C 464.898438 30.992188 456.820312 37.695312 451.753906 45.050781 C 444.851562 52.953125 437.746094 65.402344 443.070312 79.835938 C 444.554688 83.867188 447.097656 87.359375 450.4375 89.941406 L 451.371094 90.671875 L 451.007812 91.804688 C 444.808594 110.925781 438.179688 138.542969 452.113281 157.46875 L 452.4375 157.910156 L 452.441406 158.460938 C 452.546875 170.589844 453.964844 182.449219 456.660156 193.722656 C 465.523438 230.761719 482.933594 252.695312 508.414062 258.925781 C 510.589844 259.46875 512.933594 259.835938 515.136719 260.144531 L 520.246094 260.863281 L 515.707031 263.308594 C 510.941406 265.871094 504.859375 266.105469 499.351562 266.316406 L 496.957031 266.414062 C 460.496094 268.085938 429.542969 279.761719 404.957031 301.109375 C 374.449219 327.578125 350.570312 365.101562 330.605469 398.203125 C 337.488281 403.707031 348.324219 410.078125 361.929688 416.632812 L 363.402344 417.339844 L 362.746094 418.835938 C 346.878906 454.929688 322.902344 509.476562 284.746094 516.671875 C 284.246094 516.761719 283.613281 516.820312 282.871094 516.820312 C 277.578125 516.820312 266.074219 514.335938 257.675781 512.527344 L 255.902344 512.144531 C 251.644531 511.214844 247.964844 510.410156 246.46875 510.269531 C 245.191406 510.144531 243.90625 510.089844 242.617188 510.089844 C 235.3125 510.089844 227.652344 511.996094 220.242188 515.722656 L 218.363281 516.671875 L 182.402344 443.621094 C 178.34375 435.335938 167.644531 428.84375 158.054688 428.84375 L 21.152344 428.84375 C 20.300781 428.84375 19.421875 428.921875 18.515625 429.097656 C 15.085938 429.578125 12.460938 431.019531 10.925781 433.269531 C 9.09375 435.984375 8.996094 439.699219 10.640625 443.707031 L 65.796875 575.191406 C 69.488281 583.996094 80 591.164062 89.230469 591.164062 L 404.988281 591.164062 C 408.722656 591.164062 411.753906 588.128906 411.753906 584.398438 L 411.753906 579.328125 C 411.753906 576.527344 409.476562 574.25 406.679688 574.25 L 246.714844 574.25 L 238.871094 558.296875 L 241.726562 558.425781 C 243.832031 558.527344 246.085938 558.589844 248.394531 558.589844 C 263.996094 558.589844 269.890625 555.640625 272.085938 553.171875 C 273.277344 551.835938 273.738281 550.253906 273.515625 548.34375 L 273.351562 546.917969 L 274.730469 546.523438 C 277.21875 545.804688 280.816406 544.34375 283.472656 542.417969 L 283.910156 542.097656 L 367.890625 541.890625 L 368.289062 541.8125 L 368.734375 542.128906 C 368.96875 542.113281 369.210938 542.066406 369.453125 542.023438 C 369.679688 541.976562 369.902344 541.933594 370.355469 541.890625 L 375.882812 541.875 C 396.191406 541.8125 416.503906 541.75 436.808594 541.71875 L 439.132812 541.71875 L 438.425781 543.929688 C 438.257812 544.441406 438.234375 544.96875 438.339844 545.539062 C 438.585938 546.855469 439.386719 547.996094 440.789062 549.011719 L 443.800781 551.214844 L 440.160156 552.03125 C 437.484375 552.625 435.777344 554.742188 435.589844 557.4375 C 435.765625 559.46875 436.6875 561.046875 438.402344 562.253906 L 440.777344 563.9375 L 438.136719 565.167969 C 437.460938 565.484375 436.933594 565.9375 436.597656 566.507812 C 435.820312 567.800781 436.203125 569.050781 436.660156 569.867188 C 438.375 572.890625 442.109375 573.726562 445.441406 574.46875 L 446.070312 574.605469 C 446.617188 574.722656 447.15625 574.839844 447.613281 574.96875 C 448.4375 575.140625 449.230469 575.285156 450.027344 575.425781 L 455.511719 576.449219 L 451.960938 578.746094 C 450.695312 579.984375 450.109375 581.773438 450.386719 583.542969 C 450.78125 586.148438 455.308594 587.269531 457.066406 587.492188 C 462.855469 588.917969 469.746094 589.640625 477.558594 589.640625 C 485.09375 589.640625 491.066406 588.929688 491.992188 588.792969 C 492.90625 588.773438 500.390625 588.308594 504.371094 586.984375 C 513.316406 583.492188 518.257812 581.195312 524.714844 577.550781 C 526.269531 576.675781 527.867188 575.730469 529.648438 574.671875 L 530.90625 573.933594 L 532.324219 573.546875 L 532.554688 573.546875 C 532.664062 573.546875 532.796875 573.550781 533.203125 573.589844 C 567.5 577.230469 599.125 579.074219 627.207031 579.074219 C 653.53125 579.074219 676.433594 577.421875 695.222656 574.152344 C 706.441406 571.90625 717.242188 568.183594 727.328125 563.109375 C 739.382812 557.046875 750.074219 549.023438 758.238281 539.886719 C 762.351562 535.273438 765.804688 530.488281 768.511719 525.683594 C 768.75 525.257812 768.96875 524.8125 769.183594 524.378906 L 769.453125 523.839844 C 769.914062 522.984375 770.375 522.125 770.808594 521.226562 C 784.03125 494.402344 783.957031 461.707031 783.886719 432.730469 L 783.886719 425.394531 L 785.039062 425.011719 "/>
<path style=" stroke:none;fill-rule:nonzero;fill:rgb(6.269836%,5.879211%,5.099487%);fill-opacity:1;" d="M 602.667969 264.867188 C 602.621094 264.847656 602.585938 264.832031 602.546875 264.8125 C 602.734375 264.785156 602.921875 264.769531 603.09375 264.679688 C 603.230469 264.613281 603.464844 264.457031 603.578125 264.351562 C 604.089844 263.890625 604.164062 263.144531 603.917969 262.496094 C 603.664062 261.847656 602.933594 261.414062 602.234375 261.414062 C 601.296875 261.414062 600.542969 262.175781 600.542969 263.109375 C 600.542969 263.300781 600.625 263.46875 600.683594 263.640625 C 600.34375 263.394531 599.980469 263.183594 599.652344 262.90625 C 599.546875 262.8125 599.464844 262.707031 599.359375 262.613281 C 599.042969 262.742188 598.691406 262.878906 598.308594 263.035156 C 588.648438 266.785156 559.179688 275.71875 524.015625 262.148438 C 523.863281 262.234375 523.707031 262.347656 523.550781 262.429688 C 522.636719 262.90625 520.742188 263.269531 520.742188 263.269531 L 520.691406 260.800781 C 520.101562 260.550781 519.523438 260.324219 518.925781 260.0625 C 518.089844 259.6875 517.074219 260.0625 516.699219 260.921875 C 516.316406 261.777344 516.703125 262.773438 517.558594 263.152344 C 517.863281 263.289062 518.160156 263.394531 518.46875 263.523438 C 534.546875 270.480469 549.632812 272.785156 562.492188 272.785156 C 584.359375 272.785156 599.738281 266.21875 602.667969 264.867188 "/>
<path style=" stroke:none;fill-rule:nonzero;fill:rgb(6.269836%,5.879211%,5.099487%);fill-opacity:1;" d="M 562.492188 271.09375 C 554.660156 271.09375 546.886719 270.234375 539.226562 268.527344 C 546.902344 270.234375 554.710938 271.09375 562.5625 271.09375 C 562.746094 271.09375 562.925781 271.09375 563.113281 271.09375 C 562.90625 271.09375 562.699219 271.09375 562.492188 271.09375 "/>
<g clip-path="url(#clip2)" clip-rule="nonzero">
<path style=" stroke:none;fill-rule:nonzero;fill:rgb(6.269836%,5.879211%,5.099487%);fill-opacity:1;" d="M 768.503906 427.589844 C 742.90625 432.933594 709.734375 435.132812 697.386719 435.808594 C 694.378906 435.980469 692.554688 436.042969 692.449219 436.042969 C 691.703125 436.078125 691.097656 436.585938 690.894531 437.261719 C 690.21875 415.71875 689.539062 397.089844 689.539062 397.089844 C 689.507812 396.140625 688.660156 395.332031 687.816406 395.460938 C 686.871094 395.5 686.125 396.273438 686.15625 397.226562 C 686.15625 397.226562 686.96875 419.777344 687.710938 444.027344 C 688.21875 459.890625 687.582031 473.28125 687.171875 482.136719 C 687.035156 484.707031 686.9375 486.90625 686.902344 488.601562 C 680.882812 494.550781 587.207031 517.648438 528.394531 531.109375 L 528.261719 530.972656 C 524.503906 527.929688 519.875 525.695312 514.796875 524.546875 C 507.324219 522.855469 498.464844 522.6875 487.679688 524.007812 C 482.878906 524.582031 478.785156 524.953125 474.859375 525.15625 C 470.464844 525.355469 464.917969 526.410156 463.566406 530.328125 C 462.652344 532.933594 463.429688 534.761719 464.242188 535.804688 C 464.75 536.488281 465.492188 537.027344 466.304688 537.535156 C 459.171875 537.699219 452.441406 537.835938 446.722656 538.414062 C 444.699219 538.617188 442.128906 539.019531 440.058594 540.003906 C 420.476562 540.070312 400.933594 540.101562 381.351562 540.171875 C 398.296875 531.925781 411.519531 511.867188 414.558594 495.097656 C 420.476562 462.359375 428.933594 430.128906 435.96875 397.597656 C 436.40625 395.46875 433.164062 394.589844 432.6875 396.71875 C 429.851562 409.941406 426.769531 423.132812 423.691406 436.320312 C 423.492188 436.183594 423.289062 436.117188 423.054688 436.085938 C 407.222656 433.515625 384.125 425.292969 364.101562 415.828125 C 364.101562 415.828125 364.101562 415.796875 364.074219 415.796875 C 357.851562 412.851562 351.933594 409.773438 346.625 406.734375 C 341.285156 403.6875 336.617188 400.644531 332.828125 397.769531 C 352.574219 365.140625 376.113281 328.378906 406.078125 302.40625 C 430.390625 281.304688 461 269.769531 497.046875 268.117188 L 499.382812 268.011719 C 505.839844 267.777344 513.078125 267.472656 518.457031 263.519531 C 518.148438 263.382812 517.882812 263.277344 517.570312 263.140625 C 516.691406 262.769531 516.320312 261.789062 516.691406 260.910156 C 517.070312 260.070312 518.078125 259.691406 518.925781 260.070312 C 519.503906 260.335938 520.109375 260.539062 520.683594 260.8125 L 520.753906 263.277344 C 520.753906 263.277344 522.648438 262.90625 523.558594 262.433594 C 523.695312 262.367188 523.863281 262.230469 524.035156 262.160156 C 524.269531 262.027344 524.503906 261.890625 524.742188 261.722656 L 535.054688 261.925781 C 536.984375 261.691406 538.84375 261.417969 540.640625 261.046875 C 541.550781 260.84375 542.125 259.964844 541.921875 259.054688 C 541.921875 258.917969 541.820312 258.820312 541.789062 258.714844 C 541.449219 258 540.707031 257.5625 539.925781 257.734375 C 530.289062 259.730469 518.046875 259.5625 508.816406 257.296875 C 506.613281 256.757812 504.550781 256.078125 502.488281 255.300781 C 481.117188 247.316406 466.234375 226.523438 458.292969 193.3125 C 455.246094 180.699219 453.960938 167.546875 454.164062 154.425781 C 454.199219 152.695312 454.199219 150.976562 454.300781 149.25 C 456.769531 149.316406 459.984375 148.46875 463.429688 148.066406 C 468.539062 147.050781 475.230469 149.28125 476.011719 146.777344 C 476.957031 143.90625 468.0625 139.980469 461.402344 141.335938 C 459.105469 141.570312 456.664062 142.382812 454.703125 143.464844 C 455.71875 131.660156 457.953125 119.996094 461.566406 108.867188 C 463.128906 104.03125 465.160156 99.566406 467.523438 95.445312 C 468.636719 95.171875 469.753906 94.734375 470.835938 94.226562 C 479.761719 96.792969 489.199219 97.640625 498.464844 97.742188 C 501.40625 97.742188 535.796875 96.589844 535.796875 95.308594 C 536.410156 100.144531 538.070312 104.878906 539.691406 109.441406 C 544.15625 121.992188 552.539062 138.019531 562.246094 146.878906 C 565.359375 149.71875 568.261719 152.96875 571.78125 155.265625 C 574.726562 157.226562 579.492188 160.675781 582.941406 157.941406 C 584.261719 156.886719 585.375 155.402344 586.320312 154.015625 C 586.320312 154.015625 587.707031 153.644531 589.230469 153.441406 C 593.492188 153.949219 597.378906 155.675781 600.355469 159.898438 C 604.546875 165.816406 605.292969 173.726562 602.183594 179.039062 C 600.757812 181.441406 597.582031 183.636719 594.40625 184.546875 C 593.726562 184.753906 593.082031 184.925781 592.476562 184.988281 C 591.703125 185.09375 591.125 185.800781 591.226562 186.578125 C 591.332031 187.359375 592.003906 187.933594 592.816406 187.828125 C 593.558594 187.730469 594.339844 187.558594 595.082031 187.359375 C 595.082031 187.425781 593.96875 223.476562 604.925781 223.605469 C 602.320312 226.449219 599.546875 229.289062 596.566406 232.199219 C 596.0625 232.707031 595.925781 233.449219 596.234375 234.09375 C 596.265625 234.160156 596.300781 234.222656 596.363281 234.292969 C 596.296875 238.117188 596.128906 251.097656 596.0625 252.386719 C 595.960938 255.699219 596.296875 259.789062 599.339844 262.601562 C 599.445312 262.699219 599.546875 262.800781 599.644531 262.90625 C 599.984375 263.175781 600.324219 263.414062 600.699219 263.648438 C 600.628906 263.472656 600.523438 263.308594 600.523438 263.109375 C 600.523438 262.160156 601.304688 261.414062 602.214844 261.414062 C 602.925781 261.414062 603.667969 261.851562 603.910156 262.496094 C 604.175781 263.140625 604.078125 263.882812 603.570312 264.359375 C 603.464844 264.457031 603.230469 264.632812 603.09375 264.695312 C 602.925781 264.761719 602.722656 264.800781 602.554688 264.800781 C 602.585938 264.832031 602.621094 264.867188 602.652344 264.867188 C 607.722656 267.535156 613.953125 267.808594 619.597656 268.011719 L 621.933594 268.109375 C 624.5625 268.210938 627.238281 268.316406 629.945312 268.414062 C 662.78125 269.664062 700.011719 271.089844 738.601562 307.03125 C 774.621094 340.582031 785.746094 379.773438 794.710938 411.261719 C 795.347656 413.488281 795.960938 415.6875 796.605469 417.824219 C 790.859375 421.878906 780.546875 425.089844 768.503906 427.589844 Z M 767.050781 524.816406 C 753.898438 548.21875 726.90625 566.035156 694.917969 572.5 C 645.847656 581.015625 579.5625 576.855469 532.589844 571.855469 C 532.355469 571.824219 532.152344 571.855469 531.910156 571.886719 L 530.425781 572.324219 C 530.289062 572.363281 530.152344 572.429688 530.019531 572.5 C 519.90625 578.515625 515.238281 580.949219 503.839844 585.382812 C 499.785156 586.738281 491.902344 587.101562 491.707031 587.140625 C 491.5 587.171875 472.730469 589.574219 457.308594 585.820312 C 455.277344 585.550781 452.238281 584.503906 452.066406 583.285156 C 451.898438 582.34375 452.132812 580.988281 453.148438 579.941406 C 454.4375 578.71875 456.566406 578.316406 459.371094 578.789062 C 459.40625 578.789062 459.476562 578.757812 459.542969 578.757812 C 464.652344 579.46875 469.417969 579.871094 473.746094 579.871094 C 478.746094 579.871094 483.25 579.402344 487.304688 578.453125 C 488.21875 578.25 488.796875 577.332031 488.554688 576.425781 C 488.355469 575.515625 487.472656 574.96875 486.53125 575.171875 C 476.988281 577.371094 464.007812 576.765625 448.078125 573.347656 C 447.367188 573.144531 446.585938 572.976562 445.8125 572.808594 C 442.699219 572.128906 439.484375 571.421875 438.136719 569.019531 C 437.898438 568.609375 437.695312 567.972656 438.066406 567.359375 C 438.402344 566.785156 439.316406 566.109375 440.734375 566.246094 C 442.121094 566.277344 443.507812 566.449219 445.101562 566.6875 C 447.230469 566.957031 449.867188 567.328125 453.558594 567.496094 C 453.585938 567.496094 453.585938 567.496094 453.585938 567.496094 C 457.269531 567.832031 461.027344 567.96875 464.75 567.96875 C 470.765625 567.96875 476.753906 567.632812 482.097656 567.328125 C 483.007812 567.292969 483.71875 566.480469 483.6875 565.570312 C 483.621094 564.625 482.808594 563.882812 481.894531 563.980469 C 473.304688 564.421875 463.160156 564.996094 453.722656 564.117188 C 453.6875 564.117188 453.6875 564.117188 453.65625 564.117188 C 450.511719 563.808594 447.464844 563.335938 444.554688 562.691406 C 437.589844 561.542969 437.355469 558.367188 437.285156 557.585938 C 437.453125 555.191406 439.179688 553.5625 441.582031 553.53125 C 444.722656 553.492188 447.90625 553.628906 451.082031 553.804688 C 454.363281 554.242188 457.710938 554.410156 460.960938 554.441406 L 461.195312 554.476562 C 461.226562 554.476562 461.265625 554.441406 461.296875 554.441406 C 461.53125 554.441406 461.773438 554.476562 462.007812 554.476562 C 466.097656 554.476562 470.085938 554.242188 473.84375 554 C 474.722656 553.933594 475.601562 553.863281 476.480469 553.796875 C 478.542969 553.597656 480.671875 553.425781 482.636719 553.492188 C 483.683594 553.492188 484.355469 552.789062 484.394531 551.835938 C 484.425781 550.925781 483.683594 550.144531 482.773438 550.113281 C 480.574219 550.046875 478.339844 550.25 476.210938 550.417969 C 475.332031 550.484375 474.453125 550.582031 473.601562 550.621094 C 469.683594 550.894531 465.488281 551.089844 461.226562 551.058594 L 459.5 550.953125 C 456.832031 550.757812 454.089844 550.582031 451.351562 550.417969 C 449.695312 550.210938 448.003906 549.941406 446.382812 549.574219 C 445.027344 549.265625 440.53125 548.050781 439.984375 545.210938 C 439.886719 544.566406 440.054688 544.226562 440.222656 543.992188 C 440.796875 543.246094 442.417969 542.230469 447.054688 541.792969 C 452.703125 541.21875 459.460938 541.050781 466.636719 540.882812 C 474.988281 540.710938 483.578125 540.511719 490.441406 539.59375 C 490.546875 539.59375 490.617188 539.527344 490.714844 539.496094 C 490.8125 539.457031 490.917969 539.457031 491.019531 539.390625 C 491.125 539.359375 491.191406 539.261719 491.289062 539.191406 C 491.359375 539.125 491.457031 539.085938 491.527344 538.988281 C 491.59375 538.921875 491.625 538.816406 491.691406 538.714844 C 491.730469 538.617188 491.796875 538.511719 491.828125 538.414062 C 491.867188 538.308594 491.867188 538.207031 491.867188 538.070312 C 491.867188 537.972656 491.898438 537.90625 491.898438 537.804688 L 491.898438 537.769531 C 491.898438 537.738281 491.898438 537.738281 491.898438 537.699219 C 491.898438 537.601562 491.828125 537.535156 491.796875 537.464844 C 491.761719 537.328125 491.761719 537.230469 491.691406 537.125 C 491.664062 537.027344 491.558594 536.957031 491.527344 536.890625 C 491.421875 536.789062 491.351562 536.691406 491.289062 536.625 C 491.183594 536.554688 491.085938 536.519531 490.988281 536.449219 C 490.882812 536.417969 490.8125 536.351562 490.714844 536.3125 C 490.609375 536.28125 490.480469 536.28125 490.34375 536.28125 C 490.273438 536.253906 490.207031 536.214844 490.101562 536.253906 L 489.289062 536.28125 C 472.488281 537.535156 468.054688 535.238281 466.90625 533.746094 C 466.601562 533.34375 466.296875 532.699219 466.738281 531.449219 C 467.3125 529.855469 470.457031 528.742188 474.984375 528.507812 C 479.042969 528.332031 483.207031 527.960938 488.078125 527.355469 C 498.460938 526.066406 506.941406 526.242188 514.046875 527.832031 C 518.613281 528.878906 522.773438 530.871094 526.023438 533.507812 L 526.695312 534.152344 C 527.136719 534.5625 527.710938 534.730469 528.25 534.59375 C 528.355469 534.5625 530.078125 534.183594 533.085938 533.476562 C 534.539062 533.136719 536.269531 532.730469 538.296875 532.257812 C 552.734375 528.910156 580.769531 522.316406 608.574219 515.351562 C 690.109375 494.890625 690.207031 491.375 690.273438 489.042969 C 690.304688 487.3125 690.410156 485.046875 690.546875 482.273438 C 690.851562 475.347656 691.320312 465.601562 691.257812 454.074219 C 691.257812 450.792969 691.222656 447.445312 691.085938 443.929688 C 691.054688 442.035156 690.988281 440.171875 690.917969 438.3125 C 691.046875 438.683594 691.320312 438.988281 691.660156 439.191406 C 691.933594 439.328125 692.199219 439.429688 692.503906 439.429688 C 692.503906 439.429688 692.539062 439.429688 692.570312 439.429688 C 695.414062 439.328125 750.574219 437.0625 782.191406 427.660156 L 782.191406 432.734375 C 782.304688 463.09375 782.371094 497.558594 767.050781 524.816406 Z M 443.105469 74.304688 C 441.519531 68.21875 442.734375 62.261719 445.476562 56.753906 C 444.089844 69.535156 450.546875 85.632812 461.40625 90.738281 C 462.726562 91.347656 464.074219 91.921875 465.429688 92.429688 C 465.394531 92.535156 465.324219 92.601562 465.292969 92.703125 C 455.382812 94.324219 445.878906 85.027344 443.105469 74.304688 Z M 480.40625 67.742188 C 480.953125 68.148438 481.492188 68.558594 482.027344 68.996094 C 481.019531 70.25 480.035156 71.53125 479.019531 72.816406 C 478.648438 72.546875 478.3125 72.277344 477.9375 72.007812 C 478.753906 70.582031 479.597656 69.164062 480.40625 67.742188 Z M 521.058594 44.035156 C 518.925781 50.394531 518.925781 50.394531 513.007812 49.144531 C 512.941406 47.824219 512.910156 46.40625 512.804688 44.71875 C 515.546875 44.476562 517.949219 44.308594 521.058594 44.035156 Z M 530.734375 33.722656 C 529.242188 34.0625 527.921875 34.328125 526.261719 34.707031 C 525.792969 33.148438 525.453125 32 525.011719 30.546875 C 528.058594 29.394531 530.050781 29.359375 530.734375 33.722656 Z M 574.390625 89.65625 C 574.628906 89.996094 574.863281 90.332031 575.136719 90.703125 C 574.019531 91.648438 572.898438 92.597656 571.785156 93.542969 C 571.511719 93.171875 571.246094 92.765625 570.976562 92.398438 C 572.089844 91.484375 573.242188 90.574219 574.390625 89.65625 Z M 573.308594 40.484375 C 574.492188 40.992188 575.710938 41.5 576.925781 41.976562 C 576.789062 42.511719 576.652344 43.019531 576.523438 43.527344 C 575.269531 43.226562 574.015625 42.921875 572.765625 42.617188 C 572.9375 41.90625 573.105469 41.195312 573.308594 40.484375 Z M 609.222656 37.851562 C 619.4375 41.605469 627.753906 47.992188 634.6875 56.3125 C 643.242188 66.558594 649.023438 79.175781 652.273438 92.429688 C 640.097656 59.425781 613.011719 34.433594 582.878906 35.714844 C 588.117188 29.699219 603.371094 35.714844 609.222656 37.851562 Z M 625.964844 119.347656 C 626.128906 117.863281 626.304688 116.371094 626.539062 114.277344 C 630.289062 116.371094 629.886719 117.929688 625.964844 119.347656 Z M 622.886719 82.417969 C 623.796875 80.492188 624.476562 79.175781 625.113281 77.851562 C 627.515625 81.304688 626.46875 82.417969 622.886719 82.417969 Z M 615.003906 97.332031 C 617.066406 95.878906 618.015625 95.203125 619.574219 94.089844 C 620.414062 96.25 621.058594 97.945312 622.308594 101.121094 C 619.332031 99.566406 617.710938 98.71875 615.003906 97.332031 Z M 612.132812 164.800781 C 612.707031 163.140625 613.148438 161.820312 613.6875 160.132812 C 615.914062 160.90625 617.710938 161.550781 619.742188 162.292969 C 619.773438 163.953125 619.773438 165.40625 619.808594 168.042969 C 616.597656 166.65625 614.601562 165.808594 612.132812 164.800781 Z M 608.78125 162.398438 C 606.917969 160.464844 605.636719 159.183594 603.441406 156.949219 C 606.382812 155.667969 608.3125 154.820312 610.238281 154.007812 C 610.746094 154.652344 611.253906 155.296875 611.761719 155.933594 C 610.882812 157.835938 610.035156 159.722656 608.78125 162.398438 Z M 223.59375 572.023438 C 222.070312 574.558594 221.296875 575.847656 219.941406 578.113281 C 218.621094 575.878906 218.046875 574.863281 216.929688 572.96875 C 219.226562 572.667969 220.75 572.429688 223.59375 572.023438 Z M 197.824219 478.992188 C 197.113281 478.386719 196.402344 478.046875 196.203125 477.46875 C 196 476.863281 196.234375 476.082031 196.402344 473.242188 C 197.347656 474.628906 197.925781 475.410156 198.332031 475.984375 L 198.839844 477.03125 C 198.941406 477.5 198.296875 478.183594 197.824219 478.992188 Z M 190.453125 552.644531 C 190.21875 551.871094 189.976562 551.089844 189.742188 550.347656 C 190.960938 550.046875 192.171875 549.734375 193.363281 549.433594 C 193.558594 549.976562 193.765625 550.484375 193.96875 551.023438 C 192.785156 551.5625 191.597656 552.105469 190.453125 552.644531 Z M 240.734375 562.117188 L 240.773438 562.214844 C 240.332031 566.746094 238.703125 569.855469 234.308594 571.113281 C 234.316406 563.464844 234.382812 563.332031 240.734375 562.117188 Z M 249.5625 575.46875 L 255.179688 586.867188 C 255.585938 587.714844 255.210938 588.730469 254.398438 589.132812 C 254.164062 589.269531 253.890625 589.308594 253.65625 589.308594 C 253.019531 589.308594 252.40625 588.964844 252.140625 588.359375 L 250.109375 584.230469 C 250.785156 581.328125 250.382812 578.007812 248.820312 574.726562 C 249.125 574.894531 249.398438 575.136719 249.5625 575.46875 Z M 178.175781 484.707031 C 175.636719 486.535156 173.203125 488.222656 169.953125 490.558594 C 168.398438 489.445312 166.339844 488.019531 164.171875 486.496094 C 167.113281 481.222656 171.445312 481.933594 175.199219 481.054688 C 176.144531 478.820312 177.125 476.589844 178.449219 473.515625 C 179.835938 475.679688 180.746094 477.097656 181.554688 478.386719 C 180.238281 480.820312 179.152344 482.84375 178.175781 484.707031 Z M 125.960938 507.464844 C 129.75 508.070312 129.75 508.070312 132.144531 511.691406 C 126.332031 512.808594 126.332031 512.808594 125.960938 507.464844 Z M 118.316406 458.027344 C 115.207031 457.3125 115.207031 457.3125 115.335938 453.089844 C 116.527344 453.835938 117.738281 454.238281 118.351562 455.117188 C 118.792969 455.730469 118.382812 456.980469 118.316406 458.027344 Z M 113.277344 472.53125 C 111.046875 469.558594 110.875 467.558594 112.941406 464.921875 C 115.472656 467.597656 114.425781 469.589844 113.277344 472.53125 Z M 102.285156 567.089844 C 104.417969 566.40625 105.46875 566.105469 107.222656 565.566406 C 107.289062 567.625 107.355469 569.113281 107.492188 572.429688 C 105.160156 570.027344 104.046875 568.878906 102.285156 567.089844 Z M 99.613281 434.390625 C 96.839844 435.503906 95.65625 433.707031 95.761719 429.789062 C 97.347656 430.433594 98.9375 431.070312 100.765625 431.851562 C 100.1875 433.167969 100.050781 434.222656 99.613281 434.390625 Z M 93.292969 555.078125 C 93.867188 554.980469 94.4375 554.878906 94.980469 554.742188 C 95.214844 556.296875 95.421875 557.820312 95.695312 559.746094 C 92.3125 558.835938 92.578125 557.039062 93.292969 555.078125 Z M 85.378906 538.847656 C 85 538.101562 84.667969 537.328125 84.296875 536.578125 C 85.613281 535.941406 86.933594 535.261719 88.25 534.625 C 88.554688 535.230469 88.859375 535.875 89.160156 536.480469 C 87.910156 537.261719 86.628906 538.070312 85.378906 538.847656 Z M 73.40625 565.089844 C 73.101562 562.996094 72.898438 561.40625 72.664062 559.8125 C 73.070312 559.542969 73.503906 559.238281 73.914062 558.933594 C 75.132812 560.289062 76.316406 561.609375 78.242188 563.738281 C 75.875 564.414062 74.859375 564.6875 73.40625 565.089844 Z M 33.742188 433.882812 C 33.46875 433.207031 32.992188 432.496094 32.921875 431.78125 C 32.890625 431.246094 33.332031 430.636719 34.144531 428.84375 L 34.308594 428.84375 C 34.550781 431.3125 34.679688 432.457031 34.785156 433.578125 C 34.445312 433.675781 34.074219 433.777344 33.742188 433.882812 Z M 23.996094 451.597656 C 26.433594 449.234375 28.832031 448.929688 32.148438 451.089844 C 28.664062 455.457031 28.664062 455.457031 23.996094 451.597656 Z M 799.582031 419.816406 C 800.128906 419.375 800.363281 418.664062 800.160156 418.019531 C 799.453125 415.519531 798.703125 412.949219 797.960938 410.34375 C 788.898438 378.457031 777.636719 338.753906 740.941406 304.5625 C 701.414062 267.769531 661.847656 266.246094 630.085938 265.035156 C 627.378906 264.929688 624.710938 264.832031 622.105469 264.726562 L 619.703125 264.625 C 613.449219 264.390625 606.382812 264.15625 601.8125 260.328125 C 600.054688 258.8125 599.347656 256.480469 599.445312 252.515625 C 599.515625 251.097656 599.71875 236.664062 599.75 233.785156 C 604.28125 229.386719 608.34375 225.023438 611.988281 220.695312 C 623.621094 212.714844 639.894531 188.738281 644.695312 181.03125 C 656.125 162.769531 660.148438 142.347656 658.800781 122.726562 C 659.609375 96.148438 651.085938 68.386719 632.6875 48.976562 C 624.742188 40.589844 614.292969 35.578125 603.367188 32.375 C 596.46875 30.304688 583.722656 27.09375 579.222656 35.011719 C 574.863281 32.707031 560.214844 25.941406 533.53125 22.1875 C 530.523438 21.75 527.445312 21.378906 524.339844 21.039062 C 523.488281 22.695312 523.148438 23.742188 522.511719 24.386719 C 522.003906 24.863281 521.058594 24.863281 518.65625 25.539062 C 520.3125 23.441406 520.785156 22.628906 521.429688 22.089844 C 521.898438 21.710938 522.609375 21.582031 524.097656 21.007812 C 506.515625 19.179688 488.082031 19.347656 471.78125 26.246094 C 464 29.523438 455.6875 36.359375 450.472656 43.929688 C 441.652344 54.046875 436.40625 66.65625 441.476562 80.417969 C 443.136719 84.921875 445.949219 88.605469 449.394531 91.277344 C 442.5625 112.34375 436.679688 139.367188 450.746094 158.472656 C 450.84375 170.515625 452.230469 182.519531 455.003906 194.113281 C 464.039062 231.820312 481.855469 254.175781 508 260.566406 C 510.167969 261.101562 512.496094 261.480469 514.898438 261.816406 C 510.433594 264.21875 504.582031 264.421875 499.277344 264.625 L 496.875 264.726562 C 460.042969 266.414062 428.730469 278.222656 403.835938 299.828125 C 373.128906 326.472656 349.1875 364.113281 329.136719 397.320312 C 328.695312 398.03125 328.863281 398.976562 329.539062 399.523438 C 336.949219 405.433594 348.414062 411.996094 361.195312 418.152344 C 344.316406 456.535156 321.222656 508.070312 284.425781 515.003906 C 280.46875 515.75 266.539062 512.707031 257.273438 510.707031 C 252.300781 509.625 248.34375 508.746094 246.617188 508.578125 C 237.824219 507.769531 228.527344 509.664062 219.699219 514.09375 C 219.5 514.195312 219.328125 514.292969 219.121094 514.398438 L 183.921875 442.871094 C 179.59375 434.046875 168.226562 427.144531 158.050781 427.144531 L 21.152344 427.144531 C 20.140625 427.144531 19.15625 427.25 18.273438 427.417969 C 14.425781 427.957031 11.339844 429.652344 9.515625 432.320312 C 7.355469 435.535156 7.21875 439.832031 9.082031 444.363281 L 64.238281 575.84375 C 68.15625 585.207031 79.386719 592.855469 89.230469 592.855469 L 404.988281 592.855469 C 409.65625 592.855469 413.445312 589.066406 413.445312 584.398438 L 413.445312 579.328125 C 413.445312 575.574219 410.398438 572.5625 406.679688 572.5625 L 247.773438 572.5625 L 241.652344 560.117188 C 255.722656 560.761719 276.585938 560.019531 275.199219 548.144531 L 275.199219 548.007812 C 274.898438 545.878906 271.511719 545.847656 271.820312 548.007812 C 271.851562 548.28125 271.785156 548.484375 271.785156 548.757812 C 271.683594 557.648438 249.464844 556.804688 239.824219 556.433594 L 235.332031 547.332031 L 233.46875 543.515625 L 230.730469 537.9375 L 229.109375 534.6875 L 225.28125 526.878906 C 225.457031 526.84375 225.59375 526.8125 225.757812 526.773438 C 229.308594 525.964844 235.5 527.007812 241.046875 528.5 C 241.960938 528.230469 242.804688 528.0625 243.449219 527.925781 C 245.238281 527.585938 247.570312 527.621094 249.769531 527.789062 C 243.613281 525.355469 231.511719 522.007812 225.015625 523.460938 C 224.578125 523.5625 224.167969 523.695312 223.765625 523.800781 L 220.621094 517.4375 C 220.824219 517.339844 220.992188 517.203125 221.226562 517.105469 C 229.480469 512.980469 238.171875 511.183594 246.324219 511.964844 C 247.84375 512.09375 251.867188 512.980469 256.570312 513.988281 C 269.621094 516.867188 280.816406 519.132812 285.082031 518.324219 C 323.59375 511.050781 347.101562 458.667969 364.28125 419.574219 C 384.230469 428.875 406.859375 436.890625 422.515625 439.390625 C 422.613281 439.421875 422.71875 439.421875 422.789062 439.421875 C 422.855469 439.421875 422.921875 439.390625 422.992188 439.390625 C 418.761719 457.585938 414.632812 475.8125 411.289062 494.171875 C 411.289062 494.171875 411.289062 494.171875 411.289062 494.203125 C 408.988281 506.921875 402.460938 517.542969 393.332031 526.5 C 387.382812 532.351562 378.855469 538.777344 370.230469 540.203125 L 369.320312 540.203125 C 342.09375 540.269531 314.839844 540.332031 287.582031 540.398438 C 287.582031 540.4375 287.582031 540.46875 287.582031 540.46875 C 287.007812 541.65625 285.855469 542.769531 284.46875 543.785156 C 312.265625 543.71875 340.101562 543.648438 367.898438 543.582031 C 368.132812 543.75 368.441406 543.855469 368.84375 543.816406 C 369.351562 543.785156 369.859375 543.648438 370.367188 543.582031 C 392.519531 543.515625 414.671875 543.445312 436.824219 543.414062 C 436.585938 544.15625 436.519531 544.96875 436.6875 545.847656 C 437.058594 547.839844 438.308594 549.296875 439.800781 550.378906 C 436.480469 551.121094 434.148438 553.789062 433.914062 557.578125 C 434.078125 559.542969 434.890625 561.84375 437.429688 563.632812 C 436.480469 564.074219 435.671875 564.746094 435.164062 565.628906 C 434.214844 567.179688 434.253906 569.007812 435.195312 570.703125 C 437.292969 574.386719 441.589844 575.335938 445.070312 576.113281 C 445.816406 576.28125 446.523438 576.417969 447.273438 576.617188 C 448.554688 576.886719 449.773438 577.09375 451.023438 577.328125 C 450.917969 577.394531 450.851562 577.464844 450.789062 577.53125 C 449.128906 579.152344 448.351562 581.488281 448.722656 583.789062 C 449.367188 588.050781 456.09375 589.066406 456.671875 589.132812 C 463.671875 590.855469 471.246094 591.332031 477.570312 591.332031 C 485.582031 591.332031 491.636719 590.550781 492.007812 590.484375 C 492.347656 590.484375 500.429688 590.082031 504.996094 588.558594 C 514.09375 585.003906 519.03125 582.707031 525.558594 579.023438 C 527.414062 577.972656 529.347656 576.828125 531.574219 575.507812 L 532.558594 575.234375 C 532.691406 575.234375 532.863281 575.265625 533.03125 575.265625 C 580.175781 580.273438 646.324219 584.367188 695.5625 575.804688 C 707.195312 573.476562 718.152344 569.621094 728.09375 564.613281 C 740.402344 558.425781 751.125 550.378906 759.515625 541.007812 C 763.570312 536.445312 767.125 531.609375 769.996094 526.5 C 770.335938 525.894531 770.640625 525.25 770.941406 524.636719 C 771.414062 523.757812 771.890625 522.878906 772.328125 521.96875 C 785.753906 494.75 785.652344 461.875 785.585938 432.722656 L 785.585938 426.605469 C 791.464844 424.613281 796.371094 422.386719 799.582031 419.816406 "/>
</g>
<path style=" stroke:none;fill-rule:nonzero;fill:rgb(6.269836%,5.879211%,5.099487%);fill-opacity:1;" d="M 581.183594 35.089844 C 581.660156 34.441406 582.230469 33.890625 582.890625 33.425781 C 582.414062 33.773438 581.988281 34.167969 581.605469 34.609375 Z M 634.003906 52.945312 C 629.367188 47.808594 624.351562 43.683594 618.855469 40.5 C 623.769531 43.226562 627.949219 46.425781 631.464844 50.140625 C 632.332031 51.058594 633.183594 51.992188 634.003906 52.945312 Z M 453.183594 172.765625 C 452.734375 168.050781 452.480469 163.277344 452.441406 158.460938 L 452.4375 157.910156 L 452.113281 157.46875 C 438.171875 138.542969 444.808594 110.925781 451.007812 91.804688 L 451.371094 90.671875 L 450.4375 89.941406 C 447.097656 87.359375 444.554688 83.867188 443.070312 79.835938 C 442.746094 78.957031 442.46875 78.085938 442.234375 77.226562 C 445.78125 87.273438 454.363281 94.578125 463.015625 94.578125 C 463.859375 94.578125 464.710938 94.511719 465.566406 94.367188 L 466.253906 94.257812 L 466.054688 94.597656 C 463.535156 98.992188 461.480469 103.621094 459.964844 108.347656 C 456.410156 119.253906 454.078125 131.023438 453.023438 143.316406 L 452.75 146.46875 L 455.519531 144.941406 C 457.375 143.917969 459.582031 143.21875 461.574219 143.015625 C 462.527344 142.828125 463.386719 142.742188 464.296875 142.742188 C 469.367188 142.742188 473.824219 145.144531 474.351562 146.257812 C 474.328125 146.253906 474.300781 146.253906 474.273438 146.253906 C 474.066406 146.253906 473.609375 146.328125 472.75 146.328125 C 471.992188 146.328125 471.132812 146.269531 470.222656 146.214844 C 469.128906 146.152344 467.964844 146.085938 466.800781 146.085938 C 465.382812 146.085938 464.167969 146.191406 463.097656 146.402344 C 461.894531 146.535156 460.589844 146.761719 459.351562 146.96875 C 457.585938 147.273438 455.914062 147.550781 454.585938 147.550781 L 452.992188 147.550781 L 452.609375 149.144531 C 452.527344 150.472656 452.511719 151.800781 452.492188 153.128906 L 452.472656 154.378906 C 452.378906 160.632812 452.617188 166.769531 453.183594 172.765625 Z M 527.761719 28.195312 C 526.851562 28.195312 525.824219 28.429688 524.417969 28.960938 L 522.945312 29.519531 L 525.105469 36.699219 L 532.644531 35.023438 L 532.40625 33.460938 C 531.859375 29.972656 530.300781 28.195312 527.761719 28.195312 Z M 571.6875 40.019531 C 571.46875 40.753906 571.296875 41.492188 571.125 42.230469 L 570.734375 43.863281 L 577.734375 45.566406 L 578.566406 42.382812 L 578.925781 40.941406 L 577.539062 40.394531 C 576.34375 39.933594 575.140625 39.429688 573.976562 38.933594 L 572.21875 38.179688 Z M 511.019531 43.167969 L 511.121094 44.816406 C 511.175781 45.800781 511.214844 46.699219 511.246094 47.527344 L 511.394531 50.53125 L 512.660156 50.796875 C 514.617188 51.210938 515.914062 51.484375 517.027344 51.484375 C 520.34375 51.484375 521.125 49.175781 522.660156 44.574219 L 523.484375 42.128906 Z M 475.714844 72.484375 L 479.347656 75.132812 L 481.441406 72.464844 C 482.074219 71.652344 482.703125 70.847656 483.347656 70.054688 L 484.40625 68.742188 L 483.09375 67.679688 C 482.535156 67.226562 481.980469 66.804688 481.421875 66.390625 L 479.886719 65.238281 Z M 622.898438 78.523438 C 622.453125 79.433594 621.953125 80.4375 621.355469 81.695312 L 620.21875 84.109375 L 622.886719 84.109375 C 624.6875 84.109375 626.867188 83.886719 627.769531 82.171875 C 628.6875 80.414062 627.574219 78.425781 626.5 76.890625 L 624.855469 74.519531 Z M 573.339844 88.332031 C 572.183594 89.246094 571.023438 90.171875 569.902344 91.085938 L 568.671875 92.09375 L 571.496094 96.015625 L 577.433594 90.976562 L 575.839844 88.777344 L 574.8125 87.316406 Z M 614.03125 95.953125 L 611.75 97.5625 L 614.230469 98.835938 C 616.9375 100.222656 618.550781 101.066406 621.523438 102.621094 L 625.535156 104.71875 L 620.355469 91.4375 C 620.355469 91.4375 616.089844 94.496094 614.03125 95.953125 Z M 623.96875 121.867188 L 626.53125 120.9375 C 628.445312 120.246094 630.65625 119.191406 630.824219 117.132812 C 630.988281 115.074219 628.929688 113.671875 627.363281 112.796875 L 625.140625 111.554688 Z M 612.070312 159.617188 C 611.539062 161.296875 611.105469 162.601562 610.527344 164.242188 L 610.007812 165.753906 L 611.488281 166.359375 C 613.945312 167.367188 615.941406 168.210938 619.132812 169.597656 L 621.535156 170.632812 L 621.40625 161.105469 L 620.324219 160.707031 C 618.285156 159.957031 616.484375 159.316406 614.242188 158.535156 L 612.675781 157.988281 L 613.730469 155.707031 L 610.769531 151.949219 L 609.585938 152.449219 C 607.71875 153.234375 605.855469 154.046875 603.085938 155.261719 L 600.511719 156.386719 L 603.816406 159.734375 C 605.148438 161.089844 606.203125 162.15625 607.570312 163.566406 L 609.273438 165.339844 L 612.410156 158.566406 Z M 604.945312 221.914062 C 604.035156 221.902344 603.203125 221.5 602.417969 220.683594 C 597.386719 215.445312 596.523438 196.632812 596.777344 187.421875 L 596.828125 185.472656 C 599.71875 184.214844 602.324219 182.121094 603.644531 179.898438 C 607.097656 174 606.320312 165.375 601.742188 158.917969 C 598.804688 154.738281 594.773438 152.394531 589.4375 151.753906 L 589.226562 151.730469 L 589.015625 151.761719 C 587.378906 151.980469 585.894531 152.382812 585.894531 152.382812 L 585.289062 152.542969 L 584.933594 153.054688 C 584.144531 154.21875 583.078125 155.667969 581.894531 156.609375 C 581.339844 157.054688 580.730469 157.257812 579.988281 157.257812 C 577.804688 157.257812 575.117188 155.457031 573.160156 154.144531 L 572.726562 153.855469 C 570.324219 152.28125 568.140625 150.171875 566.027344 148.128906 C 565.15625 147.28125 564.28125 146.4375 563.390625 145.628906 C 553.527344 136.625 545.320312 120.203125 541.289062 108.871094 C 539.789062 104.648438 538.082031 99.859375 537.488281 95.089844 L 534.121094 95.308594 L 534.949219 93.921875 C 532.316406 94.925781 502.917969 96.050781 498.472656 96.050781 C 487.867188 95.933594 478.976562 94.800781 471.3125 92.597656 L 470.707031 92.421875 L 470.125 92.691406 C 469.003906 93.222656 468.019531 93.582031 467.128906 93.796875 L 466.679688 93.902344 L 467.410156 91.679688 L 466.023438 90.851562 C 464.710938 90.355469 463.394531 89.796875 462.117188 89.203125 C 451.617188 84.265625 445.90625 68.527344 447.160156 56.9375 L 444.386719 56.121094 C 446.386719 51.847656 449.085938 48.109375 451.761719 45.050781 C 456.824219 37.695312 464.898438 30.992188 472.445312 27.808594 C 482.140625 23.707031 493.300781 21.710938 506.582031 21.710938 C 510.519531 21.710938 514.636719 21.886719 519.0625 22.238281 C 518.957031 22.375 518.851562 22.515625 518.734375 22.679688 C 518.382812 23.144531 517.9375 23.730469 517.335938 24.492188 L 514.105469 28.585938 L 519.125 27.167969 C 519.992188 26.925781 520.660156 26.769531 521.1875 26.652344 C 522.25 26.40625 523.027344 26.230469 523.675781 25.625 C 524.367188 24.933594 524.742188 24.140625 525.210938 23.136719 C 525.253906 23.042969 525.296875 22.949219 525.339844 22.851562 C 528.027344 23.15625 530.691406 23.484375 533.296875 23.867188 C 560.097656 27.636719 574.628906 34.496094 578.441406 36.507812 L 579.480469 37.054688 L 579.027344 37.578125 L 582.953125 37.414062 C 583.671875 37.382812 584.390625 37.363281 585.109375 37.363281 C 612.058594 37.363281 638.414062 59.730469 650.695312 93.019531 L 653.867188 92.046875 C 656.3125 101.796875 657.4375 112.121094 657.117188 122.679688 C 658.546875 143.566406 653.761719 163.375 643.273438 180.132812 C 638.109375 188.421875 622.261719 211.613281 611.042969 219.308594 L 610.855469 219.433594 C 610.855469 219.433594 609.371094 221.179688 608.683594 221.964844 Z M 601.632812 229.535156 C 603.230469 227.910156 604.734375 226.316406 606.171875 224.75 L 607.039062 223.804688 C 605.304688 225.734375 603.488281 227.648438 601.632812 229.535156 Z M 597.90625 255.855469 C 597.738281 254.671875 597.726562 253.5 597.757812 252.4375 C 597.800781 251.617188 597.878906 246.46875 597.980469 239.820312 L 598.015625 237.273438 C 597.941406 242.667969 597.8125 251.382812 597.761719 252.4375 C 597.726562 253.710938 597.777344 254.84375 597.90625 255.855469 Z M 507.828125 258.78125 C 485.761719 253.15625 469.808594 235.628906 460.285156 206.605469 C 468.929688 232.890625 482.890625 249.78125 501.902344 256.875 C 504.027344 257.679688 505.933594 258.292969 507.828125 258.78125 Z M 537.902344 259.820312 C 538.707031 259.691406 539.492188 259.542969 540.265625 259.382812 L 540.273438 259.414062 C 539.542969 259.554688 538.769531 259.691406 537.902344 259.820312 Z M 619.671875 266.316406 C 617.816406 266.246094 615.871094 266.179688 613.921875 266.011719 C 615.796875 266.171875 617.679688 266.242188 619.492188 266.308594 C 619.492188 266.308594 634.390625 266.890625 636.628906 266.984375 C 634.40625 266.890625 619.671875 266.316406 619.671875 266.316406 Z M 383.175781 322.898438 C 390.050781 315.097656 397.292969 307.757812 404.953125 301.109375 C 429.535156 279.761719 460.492188 268.085938 496.957031 266.414062 L 499.34375 266.316406 C 502.175781 266.203125 505.152344 266.09375 508.023438 265.660156 C 505.128906 266.105469 502.136719 266.210938 499.320312 266.316406 L 496.972656 266.421875 C 460.527344 268.09375 429.574219 279.769531 404.96875 301.121094 C 397.285156 307.78125 390.039062 315.117188 383.175781 322.898438 Z M 790.753906 391.816406 C 782.085938 364.15625 769.136719 333.152344 739.765625 305.792969 C 737.59375 303.769531 735.417969 301.855469 733.257812 300.035156 C 735.433594 301.855469 737.617188 303.777344 739.789062 305.800781 C 769.171875 333.175781 782.113281 364.199219 790.753906 391.816406 Z M 431.648438 409.328125 C 432.558594 405.285156 433.449219 401.25 434.316406 397.226562 C 434.320312 397.230469 434.332031 397.238281 434.339844 397.246094 C 433.460938 401.261719 432.5625 405.292969 431.648438 409.328125 Z M 350.996094 411.085938 C 342.464844 406.511719 335.519531 402.136719 330.605469 398.203125 L 331.796875 399.109375 C 335.722656 402.085938 340.429688 405.144531 345.789062 408.195312 C 347.472656 409.160156 349.214844 410.128906 350.996094 411.085938 Z M 697.480469 437.496094 C 710.445312 436.785156 743.355469 434.570312 768.851562 429.246094 C 769.023438 429.207031 769.191406 429.175781 769.363281 429.140625 C 740.960938 435.207031 703.691406 437.230469 694.589844 437.652344 C 695.363281 437.609375 696.335938 437.558594 697.480469 437.496094 Z M 422.484375 437.769531 C 417.023438 436.859375 410.425781 435.199219 403.179688 432.953125 C 410.386719 435.164062 417.03125 436.804688 422.664062 437.726562 Z M 689.570312 451.464844 C 689.539062 449.035156 689.488281 446.535156 689.40625 443.972656 C 688.660156 419.722656 687.855469 397.164062 687.855469 397.164062 C 687.855469 397.164062 688.523438 415.785156 689.203125 437.316406 L 692.464844 437.75 L 689.234375 438.375 C 689.304688 440.222656 689.371094 442.078125 689.40625 443.960938 C 689.507812 446.546875 689.550781 449.03125 689.570312 451.464844 Z M 688.597656 488.632812 C 688.628906 486.953125 688.726562 484.777344 688.863281 482.226562 C 688.863281 482.226562 688.917969 481.019531 688.9375 480.691406 C 688.929688 480.714844 688.863281 482.199219 688.863281 482.199219 C 688.734375 484.984375 688.628906 487.265625 688.597656 489.003906 C 688.597656 489.035156 688.589844 489.058594 688.585938 489.089844 Z M 412.46875 496.886719 C 412.648438 496.097656 412.808594 495.304688 412.949219 494.515625 C 413.078125 493.777344 413.214844 493.039062 413.351562 492.304688 C 413.199219 493.132812 413.050781 493.960938 412.902344 494.785156 C 412.777344 495.472656 412.632812 496.171875 412.46875 496.886719 Z M 303.984375 508.585938 C 331.261719 490.464844 349.734375 448.441406 362.746094 418.835938 L 363.398438 417.359375 C 363.398438 417.359375 362.730469 418.894531 362.730469 418.894531 C 349.726562 448.480469 331.273438 490.476562 303.984375 508.585938 Z M 248.320312 510.554688 C 247.546875 510.417969 246.921875 510.320312 246.46875 510.28125 C 245.179688 510.15625 243.875 510.097656 242.554688 510.097656 C 241.082031 510.097656 239.597656 510.175781 238.097656 510.332031 C 239.613281 510.171875 241.125 510.089844 242.617188 510.089844 C 243.910156 510.089844 245.191406 510.152344 246.46875 510.269531 C 246.90625 510.3125 247.539062 510.410156 248.320312 510.554688 Z M 277.242188 516.3125 C 274.15625 515.882812 270.496094 515.203125 266.601562 514.410156 C 270.335938 515.167969 274.074219 515.867188 277.242188 516.3125 Z M 579.207031 520.832031 C 611.308594 513.050781 650.769531 503.09375 672.402344 496.199219 C 659.101562 500.457031 637.652344 506.3125 608.171875 513.707031 C 598.265625 516.1875 588.390625 518.609375 579.207031 520.832031 Z M 479.695312 526.519531 C 481.625 526.367188 483.664062 526.160156 485.855469 525.917969 C 483.667969 526.167969 481.632812 526.371094 479.695312 526.519531 Z M 241.03125 526.75 C 237.542969 525.832031 232.722656 524.804688 228.726562 524.804688 C 227.449219 524.804688 226.324219 524.910156 225.382812 525.128906 L 224.9375 525.226562 C 225.085938 525.1875 225.234375 525.152344 225.386719 525.113281 C 226.3125 524.910156 227.429688 524.804688 228.710938 524.804688 C 232.308594 524.804688 236.824219 525.617188 241.058594 526.742188 C 241.046875 526.742188 241.039062 526.742188 241.03125 526.75 Z M 466 529.542969 C 466.695312 528.824219 467.679688 528.285156 468.773438 527.894531 C 467.679688 528.289062 466.695312 528.824219 466 529.542969 Z M 765.929688 529.925781 C 766.84375 528.519531 767.710938 527.089844 768.523438 525.640625 C 768.617188 525.484375 768.703125 525.332031 768.789062 525.171875 C 768.703125 525.34375 768.609375 525.515625 768.515625 525.683594 C 767.71875 527.101562 766.855469 528.511719 765.929688 529.925781 Z M 467.777344 536.449219 C 470.351562 537.714844 474.585938 538.332031 480.59375 538.332031 C 483.207031 538.332031 486.183594 538.207031 489.425781 537.96875 L 489.910156 537.949219 L 489.972656 537.96875 C 484.699219 538.621094 478.65625 538.894531 471.960938 539.070312 Z M 443.789062 540.5625 C 444.703125 540.363281 445.738281 540.207031 446.894531 540.097656 C 448.902344 539.890625 451.050781 539.742188 453.304688 539.625 C 451.0625 539.75 448.914062 539.90625 446.894531 540.109375 C 445.742188 540.21875 444.703125 540.367188 443.789062 540.5625 Z M 368.398438 541.898438 L 370.230469 541.890625 C 380.546875 540.214844 389.851562 532.289062 394.511719 527.707031 C 398.996094 523.3125 402.710938 518.652344 405.652344 513.75 C 399.875 523.871094 391.1875 533.496094 380.613281 538.648438 L 381.363281 541.859375 L 382.738281 541.855469 C 380.453125 541.859375 370.355469 541.890625 370.355469 541.890625 C 369.910156 541.933594 369.679688 541.976562 369.453125 542.023438 C 369.21875 542.066406 368.976562 542.113281 368.734375 542.132812 Z M 439.132812 541.71875 C 439.132812 541.71875 413.710938 541.769531 402.164062 541.800781 L 440.457031 541.6875 C 439.78125 542.046875 439.269531 542.472656 438.890625 542.957031 C 438.753906 543.148438 438.636719 543.351562 438.542969 543.550781 Z M 439.347656 547.675781 C 438.871094 547.078125 438.554688 546.449219 438.394531 545.765625 C 438.574219 546.484375 438.910156 547.117188 439.347656 547.675781 Z M 461.300781 552.746094 L 460.886719 552.746094 L 460.832031 552.773438 C 457.140625 552.695312 454.089844 552.492188 451.316406 552.117188 C 448.457031 551.964844 445.519531 551.835938 442.550781 551.835938 L 441.570312 551.835938 C 441.3125 551.839844 441.050781 551.859375 440.804688 551.890625 L 443.804688 551.214844 L 441.15625 549.285156 C 442.851562 550.386719 444.871094 550.960938 446.023438 551.222656 C 447.5625 551.566406 449.242188 551.859375 451.148438 552.09375 C 453.988281 552.273438 456.714844 552.441406 459.382812 552.644531 L 461.140625 552.746094 L 462.222656 552.75 C 465.652344 552.75 469.304688 552.609375 473.726562 552.304688 C 473.820312 552.296875 473.917969 552.292969 474.011719 552.292969 L 473.726562 552.3125 C 469.8125 552.558594 465.957031 552.78125 462.011719 552.78125 C 461.625 552.757812 461.460938 552.746094 461.300781 552.746094 Z M 435.8125 558.710938 C 435.707031 558.308594 435.628906 557.882812 435.589844 557.4375 C 435.71875 555.546875 436.597656 553.945312 438.042969 552.949219 C 436.648438 553.9375 435.738281 555.535156 435.601562 557.460938 C 435.632812 557.871094 435.703125 558.292969 435.8125 558.710938 Z M 453.574219 565.800781 C 450.300781 565.640625 447.898438 565.335938 445.960938 565.082031 L 445.316406 565 C 443.664062 564.761719 442.238281 564.585938 440.777344 564.550781 C 440.722656 564.542969 440.550781 564.53125 440.375 564.53125 C 439.972656 564.53125 439.589844 564.582031 439.238281 564.660156 L 440.785156 563.941406 L 438.402344 562.257812 C 437.988281 561.96875 437.621094 561.644531 437.292969 561.3125 C 438.566406 562.644531 440.730469 563.769531 444.289062 564.359375 C 447.171875 564.996094 450.300781 565.484375 453.5 565.792969 C 453.519531 565.792969 453.550781 565.800781 453.574219 565.800781 Z M 464.75 566.269531 C 462.105469 566.269531 459.566406 566.203125 457.152344 566.058594 C 459.519531 566.195312 462.019531 566.257812 464.726562 566.257812 C 470.363281 566.257812 476.015625 565.96875 481.007812 565.714844 L 481.980469 565.664062 C 476.742188 565.9375 470.792969 566.269531 464.75 566.269531 Z M 438.605469 571.996094 C 437.832031 571.441406 437.164062 570.742188 436.667969 569.867188 C 436.210938 569.050781 435.824219 567.800781 436.605469 566.511719 C 436.644531 566.445312 436.679688 566.386719 436.71875 566.328125 C 436.679688 566.386719 436.644531 566.445312 436.613281 566.5 C 436.011719 567.476562 436.03125 568.742188 436.675781 569.855469 C 437.167969 570.742188 437.832031 571.441406 438.605469 571.996094 Z M 447.457031 574.925781 C 447.039062 574.8125 446.5625 574.710938 446.070312 574.605469 L 445.441406 574.46875 C 444.429688 574.238281 443.378906 574.003906 442.355469 573.707031 C 443.386719 574.003906 444.4375 574.230469 445.453125 574.457031 C 446.160156 574.609375 446.839844 574.753906 447.457031 574.925781 Z M 455.480469 576.472656 C 456.777344 576.691406 458.050781 576.882812 459.308594 577.0625 L 459.257812 577.074219 C 458.6875 576.960938 457.933594 576.90625 457.242188 576.90625 C 455.984375 576.90625 454.875 577.097656 453.921875 577.484375 Z M 473.746094 578.175781 C 471.695312 578.175781 469.523438 578.089844 467.1875 577.902344 C 469.472656 578.0625 471.664062 578.152344 473.765625 578.152344 C 478.640625 578.152344 483.070312 577.699219 486.914062 576.8125 C 483 577.71875 478.566406 578.175781 473.746094 578.175781 Z M 521.996094 579.0625 C 523.726562 578.121094 525.527344 577.105469 527.519531 575.941406 C 526.554688 576.503906 525.625 577.042969 524.722656 577.550781 C 523.785156 578.082031 522.882812 578.585938 521.996094 579.0625 Z M 450.394531 583.542969 C 450.121094 581.859375 450.640625 580.164062 451.78125 578.929688 C 450.425781 580.484375 450.175781 582.324219 450.40625 583.582031 C 450.40625 583.605469 450.410156 583.636719 450.417969 583.667969 C 450.40625 583.625 450.398438 583.585938 450.394531 583.542969 Z M 492.257812 588.785156 C 494.9375 588.613281 497.253906 588.378906 499.214844 588.101562 C 496.210938 588.539062 493.253906 588.738281 492.257812 588.785156 Z M 477.566406 589.640625 C 469.753906 589.640625 462.855469 588.917969 457.074219 587.492188 C 456.523438 587.425781 455.703125 587.269531 454.820312 587.003906 C 456.007812 587.351562 456.988281 587.480469 457.085938 587.5 C 462.789062 588.898438 469.753906 589.621094 477.632812 589.621094 C 482.957031 589.621094 487.367188 589.289062 489.835938 589.046875 C 487.285156 589.292969 482.804688 589.640625 477.566406 589.640625 Z M 28.101562 447.941406 C 26.238281 447.941406 24.507812 448.746094 22.820312 450.390625 L 21.464844 451.703125 L 22.917969 452.90625 C 25.519531 455.042969 26.820312 456.125 28.421875 456.125 C 30.296875 456.125 31.425781 454.707031 33.46875 452.144531 L 34.625 450.6875 L 33.070312 449.675781 C 31.28125 448.511719 29.660156 447.941406 28.101562 447.941406 Z M 113.648438 453.035156 C 113.5 457.800781 113.800781 458.730469 117.945312 459.671875 L 119.882812 460.117188 L 120.003906 458.128906 C 120.019531 457.871094 120.0625 457.597656 120.105469 457.324219 C 120.253906 456.347656 120.433594 455.121094 119.726562 454.132812 C 119.089844 453.214844 118.140625 452.703125 117.226562 452.210938 C 116.902344 452.046875 116.570312 451.867188 116.242188 451.660156 L 113.746094 450.089844 Z M 111.609375 463.882812 C 109.089844 467.101562 109.191406 469.898438 111.925781 473.546875 L 113.746094 475.980469 L 115.078125 472.578125 C 116.160156 469.855469 117.28125 467.039062 114.167969 463.765625 L 112.816406 462.339844 Z M 173.992188 479.574219 C 173.5 479.664062 173.007812 479.730469 172.511719 479.796875 C 169.355469 480.242188 165.421875 480.789062 162.699219 485.679688 L 161.957031 487.011719 L 165.539062 489.523438 C 166.816406 490.414062 167.992188 491.234375 168.96875 491.933594 L 169.953125 492.636719 L 170.945312 491.933594 C 172.636719 490.710938 174.109375 489.671875 175.488281 488.695312 C 176.75 487.796875 179.488281 485.847656 179.488281 485.847656 L 179.667969 485.5 C 180.644531 483.644531 181.722656 481.617188 183.042969 479.191406 L 183.519531 478.324219 L 178.144531 469.917969 Z M 124.269531 507.582031 C 124.53125 511.289062 124.714844 513.976562 128.203125 513.976562 C 129.234375 513.976562 130.523438 513.730469 132.46875 513.351562 L 134.960938 512.875 L 133.558594 510.757812 C 130.902344 506.757812 130.492188 506.480469 126.226562 505.792969 L 124.121094 505.460938 Z M 82.015625 535.820312 L 82.777344 537.347656 C 82.964844 537.707031 83.675781 539.230469 83.863281 539.605469 L 84.691406 541.265625 L 91.367188 537.105469 L 89.007812 532.371094 Z M 187.59375 549.140625 L 189.40625 555.011719 L 196.109375 551.902344 L 194.410156 547.421875 Z M 94.585938 553.101562 C 94.070312 553.226562 93.53125 553.320312 92.996094 553.417969 L 92.035156 553.585938 L 91.707031 554.507812 C 91.21875 555.851562 90.820312 557.425781 91.582031 558.886719 C 92.203125 560.0625 93.398438 560.878906 95.253906 561.378906 L 97.722656 562.042969 L 97.148438 557.945312 C 96.980469 556.707031 96.828125 555.605469 96.652344 554.488281 L 96.375 552.664062 Z M 72.90625 557.578125 C 72.519531 557.863281 72.113281 558.15625 71.722656 558.410156 L 70.832031 559.003906 L 72.007812 567.238281 C 72.007812 567.238281 77.058594 565.832031 78.707031 565.359375 L 81.316406 564.617188 L 74.136719 556.65625 Z M 105.121094 564.4375 C 104.136719 564.742188 103.195312 565.019531 101.773438 565.472656 L 99.152344 566.308594 L 109.363281 576.777344 C 109.363281 576.777344 108.96875 567.101562 108.917969 565.507812 L 108.84375 563.292969 Z M 220.855469 570.710938 C 219.40625 570.921875 218.230469 571.09375 216.707031 571.292969 L 214.175781 571.632812 L 219.933594 581.417969 L 226.875 569.847656 Z M 89.230469 591.164062 C 80 591.164062 69.488281 583.996094 65.804688 575.191406 L 10.640625 443.710938 C 8.996094 439.699219 9.09375 435.984375 10.925781 433.269531 C 12.460938 431.027344 15.09375 429.578125 18.515625 429.097656 C 19.421875 428.921875 20.304688 428.84375 21.160156 428.84375 L 32.277344 428.84375 C 32.160156 429.089844 32.054688 429.3125 31.964844 429.503906 C 31.5 430.453125 31.191406 431.078125 31.238281 431.886719 C 31.320312 432.734375 31.652344 433.421875 31.925781 433.972656 C 32.007812 434.152344 32.101562 434.332031 32.175781 434.507812 L 32.75 435.957031 L 36.59375 434.808594 L 36.019531 428.84375 L 94.097656 428.84375 L 94.070312 429.746094 C 94.003906 432.414062 94.480469 434.242188 95.542969 435.332031 C 96.230469 436.035156 97.136719 436.40625 98.15625 436.40625 C 98.800781 436.40625 99.507812 436.253906 100.242188 435.957031 C 101.242188 435.578125 101.5625 434.625 101.871094 433.707031 C 101.988281 433.363281 102.125 432.964844 102.3125 432.527344 L 102.992188 430.964844 L 101.425781 430.296875 C 100.167969 429.765625 99.03125 429.292969 97.929688 428.84375 L 158.050781 428.84375 C 167.644531 428.84375 178.335938 435.335938 182.402344 443.621094 L 194.953125 469.121094 L 194.710938 473.144531 C 194.648438 474.214844 194.574219 474.988281 194.519531 475.5625 C 194.414062 476.640625 194.359375 477.292969 194.589844 478.003906 C 194.917969 478.925781 195.585938 479.421875 196.179688 479.855469 C 196.351562 479.984375 196.539062 480.121094 196.722656 480.28125 L 198.265625 481.59375 L 199.28125 479.839844 C 199.40625 479.632812 199.539062 479.433594 199.671875 479.246094 C 199.71875 479.171875 199.777344 479.097656 199.824219 479.019531 L 218.363281 516.671875 L 219.964844 515.871094 L 218.660156 516.675781 L 219.097656 518.195312 L 222.851562 525.769531 L 223.308594 525.660156 L 223.765625 527.621094 L 227.585938 535.433594 L 229.214844 538.691406 L 233.808594 548.078125 L 238.753906 558.085938 L 239.757812 558.128906 C 242.109375 558.214844 245.210938 558.335938 248.5625 558.335938 C 254.691406 558.335938 273.363281 558.335938 273.472656 548.78125 C 273.484375 548.628906 273.503906 548.492188 273.511719 548.34375 L 273.515625 548.347656 C 273.738281 550.261719 273.277344 551.847656 272.085938 553.175781 C 269.890625 555.648438 263.988281 558.59375 248.394531 558.59375 C 246.085938 558.59375 243.824219 558.53125 241.726562 558.433594 L 238.871094 558.304688 L 239.972656 560.542969 C 232.898438 561.9375 232.621094 563.152344 232.621094 571.113281 L 232.621094 573.351562 L 234.773438 572.742188 C 239.621094 571.359375 241.378906 567.96875 242.078125 564.828125 L 246.726562 574.257812 L 247.292969 575.453125 C 248.660156 578.34375 249.0625 581.246094 248.457031 583.851562 L 248.324219 584.441406 L 250.617188 589.101562 C 251.117188 590.230469 252.324219 590.996094 253.65625 590.996094 C 254.25 590.996094 254.789062 590.867188 255.242188 590.605469 C 256.8125 589.820312 257.5 587.800781 256.703125 586.136719 L 251.082031 574.726562 C 251 574.566406 250.90625 574.40625 250.796875 574.257812 L 406.683594 574.257812 C 409.484375 574.257812 411.753906 576.535156 411.753906 579.332031 L 411.753906 584.402344 C 411.753906 588.128906 408.722656 591.171875 404.996094 591.171875 L 89.230469 591.171875 L 89.230469 591.164062 "/>
<path style=" stroke:none;fill-rule:nonzero;fill:rgb(6.269836%,5.879211%,5.099487%);fill-opacity:1;" d="M 491.828125 209.9375 C 494.003906 209.851562 494.007812 206.464844 491.828125 206.550781 C 467.769531 207.511719 481.28125 176.902344 486.914062 164.917969 C 487.84375 162.953125 484.925781 161.234375 483.996094 163.207031 C 477.226562 177.609375 464.0625 211.039062 491.828125 209.9375 "/>
<path style=" stroke:none;fill-rule:nonzero;fill:rgb(6.269836%,5.879211%,5.099487%);fill-opacity:1;" d="M 490.523438 208.269531 C 484.691406 208.269531 480.808594 206.605469 478.636719 203.1875 C 478.210938 202.515625 477.851562 201.765625 477.554688 200.949219 C 477.820312 201.566406 478.121094 202.15625 478.476562 202.71875 C 480.816406 206.394531 484.945312 208.265625 490.753906 208.265625 C 490.949219 208.265625 491.148438 208.265625 491.351562 208.257812 C 491.050781 208.265625 490.78125 208.269531 490.523438 208.269531 "/>
<path style=" stroke:none;fill-rule:nonzero;fill:rgb(6.269836%,5.879211%,5.099487%);fill-opacity:1;" d="M 515.96875 215.730469 C 511.292969 224.300781 498.804688 225.613281 490.480469 222.324219 C 488.441406 221.527344 487.570312 224.800781 489.574219 225.585938 C 499.308594 229.417969 513.523438 227.269531 518.882812 217.441406 C 519.929688 215.527344 517.015625 213.816406 515.96875 215.730469 "/>
<path style=" stroke:none;fill-rule:nonzero;fill:rgb(6.269836%,5.879211%,5.099487%);fill-opacity:1;" d="M 499.425781 225.6875 C 496.441406 225.6875 493.511719 225.195312 490.90625 224.273438 C 493.582031 225.191406 496.546875 225.667969 499.550781 225.667969 C 500.132812 225.667969 500.699219 225.65625 501.265625 225.617188 C 500.644531 225.660156 500.027344 225.6875 499.425781 225.6875 "/>
<path style=" stroke:none;fill-rule:nonzero;fill:rgb(6.269836%,5.879211%,5.099487%);fill-opacity:1;" d="M 522.449219 140.601562 C 517 138.910156 511.039062 139.144531 505.726562 141.238281 C 504.636719 141.664062 498.25 144.339844 500.242188 146.4375 C 502.21875 148.511719 506.859375 147.21875 509.292969 146.957031 C 513.511719 146.519531 517.726562 146.277344 521.9375 146.863281 C 523.5625 147.09375 529.304688 148.980469 530.386719 146.894531 C 531.945312 143.90625 524.113281 141.113281 522.449219 140.601562 "/>
<path style=" stroke:none;fill-rule:nonzero;fill:rgb(6.269836%,5.879211%,5.099487%);fill-opacity:1;" d="M 527.929688 146.179688 C 526.648438 146.179688 524.949219 145.789062 523.710938 145.507812 C 523.070312 145.359375 522.53125 145.242188 522.171875 145.195312 C 520.414062 144.945312 518.59375 144.828125 516.605469 144.828125 C 514.425781 144.828125 512.117188 144.964844 509.121094 145.28125 C 508.632812 145.328125 508.0625 145.421875 507.449219 145.515625 C 506.304688 145.703125 505.011719 145.90625 503.851562 145.90625 C 502.867188 145.90625 502.148438 145.757812 501.703125 145.464844 C 502.292969 144.816406 504.125 143.6875 506.347656 142.808594 C 509.109375 141.726562 512.023438 141.167969 515.019531 141.167969 C 517.386719 141.167969 519.71875 141.523438 521.953125 142.214844 C 525.65625 143.359375 528.753906 145.253906 528.902344 146.078125 C 528.839844 146.078125 528.558594 146.179688 527.929688 146.179688 "/>
<path style=" stroke:none;fill-rule:nonzero;fill:rgb(6.269836%,5.879211%,5.099487%);fill-opacity:1;" d="M 460.25 167.726562 C 460.503906 163.585938 462.824219 160.355469 465.4375 160.515625 C 468.042969 160.675781 469.949219 164.167969 469.695312 168.308594 C 469.441406 172.457031 467.113281 175.683594 464.507812 175.523438 C 461.894531 175.359375 459.988281 171.871094 460.25 167.726562 "/>
<path style=" stroke:none;fill-rule:nonzero;fill:rgb(6.269836%,5.879211%,5.099487%);fill-opacity:1;" d="M 464.625 173.84375 C 463.96875 173.808594 463.308594 173.25 462.800781 172.316406 C 462.15625 171.140625 461.847656 169.503906 461.945312 167.839844 C 462.148438 164.519531 463.851562 162.210938 465.257812 162.210938 C 465.996094 162.253906 466.65625 162.8125 467.164062 163.742188 C 467.808594 164.917969 468.117188 166.550781 468.019531 168.21875 C 467.816406 171.535156 466.113281 173.851562 464.707031 173.851562 L 464.625 173.84375 "/>
<path style=" stroke:none;fill-rule:nonzero;fill:rgb(6.269836%,5.879211%,5.099487%);fill-opacity:1;" d="M 511.902344 156.75 C 514.507812 156.917969 516.414062 160.40625 516.160156 164.550781 C 515.90625 168.695312 513.578125 171.917969 510.972656 171.757812 C 508.359375 171.597656 506.453125 168.113281 506.710938 163.964844 C 506.964844 159.824219 509.289062 156.597656 511.902344 156.75 "/>
<path style=" stroke:none;fill-rule:nonzero;fill:rgb(6.269836%,5.879211%,5.099487%);fill-opacity:1;" d="M 511.070312 170.054688 C 510.414062 170.019531 509.753906 169.460938 509.246094 168.527344 C 508.601562 167.351562 508.292969 165.722656 508.390625 164.050781 C 508.59375 160.734375 510.304688 158.421875 511.707031 158.421875 C 512.445312 158.464844 513.109375 159.023438 513.617188 159.953125 C 514.257812 161.128906 514.570312 162.761719 514.464844 164.421875 C 514.257812 167.746094 512.550781 170.054688 511.152344 170.054688 L 511.070312 170.054688 "/>
<path style=" stroke:none;fill-rule:nonzero;fill:rgb(6.269836%,5.879211%,5.099487%);fill-opacity:1;" d="M 287.578125 540.40625 C 287.578125 540.4375 287.578125 540.472656 287.578125 540.472656 C 287 541.65625 285.847656 542.769531 284.460938 543.785156 C 281.726562 545.78125 278.003906 547.339844 275.199219 548.152344 L 275.199219 548.015625 C 274.890625 545.886719 271.511719 545.855469 271.8125 548.015625 C 271.851562 548.285156 271.785156 548.492188 271.785156 548.761719 C 268.601562 549 264.953125 549.097656 261.234375 549.097656 C 250.917969 549.097656 240.03125 548.355469 237.019531 547.644531 C 236.476562 547.542969 235.902344 547.4375 235.324219 547.339844 L 233.46875 543.519531 C 234.074219 543.648438 234.71875 543.785156 235.5 543.921875 C 236.273438 544.058594 237.050781 544.195312 237.765625 544.363281 C 241.71875 545.242188 260.992188 546.324219 272.359375 545.308594 C 275.640625 544.976562 282.910156 541.722656 284.363281 539.222656 C 284.394531 539.15625 284.460938 539.085938 284.5 539.054688 C 284.902344 538.207031 285.917969 537.835938 286.765625 538.238281 C 287.578125 538.609375 287.949219 539.59375 287.578125 540.40625 "/>
<path style=" stroke:none;fill-rule:nonzero;fill:rgb(6.269836%,5.879211%,5.099487%);fill-opacity:1;" d="M 285.042969 541.085938 C 285.367188 540.746094 285.625 540.40625 285.824219 540.066406 L 285.9375 539.960938 C 285.757812 540.261719 285.476562 540.640625 285.042969 541.085938 "/>
<path style=" stroke:none;fill-rule:nonzero;fill:rgb(6.269836%,5.879211%,5.099487%);fill-opacity:1;" d="M 244.054688 531.261719 C 248.058594 530.527344 255.792969 531.988281 255.871094 532 C 256.734375 532.160156 257.519531 531.644531 257.78125 530.839844 C 257.796875 530.773438 257.839844 530.722656 257.855469 530.65625 C 258.027344 529.746094 257.425781 528.855469 256.511719 528.679688 C 256.300781 528.644531 253.191406 528.054688 249.757812 527.796875 C 247.570312 527.632812 245.25 527.601562 243.441406 527.929688 C 242.808594 528.050781 241.972656 528.246094 241.03125 528.511719 C 237.496094 529.496094 232.304688 531.527344 229.109375 534.679688 L 230.71875 537.949219 C 233.34375 534.53125 240.308594 531.949219 244.054688 531.261719 "/>
<path style=" stroke:none;fill-rule:nonzero;fill:rgb(6.269836%,5.879211%,5.099487%);fill-opacity:1;" d="M 243.746094 529.597656 C 244.097656 529.527344 244.492188 529.480469 244.921875 529.441406 C 244.5 529.480469 244.109375 529.535156 243.75 529.597656 C 243.503906 529.640625 243.242188 529.695312 242.96875 529.757812 C 243.253906 529.691406 243.515625 529.632812 243.746094 529.597656 Z M 231.1875 535.074219 C 233.183594 533.433594 235.734375 532.203125 237.851562 531.367188 C 235.449219 532.328125 233.023438 533.601562 231.195312 535.089844 L 231.1875 535.074219 "/>
<g clip-path="url(#clip3)" clip-rule="nonzero">
<path style=" stroke:none;fill-rule:nonzero;fill:rgb(6.269836%,5.879211%,5.099487%);fill-opacity:1;" d="M 569.011719 612.640625 C 568.945312 613.316406 567.664062 616.089844 564.988281 618.21875 C 563.503906 619.398438 561.707031 621.058594 559.8125 622.847656 C 557.820312 624.710938 555.757812 626.601562 553.960938 628.054688 C 550.71875 630.660156 545.070312 633.433594 541.859375 633.433594 L 400.902344 633.433594 C 399.515625 633.433594 398.128906 631.402344 398.128906 629.441406 C 398.128906 628.53125 398.636719 627.378906 399.449219 626.304688 C 399.957031 626.5 400.53125 626.675781 401.207031 626.675781 L 543.214844 626.675781 C 547.066406 626.675781 552.476562 623.425781 555.21875 621.226562 C 556.667969 620.082031 558.667969 618.390625 560.757812 616.625 C 562.964844 614.769531 565.261719 612.84375 567.054688 611.421875 C 567.867188 610.746094 568.472656 610.101562 569.011719 609.457031 Z M 402.386719 621.765625 C 403.640625 620.757812 405.472656 619.195312 407.464844 617.542969 C 409.695312 615.648438 412.164062 613.550781 414.195312 611.929688 C 418.589844 608.410156 422.3125 606.417969 423.222656 606.382812 L 455.011719 606.382812 L 436.003906 623.289062 L 401.070312 623.289062 C 401.207031 622.953125 401.578125 622.410156 402.386719 621.765625 Z M 523.222656 606.382812 L 566.441406 606.382812 C 566.679688 606.382812 566.84375 606.417969 566.980469 606.417969 C 566.8125 606.820312 566.308594 607.667969 564.921875 608.78125 C 563.09375 610.238281 560.796875 612.164062 558.5625 614.058594 C 556.53125 615.785156 554.539062 617.445312 553.082031 618.625 C 549.871094 621.195312 545.4375 623.292969 543.207031 623.292969 L 506.855469 623.292969 Z M 568.269531 603.304688 C 567.792969 603.136719 567.1875 603 566.441406 603 L 423.222656 603 C 420.007812 603 412.875 608.648438 412.09375 609.289062 C 410.035156 610.949219 407.5625 613.042969 405.265625 614.9375 C 403.304688 616.597656 401.507812 618.117188 400.257812 619.132812 C 398.671875 620.414062 397.757812 621.839844 397.621094 623.1875 C 395.898438 625.050781 394.75 627.3125 394.75 629.449219 C 394.75 632.925781 397.285156 636.820312 400.902344 636.820312 L 541.859375 636.820312 C 546.15625 636.820312 552.378906 633.675781 556.097656 630.699219 C 557.957031 629.175781 560.085938 627.210938 562.117188 625.320312 C 563.972656 623.597656 565.730469 621.976562 567.117188 620.855469 C 570.164062 618.390625 572.089844 615.003906 572.292969 613.046875 C 572.324219 612.941406 572.390625 612.777344 572.390625 612.671875 L 572.390625 607.601562 C 572.363281 605.601562 571.074219 603.644531 568.269531 603.304688 "/>
</g>
<path style=" stroke:none;fill-rule:nonzero;fill:rgb(6.269836%,5.879211%,5.099487%);fill-opacity:1;" d="M 419.339844 606.28125 C 420.886719 605.378906 422.3125 604.722656 423.164062 604.691406 C 422.339844 604.722656 420.949219 605.339844 419.339844 606.28125 Z M 567.964844 608.078125 C 568.25 607.679688 568.429688 607.335938 568.546875 607.0625 L 569.265625 605.316406 C 569.53125 605.441406 569.75 605.59375 569.929688 605.753906 Z M 414.675781 609.414062 C 415.203125 609.019531 415.78125 608.601562 416.378906 608.1875 C 415.808594 608.585938 415.242188 609 414.675781 609.414062 Z M 570.703125 607.617188 C 570.703125 607.617188 570.695312 612.707031 570.695312 612.71875 Z M 559.65625 615.34375 C 561.875 613.464844 564.160156 611.550781 565.972656 610.109375 C 566.101562 610.003906 566.226562 609.898438 566.34375 609.796875 C 566.21875 609.910156 566.097656 610.015625 565.964844 610.121094 C 564.195312 611.527344 561.878906 613.46875 559.671875 615.339844 L 559.335938 615.613281 C 559.445312 615.523438 559.550781 615.433594 559.65625 615.34375 Z M 400.492188 621.207031 C 400.734375 620.949219 401.015625 620.695312 401.324219 620.445312 C 402.339844 619.621094 403.707031 618.464844 405.234375 617.175781 L 408.425781 614.507812 C 407.859375 614.984375 404.117188 618.136719 404.117188 618.136719 C 403.039062 619.042969 402.078125 619.847656 401.328125 620.453125 C 401.015625 620.699219 400.734375 620.953125 400.492188 621.207031 Z M 561.695312 623.40625 C 563.21875 621.96875 564.753906 620.5625 566.039062 619.542969 C 566.34375 619.300781 566.636719 619.046875 566.90625 618.792969 C 566.640625 619.046875 566.351562 619.300781 566.054688 619.546875 C 564.832031 620.527344 563.347656 621.871094 561.695312 623.40625 Z M 436.648438 624.984375 L 459.457031 604.691406 L 423.226562 604.691406 L 566.441406 604.691406 L 522.503906 604.691406 L 502.867188 624.984375 Z M 396.4375 629.429688 C 396.445312 627.980469 397.1875 626.296875 398.492188 624.75 L 398.089844 625.28125 C 397.03125 626.699219 396.445312 628.171875 396.4375 629.429688 Z M 541.859375 635.125 C 545.554688 635.125 551.570312 632.140625 555.019531 629.375 C 555.664062 628.851562 556.339844 628.285156 557.050781 627.660156 C 556.34375 628.277344 555.671875 628.859375 555.027344 629.390625 C 551.503906 632.203125 545.605469 635.125 541.859375 635.125 "/>
<path style=" stroke:none;fill-rule:nonzero;fill:rgb(6.269836%,5.879211%,5.099487%);fill-opacity:1;" d="M 545.332031 613.148438 L 538.566406 613.148438 C 537.628906 613.148438 536.875 613.902344 536.875 614.835938 C 536.875 615.773438 537.628906 616.527344 538.566406 616.527344 L 545.332031 616.527344 C 546.265625 616.527344 547.023438 615.773438 547.023438 614.835938 C 547.023438 613.902344 546.265625 613.148438 545.332031 613.148438 "/>
<path style=" stroke:none;fill-rule:nonzero;fill:rgb(6.269836%,5.879211%,5.099487%);fill-opacity:1;" d="M 545.332031 613.148438 L 538.566406 613.148438 C 537.628906 613.148438 536.875 613.902344 536.875 614.835938 C 536.875 615.773438 537.628906 616.527344 538.566406 616.527344 L 545.332031 616.527344 C 546.265625 616.527344 547.023438 615.773438 547.023438 614.835938 C 547.023438 613.902344 546.265625 613.148438 545.332031 613.148438 "/>
<path style=" stroke:none;fill-rule:nonzero;fill:rgb(6.269836%,5.879211%,5.099487%);fill-opacity:1;" d="M 525.039062 613.148438 L 521.65625 613.148438 C 520.722656 613.148438 519.960938 613.902344 519.960938 614.835938 C 519.960938 615.773438 520.722656 616.527344 521.65625 616.527344 L 525.039062 616.527344 C 525.972656 616.527344 526.726562 615.773438 526.726562 614.835938 C 526.726562 613.902344 525.972656 613.148438 525.039062 613.148438 "/>
<path style=" stroke:none;fill-rule:nonzero;fill:rgb(6.269836%,5.879211%,5.099487%);fill-opacity:1;" d="M 525.039062 613.148438 L 521.65625 613.148438 C 520.722656 613.148438 519.960938 613.902344 519.960938 614.835938 C 519.960938 615.773438 520.722656 616.527344 521.65625 616.527344 L 525.039062 616.527344 C 525.972656 616.527344 526.726562 615.773438 526.726562 614.835938 C 526.726562 613.902344 525.972656 613.148438 525.039062 613.148438 "/>
<path style=" stroke:none;fill-rule:nonzero;fill:rgb(6.269836%,5.879211%,5.099487%);fill-opacity:1;" d="M 535.183594 616.527344 L 528.417969 616.527344 C 527.484375 616.527344 526.726562 617.28125 526.726562 618.21875 C 526.726562 619.152344 527.484375 619.90625 528.417969 619.90625 L 535.183594 619.90625 C 536.121094 619.90625 536.875 619.152344 536.875 618.21875 C 536.875 617.28125 536.121094 616.527344 535.183594 616.527344 "/>
<path style=" stroke:none;fill-rule:nonzero;fill:rgb(6.269836%,5.879211%,5.099487%);fill-opacity:1;" d="M 535.183594 616.527344 L 528.417969 616.527344 C 527.484375 616.527344 526.726562 617.28125 526.726562 618.21875 C 526.726562 619.152344 527.484375 619.90625 528.417969 619.90625 L 535.183594 619.90625 C 536.121094 619.90625 536.875 619.152344 536.875 618.21875 C 536.875 617.28125 536.121094 616.527344 535.183594 616.527344 "/>
<path style=" stroke:none;fill-rule:nonzero;fill:rgb(6.269836%,5.879211%,5.099487%);fill-opacity:1;" d="M 528.417969 609.761719 C 527.484375 609.761719 526.726562 610.523438 526.726562 611.457031 C 526.726562 612.390625 527.484375 613.148438 528.417969 613.148438 L 535.183594 613.148438 C 536.121094 613.148438 536.875 612.390625 536.875 611.457031 C 536.875 610.523438 536.121094 609.761719 535.183594 609.761719 L 528.417969 609.761719 "/>
<path style=" stroke:none;fill-rule:nonzero;fill:rgb(6.269836%,5.879211%,5.099487%);fill-opacity:1;" d="M 528.417969 609.761719 C 527.484375 609.761719 526.726562 610.523438 526.726562 611.457031 C 526.726562 612.390625 527.484375 613.148438 528.417969 613.148438 L 535.183594 613.148438 C 536.121094 613.148438 536.875 612.390625 536.875 611.457031 C 536.875 610.523438 536.121094 609.761719 535.183594 609.761719 L 528.417969 609.761719 "/>
<path style=" stroke:none;fill-rule:nonzero;fill:rgb(6.269836%,5.879211%,5.099487%);fill-opacity:1;" d="M 427.078125 617.878906 C 422.75 617.878906 420.105469 616.1875 420.105469 615.238281 C 420.105469 614.328125 422.746094 612.640625 427.078125 612.640625 C 431.441406 612.640625 434.078125 614.328125 434.078125 615.238281 C 434.078125 616.1875 431.441406 617.878906 427.078125 617.878906 Z M 427.078125 609.253906 C 421.191406 609.253906 416.726562 611.828125 416.726562 615.238281 C 416.726562 618.695312 421.195312 621.257812 427.078125 621.257812 C 432.996094 621.257812 437.460938 618.6875 437.460938 615.238281 C 437.460938 611.828125 432.996094 609.253906 427.078125 609.253906 "/>
<path style=" stroke:none;fill-rule:nonzero;fill:rgb(6.269836%,5.879211%,5.099487%);fill-opacity:1;" d="M 435.769531 615.238281 C 435.769531 612.875 431.871094 610.945312 427.078125 610.945312 C 422.304688 610.945312 418.421875 612.875 418.421875 615.238281 C 418.421875 612.875 422.304688 610.945312 427.078125 610.945312 C 431.871094 610.945312 435.769531 612.875 435.769531 615.238281 "/>
</g>
</svg>
