<?xml version="1.0" encoding="UTF-8"?>
<svg xmlns="http://www.w3.org/2000/svg" xmlns:xlink="http://www.w3.org/1999/xlink" width="600pt" height="809.999993pt" viewBox="0 0 600 809.999993" version="1.2">
<defs>
<clipPath id="clip1">
  <path d="M 37 17 L 562.597656 17 L 562.597656 793 L 37 793 Z M 37 17 "/>
</clipPath>
<clipPath id="clip2">
  <path d="M 36.664062 16.972656 L 563.578125 16.972656 L 563.578125 793.222656 L 36.664062 793.222656 Z M 36.664062 16.972656 "/>
</clipPath>
</defs>
<g id="surface1">
<rect x="0" y="0" width="600" height="809.999993" style="fill:rgb(100%,100%,100%);fill-opacity:1;stroke:none;"/>
<rect x="0" y="0" width="600" height="809.999993" style="fill:rgb(100%,100%,100%);fill-opacity:1;stroke:none;"/>
<rect x="0" y="0" width="600" height="809.999993" style="fill:rgb(100%,100%,100%);fill-opacity:1;stroke:none;"/>
<path style=" stroke:none;fill-rule:nonzero;fill:rgb(100%,100%,100%);fill-opacity:1;" d="M 128.414062 766.375 L 127.5625 766.230469 L 127.5625 766.214844 L 126.574219 766.238281 C 121.375 766.390625 117.304688 770.5625 117.304688 775.738281 C 117.304688 781 121.589844 785.273438 126.84375 785.273438 C 132.101562 785.273438 136.367188 781 136.367188 775.738281 C 136.367188 771.078125 133.023438 767.148438 128.414062 766.375 "/>
<path style=" stroke:none;fill-rule:nonzero;fill:rgb(100%,100%,100%);fill-opacity:1;" d="M 196.089844 766.222656 C 196.074219 766.222656 196.058594 766.222656 196.050781 766.222656 L 194.832031 766.460938 L 194.832031 766.277344 L 194.035156 766.460938 C 189.664062 767.441406 186.613281 771.261719 186.613281 775.738281 C 186.613281 781 190.898438 785.273438 196.152344 785.273438 C 201.402344 785.273438 205.675781 781 205.675781 775.738281 C 205.675781 770.492188 201.425781 766.222656 196.089844 766.222656 "/>
<path style=" stroke:none;fill-rule:nonzero;fill:rgb(100%,100%,100%);fill-opacity:1;" d="M 260.914062 766.375 L 260.0625 766.230469 L 260.0625 766.214844 L 259.074219 766.238281 C 253.875 766.390625 249.808594 770.5625 249.808594 775.738281 C 249.808594 781 254.089844 785.273438 259.347656 785.273438 C 264.601562 785.273438 268.871094 781 268.871094 775.738281 C 268.871094 771.078125 265.527344 767.148438 260.914062 766.375 "/>
<g clip-path="url(#clip1)" clip-rule="nonzero">
<path style=" stroke:none;fill-rule:nonzero;fill:rgb(100%,100%,100%);fill-opacity:1;" d="M 344.867188 291.503906 C 337.542969 308.59375 331.976562 326.570312 326.902344 343.519531 C 321.917969 360.179688 317.960938 376.753906 314.425781 392.183594 L 312.433594 392.183594 C 305.371094 361.597656 295.945312 332.5 284.421875 305.707031 L 284.277344 305.371094 C 281.1875 298.183594 277.988281 290.746094 273.917969 283.949219 L 273.289062 282.914062 L 272.300781 281.226562 L 274.253906 281.378906 C 276.648438 281.570312 278.625 281.609375 279.851562 281.609375 L 280.632812 281.601562 L 280.878906 281.617188 C 281.269531 281.632812 282.207031 281.6875 283.363281 281.6875 C 284.828125 281.6875 286.875 281.617188 288.269531 281.3125 C 295.585938 279.308594 298.53125 278.152344 304.871094 275.238281 L 304.988281 275.183594 L 305.9375 275.015625 L 306.238281 275.175781 C 319.363281 282.023438 331.769531 286.910156 344.183594 290.109375 L 345.328125 290.414062 Z M 542.617188 737.890625 L 542.898438 737.890625 C 540.109375 710.492188 536.964844 681.042969 532.863281 651.113281 L 532.9375 650.246094 L 533.152344 650.15625 L 533.125 649.75 C 532.761719 643.261719 532.378906 636.773438 531.996094 630.261719 L 531.917969 629.011719 C 531.628906 624.253906 531.382812 619.476562 531.136719 614.699219 C 530.363281 600.011719 529.574219 584.816406 527.648438 570.039062 C 522.964844 534.242188 517.742188 501.914062 511.675781 471.207031 C 506.792969 446.492188 500.910156 421.535156 495.222656 397.398438 C 488.910156 370.617188 482.457031 343.175781 477.242188 315.546875 C 477.417969 315.585938 477.59375 315.632812 477.785156 315.671875 C 477.472656 314.933594 477.15625 314.199219 476.84375 313.46875 C 474.910156 303.117188 473.148438 292.738281 471.652344 282.355469 L 471.566406 281.800781 L 472.003906 281.433594 C 472.609375 280.933594 473.214844 280.429688 473.796875 279.90625 L 475.210938 278.632812 L 475.484375 280.519531 C 478.316406 300.378906 482.257812 321.554688 487.882812 347.164062 C 491.386719 363.054688 495.175781 379.175781 498.847656 394.753906 C 502.589844 410.652344 506.460938 427.089844 510.019531 443.3125 C 517.375 476.765625 522.902344 511.933594 527.335938 540.195312 C 527.695312 542.433594 528.054688 544.660156 528.414062 546.90625 C 530.300781 558.609375 532.25 570.726562 533.09375 582.714844 C 533.722656 591.644531 534.265625 600.5625 534.816406 609.492188 L 534.832031 609.722656 C 535.617188 622.507812 536.359375 635.308594 537.109375 648.109375 C 537.109375 648.109375 554.570312 638.859375 562.558594 634.640625 C 562.367188 627.476562 562.230469 620.320312 562.09375 613.15625 C 561.714844 592.386719 561.316406 570.898438 559.421875 549.859375 C 556.648438 519.203125 550.675781 489.214844 544.640625 461.375 C 538.765625 434.292969 531.46875 407.054688 522.949219 380.425781 C 518.15625 365.433594 512.535156 350.46875 507.097656 335.988281 C 506.425781 334.203125 505.75 332.40625 505.074219 330.605469 C 505.152344 330.4375 505.234375 330.273438 505.320312 330.097656 C 505.273438 329.960938 505.214844 329.835938 505.167969 329.699219 C 505.007812 329.675781 504.859375 329.660156 504.707031 329.636719 C 501.714844 321.644531 498.695312 313.5 495.867188 305.386719 C 494.554688 301.613281 493.25 297.632812 491.902344 293.359375 C 491.910156 293.351562 491.917969 293.34375 491.917969 293.34375 C 491.609375 292.339844 491.304688 291.359375 491.011719 290.398438 C 491.003906 290.40625 490.996094 290.40625 490.988281 290.40625 C 489.671875 286.128906 488.320312 281.554688 486.886719 276.515625 L 486.839844 276.363281 L 486.847656 276.203125 C 486.886719 274.777344 486.964844 273.351562 487.09375 271.921875 C 487.714844 265.128906 489.839844 258.277344 491.671875 252.949219 C 492.140625 251.972656 492.605469 251 493.058594 250.019531 L 494.117188 247.777344 C 501.101562 233.128906 505.328125 221.519531 507.828125 210.128906 C 513.171875 185.882812 508.472656 163.804688 495.269531 151.085938 C 491.164062 147.113281 486.6875 144.492188 482.324219 143.515625 L 481.996094 143.5 L 481.878906 143.394531 C 475.652344 141.644531 469.8125 141.554688 463.632812 141.460938 L 460.296875 141.40625 L 460.121094 140.625 C 460.011719 140.125 459.859375 139.605469 459.667969 139.097656 C 458.433594 136.070312 455.367188 135.617188 453.648438 135.617188 C 453.363281 135.617188 453.074219 135.625 452.796875 135.648438 C 451.292969 135.824219 449.996094 136.246094 448.816406 136.9375 L 448.105469 137.359375 L 447.550781 136.757812 C 445.242188 134.25 443.925781 131.046875 443.734375 127.53125 C 443.695312 127.042969 443.671875 126.582031 443.648438 126.097656 L 443.609375 124.980469 L 444.722656 125.039062 C 447.707031 125.179688 450.113281 125.386719 452.320312 125.699219 C 453.808594 125.921875 455.296875 126.152344 456.785156 126.398438 C 459.898438 126.894531 463.117188 127.410156 466.300781 127.753906 C 468.332031 127.960938 470.117188 128.0625 471.757812 128.0625 C 472.402344 128.0625 473.054688 128.046875 473.898438 128.03125 L 474.488281 128.039062 C 477.339844 128.039062 486.933594 127.554688 491.097656 121.335938 C 494.976562 115.492188 492.96875 106.171875 491.640625 100 C 490.605469 95.128906 489.1875 90.234375 487.808594 85.496094 C 486.796875 81.996094 485.753906 78.378906 484.863281 74.78125 C 483.820312 70.539062 482.976562 67.308594 482.101562 64.226562 C 481.613281 61.878906 481.089844 59.519531 480.53125 57.1875 C 478.207031 47.523438 473.90625 39.714844 467.757812 33.96875 C 460.242188 26.90625 448.777344 21.445312 436.296875 18.984375 C 432.890625 18.308594 429.339844 17.972656 425.746094 17.972656 C 405.777344 17.972656 385.742188 28.25 374.714844 44.15625 C 369.992188 50.957031 365.492188 58.695312 360.914062 67.902344 C 360.046875 69.265625 359.175781 70.601562 358.246094 71.933594 C 357.035156 73.613281 355.769531 75.277344 354.496094 76.9375 C 349.605469 83.332031 344.550781 89.945312 343.050781 97.996094 C 342.421875 101.273438 341.707031 109.269531 348.445312 112.5 C 350.503906 113.503906 352.902344 113.957031 355.21875 114.402344 C 355.878906 114.523438 356.535156 114.648438 357.3125 114.824219 C 362.753906 116.789062 368.828125 117.394531 374.695312 117.96875 C 378.988281 118.390625 383.433594 118.828125 387.636719 119.800781 L 388.003906 119.886719 L 388.226562 120.191406 C 391.484375 124.585938 395.375 128.023438 399.789062 130.410156 C 400.808594 130.960938 402.136719 131.460938 403.753906 131.898438 L 404.382812 132.066406 L 405.539062 138.761719 L 404.988281 139.128906 C 404.835938 139.230469 404.675781 139.335938 404.511719 139.421875 L 404.046875 139.652344 L 403.585938 139.40625 C 403.011719 139.113281 402.425781 138.890625 401.792969 138.738281 L 400.75 138.355469 L 400.785156 138.261719 C 398.960938 137.679688 397.089844 137.394531 395.21875 137.394531 C 391.25 137.394531 387.367188 138.707031 384.277344 141.101562 L 384.054688 141.277344 L 383.765625 141.308594 C 381.992188 141.507812 380.039062 141.945312 378.027344 142.582031 C 369.800781 145.980469 365.898438 155.058594 362.125 163.839844 C 361.535156 165.191406 360.960938 166.554688 360.371094 167.867188 L 360.371094 167.90625 L 360.269531 168.113281 C 358.140625 172.410156 355.539062 176.6875 353.015625 180.816406 C 348.285156 188.546875 343.402344 196.539062 341.386719 205.195312 C 341.046875 206.675781 340.800781 208.132812 340.609375 209.355469 L 340.574219 209.546875 L 340.472656 209.714844 C 336.984375 215.664062 331.707031 224.640625 323.226562 224.640625 C 322.324219 224.640625 321.402344 224.539062 320.460938 224.339844 C 313.46875 222.8125 307.179688 219.023438 301.097656 215.359375 L 297.480469 213.242188 C 285.289062 206.117188 275.191406 200.15625 265.542969 193.707031 L 265.3125 193.539062 L 265.191406 193.285156 C 263.390625 189.433594 261.351562 185.585938 259.378906 181.867188 C 258.128906 179.503906 256.871094 177.148438 255.683594 174.792969 C 252.5 168.496094 248.707031 162.9375 244.703125 157.0625 L 244.066406 156.132812 C 243.347656 155.089844 242.648438 153.957031 241.925781 152.804688 C 239.71875 149.253906 237.433594 145.585938 234.214844 143.464844 C 231.707031 141.8125 228.871094 141.078125 225.011719 141.078125 C 223.386719 141.078125 221.738281 141.191406 220.003906 141.316406 L 219.523438 141.355469 L 218.839844 141.355469 L 218.535156 141 C 217.683594 140.011719 216.792969 139.039062 215.804688 138.03125 C 213.808594 135.976562 212.144531 134.128906 210.550781 132.226562 C 208.765625 130.078125 207.054688 128.890625 205.714844 128.890625 C 205.484375 128.890625 205.261719 128.929688 205.039062 129.003906 C 204.1875 129.273438 203.820312 129.703125 203.621094 130.003906 L 202.164062 132.179688 L 201.765625 129.589844 C 201.582031 128.390625 201.535156 127.203125 201.617188 125.976562 C 201.65625 125.246094 201.71875 124.480469 201.789062 123.707031 C 202.03125 120.921875 202.277344 118.039062 201.34375 115.691406 C 200.597656 113.820312 198.734375 113.652344 195.96875 113.613281 L 195.363281 113.597656 C 193.328125 113.542969 191.257812 113.382812 189.058594 113.214844 C 186.304688 113.007812 183.453125 112.785156 180.679688 112.785156 C 176.875 112.785156 173.871094 113.191406 171.222656 114.058594 C 169.742188 114.53125 169.414062 115.429688 169.199219 117.402344 C 169.007812 118.996094 169.0625 120.820312 169.128906 122.746094 C 169.246094 126.734375 169.375 130.847656 167.464844 133.976562 C 163.5625 140.339844 157.191406 141.222656 150.882812 141.222656 C 149.632812 141.222656 148.382812 141.183594 147.148438 141.148438 L 145.628906 141.125 C 139.648438 141.125 133.460938 142.472656 128.214844 144.921875 C 117.597656 149.90625 110.3125 158.480469 105.933594 171.136719 C 98.839844 191.613281 107.296875 214.835938 114.757812 235.308594 C 115.824219 238.230469 116.867188 241.089844 117.839844 243.875 C 120.703125 252.160156 122.710938 258.625 124.34375 264.851562 C 124.382812 265.019531 124.421875 265.105469 124.414062 265.113281 C 124.726562 265.351562 124.8125 265.648438 124.835938 265.855469 L 124.773438 266.460938 L 124.464844 266.792969 C 124.390625 266.875 124.273438 267 124.082031 267.238281 C 123.675781 267.703125 123.347656 268.25 123 268.832031 C 120.945312 272.320312 119.488281 276.28125 118.070312 280.121094 L 117.425781 281.855469 C 111.84375 296.902344 107.113281 312.566406 102.535156 327.707031 L 98.773438 340.128906 C 90.542969 367.289062 82.027344 395.382812 73.429688 422.972656 C 55.472656 480.625 45.273438 540.960938 37.667969 592.378906 L 37.675781 592.15625 L 37.628906 592.332031 L 37.613281 592.480469 C 58.730469 597.472656 77.664062 601.523438 95.496094 604.882812 L 95.796875 604.996094 L 96.011719 605.21875 L 96.339844 605.035156 L 96.695312 605.105469 C 128.753906 611.101562 157.589844 614.835938 184.871094 616.523438 L 186.675781 616.648438 L 186.675781 640.9375 C 186.675781 644.800781 190.953125 647.59375 194.871094 647.96875 L 195.507812 647.992188 L 195.730469 647.96875 C 199.863281 647.570312 202.984375 644.542969 202.984375 640.9375 L 202.984375 617.328125 L 204.027344 617.359375 C 207.835938 617.445312 211.65625 617.492188 215.382812 617.492188 C 233.832031 617.492188 251.605469 616.332031 268.195312 614.023438 L 269.644531 614.007812 L 269.285156 615.464844 L 269.308594 615.847656 C 286.507812 628.605469 304.617188 639.257812 323.136719 647.503906 L 323.648438 647.730469 L 323.726562 648.277344 C 328.601562 680.34375 335.910156 722.027344 338.035156 734.03125 L 338.132812 734.492188 L 337.980469 734.792969 L 338.226562 735.027344 L 338.28125 735.359375 C 339.199219 740.605469 339.773438 743.703125 339.773438 743.703125 L 339.890625 744.355469 L 333.3125 748.835938 L 332.84375 748.972656 C 331.371094 749.816406 315.621094 759.164062 309.503906 763.875 C 296.535156 773.84375 290.71875 781.140625 292.21875 785.558594 C 292.808594 787.28125 294.621094 787.820312 297.535156 788.554688 L 298.792969 788.886719 C 302.910156 789.976562 311.464844 792.246094 323.648438 792.246094 C 332.582031 792.246094 341.890625 791.019531 351.316406 788.617188 C 364.578125 785.21875 369.546875 783.863281 377.230469 780.28125 C 381.984375 778.054688 387.675781 774.414062 387.730469 774.375 L 389.261719 773.394531 L 389.605469 788.625 L 404.933594 788.625 C 405.394531 786.539062 408.460938 770.011719 408.445312 756.933594 C 408.445312 745.882812 406.476562 739.277344 406.453125 739.222656 L 406.03125 737.882812 L 406.316406 737.882812 C 404.199219 717.105469 401.628906 692.707031 398.523438 668.25 L 398.363281 666.96875 L 399.644531 667.113281 C 413.460938 668.632812 426.917969 669.40625 439.640625 669.40625 C 446.9375 669.40625 454.191406 669.152344 461.375 668.640625 C 461.789062 668.601562 462.175781 668.570312 462.582031 668.554688 L 463.492188 668.507812 L 463.632812 669.40625 C 469.375 704.933594 476.28125 743.320312 476.351562 743.710938 L 476.460938 744.363281 L 469.894531 748.835938 L 469.421875 748.972656 C 467.949219 749.816406 452.199219 759.164062 446.085938 763.875 C 433.113281 773.84375 427.300781 781.140625 428.796875 785.558594 C 429.386719 787.28125 431.203125 787.820312 434.117188 788.554688 L 435.375 788.886719 C 439.492188 789.976562 448.042969 792.246094 460.226562 792.246094 C 469.160156 792.246094 478.46875 791.019531 487.898438 788.617188 C 501.15625 785.21875 506.125 783.863281 513.808594 780.28125 C 518.5625 778.054688 524.257812 774.414062 524.3125 774.375 L 525.839844 773.394531 L 526.183594 788.625 L 541.511719 788.625 C 541.972656 786.539062 545.039062 770.011719 545.023438 756.933594 C 545.023438 745.882812 543.054688 739.277344 543.03125 739.222656 L 542.617188 737.890625 "/>
</g>
<path style=" stroke:none;fill-rule:nonzero;fill:rgb(100%,100%,100%);fill-opacity:1;" d="M 532.074219 582.800781 C 531.089844 568.582031 528.546875 554.414062 526.335938 540.355469 C 521.230469 507.921875 516.070312 475.617188 509.023438 443.527344 C 501.976562 411.414062 493.949219 379.507812 486.886719 347.394531 C 482.027344 325.296875 477.664062 303.078125 474.472656 280.667969 C 473.882812 281.203125 473.277344 281.710938 472.664062 282.214844 C 481.84375 345.953125 500.222656 407.898438 512.679688 471 C 519.136719 503.71875 524.335938 536.851562 528.652344 569.914062 C 531.207031 589.449219 531.757812 609.300781 532.925781 628.949219 C 533.332031 635.867188 533.738281 642.777344 534.136719 649.695312 C 534.160156 650.0625 534.203125 650.808594 534.203125 650.808594 L 536.175781 649.757812 C 536.175781 649.757812 536.136719 649.019531 536.113281 648.644531 C 535.363281 635.691406 534.601562 622.738281 533.8125 609.789062 C 533.261719 600.792969 532.703125 591.789062 532.074219 582.800781 "/>
<path style=" stroke:none;fill-rule:nonzero;fill:rgb(21.569824%,7.839966%,23.529053%);fill-opacity:1;" d="M 267.851562 775.738281 C 267.851562 780.425781 264.035156 784.253906 259.347656 784.253906 C 254.640625 784.253906 250.828125 780.425781 250.828125 775.738281 C 250.828125 771.054688 254.640625 767.21875 259.347656 767.21875 C 264.035156 767.21875 267.851562 771.054688 267.851562 775.738281 Z M 196.152344 767.21875 C 200.84375 767.21875 204.65625 771.054688 204.65625 775.738281 C 204.65625 780.425781 200.84375 784.253906 196.152344 784.253906 C 191.445312 784.253906 187.632812 780.425781 187.632812 775.738281 C 187.632812 771.054688 191.445312 767.21875 196.152344 767.21875 Z M 135.347656 775.738281 C 135.347656 780.425781 131.535156 784.253906 126.84375 784.253906 C 122.136719 784.253906 118.324219 780.425781 118.324219 775.738281 C 118.324219 771.054688 122.136719 767.21875 126.84375 767.21875 C 131.535156 767.21875 135.347656 771.054688 135.347656 775.738281 Z M 193.8125 750.9375 L 135.714844 750.9375 C 130.660156 750.9375 126.542969 755.054688 126.542969 760.109375 L 126.542969 765.21875 C 120.855469 765.386719 116.285156 770.011719 116.285156 775.738281 C 116.285156 781.546875 121.015625 786.292969 126.84375 786.292969 C 132.65625 786.292969 137.386719 781.546875 137.386719 775.738281 C 137.386719 770.523438 133.574219 766.199219 128.582031 765.363281 L 128.582031 760.109375 C 128.582031 756.175781 131.78125 752.976562 135.714844 752.976562 L 193.8125 752.976562 L 193.8125 765.46875 C 189.105469 766.527344 185.59375 770.730469 185.59375 775.738281 C 185.59375 781.546875 190.324219 786.292969 196.152344 786.292969 C 201.964844 786.292969 206.695312 781.546875 206.695312 775.738281 C 206.695312 769.910156 201.964844 765.179688 196.152344 765.179688 C 196.035156 765.179688 195.953125 765.203125 195.851562 765.21875 L 195.851562 752.976562 L 251.910156 752.976562 C 255.84375 752.976562 259.042969 756.175781 259.042969 760.109375 L 259.042969 765.21875 C 253.359375 765.386719 248.789062 770.011719 248.789062 775.738281 C 248.789062 781.546875 253.519531 786.292969 259.347656 786.292969 C 265.160156 786.292969 269.890625 781.546875 269.890625 775.738281 C 269.890625 770.523438 266.074219 766.199219 261.082031 765.363281 L 261.082031 760.109375 C 261.082031 755.054688 256.964844 750.9375 251.910156 750.9375 L 195.851562 750.9375 L 195.851562 649.042969 L 193.8125 649.042969 L 193.8125 750.9375 "/>
<path style=" stroke:none;fill-rule:nonzero;fill:rgb(21.569824%,7.839966%,23.529053%);fill-opacity:1;" d="M 412.066406 106.457031 C 411.128906 107.578125 409.957031 108.390625 408.652344 108.925781 C 404.75 110.535156 399.675781 109.65625 396.246094 107.46875 C 395.128906 106.761719 394.109375 108.519531 395.21875 109.21875 C 399.160156 111.742188 404.964844 112.652344 409.464844 110.804688 C 411.007812 110.175781 412.402344 109.21875 413.507812 107.890625 C 414.34375 106.894531 412.910156 105.4375 412.066406 106.457031 "/>
<path style=" stroke:none;fill-rule:nonzero;fill:rgb(21.569824%,7.839966%,23.529053%);fill-opacity:1;" d="M 422.027344 73.859375 C 422.402344 74.019531 423.085938 74.3125 423.414062 73.8125 C 424.304688 72.449219 421.207031 70.46875 420.539062 70.078125 C 418.359375 68.828125 415.808594 68.492188 413.398438 69.128906 C 412.902344 69.257812 409.980469 70.101562 410.664062 71.296875 C 410.871094 71.660156 411.246094 71.84375 411.613281 71.917969 C 412.410156 72.074219 413.222656 71.875 414.027344 71.820312 C 414.980469 71.765625 415.9375 71.851562 416.890625 71.941406 C 418.046875 72.042969 419.210938 72.273438 420.261719 72.863281 C 420.851562 73.191406 421.40625 73.585938 422.027344 73.859375 "/>
<path style=" stroke:none;fill-rule:nonzero;fill:rgb(21.569824%,7.839966%,23.529053%);fill-opacity:1;" d="M 385.488281 71.820312 C 386.441406 71.765625 387.398438 71.851562 388.351562 71.941406 C 389.507812 72.042969 390.671875 72.273438 391.722656 72.863281 C 392.3125 73.191406 392.867188 73.585938 393.488281 73.859375 C 393.554688 73.890625 393.632812 73.914062 393.710938 73.953125 C 394.101562 74.097656 394.605469 74.226562 394.875 73.8125 C 395.742188 72.488281 392.875 70.601562 392.089844 70.132812 C 392.0625 70.117188 392.015625 70.09375 392 70.078125 C 389.820312 68.828125 387.269531 68.492188 384.859375 69.128906 C 384.363281 69.257812 381.441406 70.101562 382.125 71.296875 C 382.332031 71.660156 382.707031 71.84375 383.074219 71.917969 C 383.871094 72.074219 384.683594 71.875 385.488281 71.820312 "/>
<path style=" stroke:none;fill-rule:nonzero;fill:rgb(21.569824%,7.839966%,23.529053%);fill-opacity:1;" d="M 411.714844 80.546875 C 412.28125 78.109375 413.984375 76.421875 415.515625 76.78125 C 417.050781 77.128906 417.839844 79.398438 417.273438 81.835938 C 416.710938 84.269531 415.011719 85.957031 413.476562 85.609375 C 411.941406 85.25 411.152344 82.988281 411.714844 80.546875 "/>
<path style=" stroke:none;fill-rule:nonzero;fill:rgb(21.569824%,7.839966%,23.529053%);fill-opacity:1;" d="M 383.203125 80.554688 C 383.765625 78.117188 385.472656 76.429688 387.007812 76.789062 C 388.542969 77.136719 389.332031 79.40625 388.765625 81.84375 C 388.203125 84.277344 386.5 85.964844 384.96875 85.617188 C 383.433594 85.257812 382.644531 82.996094 383.203125 80.554688 "/>
<path style=" stroke:none;fill-rule:nonzero;fill:rgb(21.569824%,7.839966%,23.529053%);fill-opacity:1;" d="M 396.808594 96.824219 C 390.414062 93.402344 394.109375 87.964844 397.527344 82.871094 C 398.976562 80.703125 400.386719 78.601562 400.933594 76.75 C 401.316406 75.484375 399.34375 74.949219 398.96875 76.207031 C 398.523438 77.710938 397.660156 79.28125 396.675781 80.878906 C 392.8125 87.152344 386.960938 93.871094 395.773438 98.578125 C 396.9375 99.199219 397.964844 97.4375 396.808594 96.824219 "/>
<g clip-path="url(#clip2)" clip-rule="nonzero">
<path style=" stroke:none;fill-rule:nonzero;fill:rgb(21.569824%,7.839966%,23.529053%);fill-opacity:1;" d="M 433.414062 294.011719 C 378.742188 296.035156 348.269531 296.074219 306.398438 274.101562 C 306.257812 274.023438 306.097656 274 305.929688 274 C 305.90625 274 305.890625 274.023438 305.890625 274.023438 C 305.824219 274.023438 305.785156 274 305.746094 274 L 304.832031 274.179688 C 304.726562 274.179688 304.648438 274.222656 304.566406 274.246094 C 298.140625 277.222656 295.1875 278.359375 288.070312 280.320312 C 285.542969 280.84375 280.796875 280.582031 280.671875 280.582031 C 280.566406 280.605469 269.132812 280.84375 260.128906 277.605469 C 258.941406 277.324219 257.1875 276.488281 257.148438 275.75 C 257.125 275.183594 257.332031 274.363281 258.023438 273.839844 C 258.859375 273.164062 260.167969 273.058594 261.816406 273.511719 C 261.839844 273.511719 261.839844 273.511719 261.855469 273.511719 C 266.6875 274.714844 270.988281 275.328125 274.777344 275.328125 C 276.109375 275.328125 277.367188 275.238281 278.578125 275.097656 C 279.140625 275.042969 279.53125 274.53125 279.46875 273.980469 C 279.40625 273.410156 278.855469 273.019531 278.332031 273.082031 C 272.460938 273.800781 264.730469 272.597656 255.398438 269.554688 C 254.992188 269.398438 254.535156 269.230469 254.066406 269.085938 C 252.257812 268.472656 250.355469 267.84375 249.710938 266.316406 C 249.585938 266.054688 249.503906 265.664062 249.765625 265.320312 C 250.015625 265.011719 250.585938 264.683594 251.464844 264.8125 C 252.277344 264.929688 253.113281 265.136719 254.050781 265.359375 C 255.292969 265.664062 256.847656 266.054688 259.019531 266.378906 C 264.730469 267.519531 270.933594 267.84375 276.164062 268.105469 C 276.1875 268.105469 276.210938 268.105469 276.210938 268.105469 C 276.761719 268.105469 277.207031 267.683594 277.230469 267.136719 C 277.269531 266.578125 276.816406 266.09375 276.269531 266.070312 C 269.355469 265.726562 260.757812 265.296875 253.972656 262.933594 C 249.871094 261.808594 249.933594 259.898438 249.933594 259.40625 C 250.171875 257.980469 251.320312 257.128906 252.769531 257.265625 C 254.625 257.433594 256.472656 257.695312 258.328125 258.003906 C 260.351562 258.492188 262.40625 258.816406 264.425781 259.0625 L 264.492188 259.0625 C 267.09375 259.367188 269.667969 259.492188 272.070312 259.589844 C 272.597656 259.613281 273.128906 259.628906 273.679688 259.628906 C 274.921875 259.652344 276.210938 259.675781 277.390625 259.835938 C 277.429688 259.859375 277.492188 259.859375 277.535156 259.859375 C 278.019531 259.859375 278.472656 259.492188 278.527344 258.984375 C 278.617188 258.410156 278.226562 257.902344 277.675781 257.820312 C 276.371094 257.65625 275.027344 257.613281 273.71875 257.589844 C 273.195312 257.589844 272.660156 257.574219 272.152344 257.550781 C 269.785156 257.472656 267.277344 257.328125 264.714844 257.042969 L 263.605469 256.84375 C 262.023438 256.554688 260.390625 256.269531 258.742188 256.007812 C 257.777344 255.761719 256.824219 255.511719 255.90625 255.1875 C 255.085938 254.925781 252.5 253.90625 252.355469 252.171875 C 252.316406 251.789062 252.441406 251.582031 252.5625 251.460938 C 252.953125 251.054688 254.050781 250.546875 256.78125 250.5625 C 260.230469 250.585938 264.285156 250.929688 268.609375 251.277344 C 273.601562 251.683594 278.734375 252.113281 282.917969 252.011719 C 282.933594 252.011719 282.933594 252.011719 282.933594 252.011719 C 282.996094 252.011719 283.035156 251.988281 283.101562 251.988281 C 283.164062 251.972656 283.242188 251.972656 283.324219 251.929688 C 283.363281 251.90625 283.425781 251.867188 283.464844 251.828125 C 283.53125 251.804688 283.585938 251.765625 283.625 251.707031 C 283.671875 251.660156 283.714844 251.621094 283.730469 251.566406 C 283.769531 251.523438 283.832031 251.460938 283.855469 251.398438 C 283.871094 251.34375 283.871094 251.277344 283.894531 251.214844 C 283.914062 251.152344 283.9375 251.109375 283.9375 251.03125 L 283.9375 251.015625 C 283.9375 250.992188 283.9375 250.992188 283.9375 250.96875 C 283.9375 250.929688 283.914062 250.886719 283.914062 250.847656 C 283.894531 250.746094 283.871094 250.664062 283.855469 250.601562 C 283.832031 250.585938 283.832031 250.5625 283.808594 250.546875 C 283.648438 250.234375 283.347656 249.996094 282.957031 249.972656 L 282.464844 249.949219 C 272.292969 249.621094 269.808594 247.976562 269.210938 247.019531 C 269.054688 246.757812 268.910156 246.367188 269.261719 245.632812 C 269.683594 244.71875 271.664062 244.25 274.398438 244.390625 C 276.800781 244.527344 279.308594 244.574219 282.304688 244.527344 C 288.578125 244.410156 293.675781 245.0625 297.839844 246.46875 C 300.507812 247.386719 302.894531 248.835938 304.664062 250.640625 L 304.972656 250.992188 L 305.117188 251.136719 C 305.171875 251.199219 305.238281 251.238281 305.300781 251.277344 C 305.355469 251.316406 305.421875 251.34375 305.484375 251.359375 C 305.523438 251.359375 305.539062 251.398438 305.585938 251.398438 C 305.667969 251.421875 305.746094 251.4375 305.808594 251.4375 C 336.792969 257.980469 365.960938 253.378906 396.851562 248.484375 L 404.574219 247.28125 C 412.335938 246.078125 420.371094 244.839844 428.121094 242.695312 C 429.425781 242.332031 430.445312 240.355469 432.109375 236.335938 C 432.355469 235.730469 432.5625 235.222656 432.707031 234.933594 C 434.378906 231.550781 436.050781 228.183594 437.660156 224.785156 C 444.300781 210.742188 448.296875 196.539062 452.519531 181.480469 L 454.125 175.8125 C 457.367188 164.417969 461.835938 155.742188 467.808594 149.277344 C 470.863281 145.972656 474.390625 144.238281 478.300781 144.121094 C 483.445312 143.976562 489.25 146.707031 494.570312 151.824219 C 507.519531 164.300781 512.105469 186 506.839844 209.90625 C 504.355469 221.195312 500.160156 232.753906 493.207031 247.347656 L 492.148438 249.582031 C 487.800781 258.753906 483.320312 268.234375 476.652344 275.628906 C 466.765625 286.617188 451.394531 293.136719 433.414062 294.011719 Z M 474.78125 312.027344 C 475.1875 311.84375 475.59375 311.660156 476 311.5 C 476.589844 312.886719 477.1875 314.269531 477.777344 315.671875 C 475.453125 315.226562 474.082031 314.246094 474.78125 312.027344 Z M 485.605469 392.300781 C 484.546875 393.425781 483.890625 394.117188 483.238281 394.824219 C 482.847656 394.402344 482.484375 394.179688 482.507812 393.972656 C 482.585938 392.484375 483.160156 391.585938 485.605469 392.300781 Z M 492.109375 570.136719 C 493.144531 570.804688 493.957031 571.335938 495.121094 572.085938 C 494.609375 573.519531 494.269531 574.492188 493.835938 575.691406 C 491.511719 574.265625 490.292969 572.945312 492.109375 570.136719 Z M 496.425781 436.992188 C 494.753906 437.894531 494.0625 438.257812 493.128906 438.746094 C 493.511719 436.707031 493.511719 436.707031 496.425781 436.992188 Z M 541.011719 729.515625 C 541.011719 729.539062 541.011719 729.539062 540.984375 729.539062 C 531.289062 733.632812 520.664062 735.851562 510.226562 737.101562 C 498.359375 738.527344 487.5 735.027344 475.984375 732.898438 C 475.777344 732.882812 475.609375 732.898438 475.476562 732.941406 C 473.023438 719.089844 468.601562 693.695312 464.667969 669.421875 C 487.578125 667.503906 511.492188 662.613281 531.957031 651.980469 C 535.324219 676.554688 538.160156 701.78125 541.011719 729.515625 Z M 541.886719 738.097656 L 541.679688 738.265625 C 536.933594 738.566406 528.207031 739.746094 522.703125 745.621094 C 520.519531 747.945312 518.832031 750.46875 517.425781 753.136719 L 516.613281 754.648438 C 515.363281 756.933594 506.253906 768.484375 500.359375 768.785156 C 499.875 767.304688 499.445312 766.289062 495.917969 761.925781 C 487.4375 751.425781 477.777344 748.78125 472.839844 748.128906 L 472.800781 748.105469 L 476.496094 745.597656 L 477.570312 744.863281 L 477.347656 743.558594 C 477.332031 743.398438 476.734375 740.214844 475.816406 734.960938 C 488.074219 737.222656 499.117188 740.488281 511.738281 738.972656 C 521.746094 737.773438 531.875 735.449219 541.21875 731.59375 C 541.441406 733.761719 541.664062 735.917969 541.886719 738.097656 Z M 455.066406 593.992188 C 454.292969 593.285156 453.761719 592.792969 453.148438 592.242188 C 454.125 590.023438 455.472656 589.824219 457.964844 591.144531 C 456.753906 592.320312 455.964844 593.117188 455.066406 593.992188 Z M 473.085938 621.671875 C 472.554688 623.855469 472.554688 623.855469 470.332031 623.074219 C 471.167969 622.652344 472.003906 622.222656 473.085938 621.671875 Z M 493.679688 502.859375 C 494.148438 501.371094 494.515625 500.234375 495.183594 498.066406 C 496.878906 502.144531 496.878906 502.144531 493.679688 502.859375 Z M 470.476562 535.632812 C 469.335938 536.078125 468.539062 536.40625 466.972656 537.019531 C 467.136719 534.996094 467.234375 533.652344 467.335938 532.332031 C 467.742188 532.304688 468.132812 532.265625 468.539062 532.25 C 469.113281 533.246094 469.6875 534.226562 470.476562 535.632812 Z M 467.441406 503.957031 C 467.152344 501.960938 467.011719 500.964844 466.707031 498.824219 C 468.238281 500.167969 468.90625 500.757812 469.78125 501.554688 C 469.113281 502.246094 468.644531 502.714844 467.441406 503.957031 Z M 462.671875 561.226562 C 464.121094 562.367188 465.21875 563.226562 466.582031 564.300781 C 465.625 565.121094 465.074219 565.589844 464.488281 566.101562 C 462.410156 565.265625 461.46875 564.117188 462.671875 561.226562 Z M 444.792969 295.667969 C 445.957031 295.851562 446.730469 295.96875 448.234375 296.214844 C 446.484375 297.863281 445.605469 298.335938 444.792969 295.667969 Z M 444.851562 360.101562 C 445.894531 361.144531 446.507812 361.757812 447.121094 362.363281 C 446.9375 362.671875 446.769531 362.976562 446.585938 363.261719 C 445.933594 363.222656 445.28125 363.15625 444.339844 363.078125 C 444.507812 362.140625 444.628906 361.46875 444.851562 360.101562 Z M 404.496094 730.195312 C 394.339844 732.535156 384.023438 734.191406 373.667969 735.289062 C 361.964844 736.507812 350.65625 735.40625 339.054688 733.957031 C 335.996094 716.621094 329.453125 679.039062 324.953125 649.433594 C 341.808594 656.75 359.359375 662.226562 377.15625 665.097656 C 383.902344 666.179688 390.671875 667.136719 397.480469 667.910156 C 399.988281 687.699219 402.226562 708.160156 404.496094 730.195312 Z M 405.304688 738.097656 L 405.097656 738.265625 C 400.351562 738.566406 391.625 739.746094 386.125 745.621094 C 383.941406 747.945312 382.253906 750.46875 380.84375 753.136719 L 380.03125 754.648438 C 378.78125 756.933594 369.671875 768.484375 363.78125 768.785156 C 363.292969 767.304688 362.863281 766.289062 359.335938 761.925781 C 350.855469 751.425781 341.195312 748.78125 336.261719 748.128906 L 336.21875 748.105469 L 339.914062 745.597656 L 340.988281 744.863281 L 340.765625 743.558594 C 340.75 743.417969 340.242188 740.644531 339.421875 736.042969 C 350.917969 737.445312 362.066406 738.449219 373.667969 737.328125 C 384.085938 736.308594 394.5 734.570312 404.71875 732.230469 C 404.898438 734.191406 405.097656 736.125 405.304688 738.097656 Z M 324.722656 647.917969 C 324.785156 647.953125 324.847656 647.976562 324.914062 648.007812 C 324.847656 647.976562 324.785156 647.953125 324.722656 647.917969 Z M 321.703125 626.703125 C 321.410156 624.378906 321.457031 622.300781 321.824219 620.429688 C 321.464844 622.300781 321.410156 624.378906 321.703125 626.703125 C 322.164062 630.292969 322.722656 634.332031 323.34375 638.613281 C 322.722656 634.332031 322.164062 630.292969 321.703125 626.703125 Z M 210.835938 616.449219 C 202.84375 616.394531 194.832031 616.109375 186.835938 615.679688 C 193.972656 573.964844 194.933594 531.144531 196.097656 488.921875 C 197.730469 429.429688 198.191406 369.910156 200.007812 310.417969 C 200.421875 297.195312 200.882812 283.988281 201.417969 270.78125 C 203.480469 270.941406 205.535156 271.109375 207.597656 271.226562 C 215.421875 271.699219 223.1875 271.59375 230.832031 270.820312 C 246.75 322.710938 255.4375 376.730469 262.140625 430.488281 C 269.117188 486.308594 273.378906 542.441406 276.65625 598.5625 C 276.90625 602.925781 277.144531 607.28125 277.390625 611.644531 C 255.4375 615.3125 233.078125 616.617188 210.835938 616.449219 Z M 201.964844 640.953125 C 201.964844 644.128906 199.050781 646.78125 195.324219 646.980469 C 191.25 646.757812 187.695312 643.949219 187.695312 640.953125 L 187.695312 617.71875 C 192.441406 617.980469 197.195312 618.210938 201.964844 618.328125 Z M 184.796875 615.558594 C 155.40625 613.824219 126.152344 609.707031 97.144531 604.246094 C 115.394531 499.699219 127.640625 393.582031 155.199219 290.914062 C 157.34375 282.945312 159.628906 275 162.054688 267.113281 C 174.511719 267.988281 186.925781 269.578125 199.378906 270.613281 C 196.894531 332.574219 196.097656 394.5625 194.816406 456.5625 C 193.851562 503.289062 193.183594 550.34375 187.554688 596.8125 C 186.796875 603.085938 185.882812 609.316406 184.796875 615.558594 Z M 342.230469 439.054688 C 344.070312 436.707031 345.433594 438.257812 347.351562 439.867188 C 344.84375 440.871094 344.84375 440.871094 342.230469 439.054688 Z M 344.742188 561.816406 C 343.847656 559.164062 345.027344 558.511719 346.554688 557.78125 C 347.066406 558.511719 347.472656 559.109375 348.269531 560.25 C 346.945312 560.835938 345.925781 561.308594 344.742188 561.816406 Z M 343.707031 343.066406 C 342.910156 345.875 340.765625 344.777344 339.277344 345.269531 C 339.277344 345.285156 339.277344 345.324219 339.261719 345.351562 C 339.238281 345.324219 339.222656 345.308594 339.175781 345.285156 C 338.523438 346.617188 337.875 347.914062 337.039062 349.570312 C 334.546875 347.179688 335.75 345.652344 336.875 343.679688 C 337.8125 344.332031 338.503906 344.816406 339.175781 345.285156 C 339.222656 345.269531 339.238281 345.269531 339.277344 345.269531 C 339.421875 343.902344 339.566406 342.515625 339.746094 340.597656 C 341.261719 341.535156 342.4375 342.292969 343.707031 343.066406 Z M 336.285156 608.5 C 333.289062 609.160156 330.710938 610.074219 328.625 611.269531 C 330.710938 610.066406 333.289062 609.160156 336.285156 608.5 Z M 337.34375 608.25 C 337.3125 608.257812 337.273438 608.257812 337.238281 608.265625 C 337.273438 608.257812 337.3125 608.257812 337.34375 608.25 Z M 387.535156 612.773438 C 388.34375 612.972656 389.046875 613.15625 389.570312 613.296875 C 389.621094 613.578125 389.660156 613.863281 389.707031 614.152344 C 389.660156 613.871094 389.621094 613.585938 389.570312 613.296875 C 389.046875 613.164062 388.34375 612.980469 387.535156 612.773438 Z M 397.335938 666.875 C 393.554688 666.4375 389.800781 665.933594 386.074219 665.410156 C 389.800781 665.933594 393.554688 666.4375 397.335938 666.875 Z M 429.808594 380.136719 C 432.945312 380.441406 432.945312 380.441406 433.273438 383.71875 C 431.503906 383.105469 430.03125 382.4375 429.808594 380.136719 Z M 406.367188 419.996094 C 406.117188 420.179688 405.855469 420.363281 405.609375 420.570312 C 404.636719 419.996094 403.65625 419.425781 402.351562 418.675781 C 403.0625 417.632812 403.59375 416.875 404.636719 415.371094 C 405.410156 417.433594 405.878906 418.714844 406.367188 419.996094 Z M 404.757812 377.082031 C 405.472656 374.957031 406.546875 374.46875 408.0625 375.203125 C 409.359375 375.839844 409.8125 376.859375 408.625 379.015625 C 407.226562 378.300781 405.984375 377.695312 404.757812 377.082031 Z M 405.058594 387.3125 C 404.613281 388.105469 404.039062 389.347656 403.410156 389.414062 C 401.945312 389.570312 401.476562 388.328125 401.699219 386.59375 C 402.550781 386.394531 403.492188 386.164062 404.496094 385.925781 C 404.757812 386.539062 405.164062 387.105469 405.058594 387.3125 Z M 383.472656 563.058594 C 382.269531 562.691406 381.171875 562.367188 379.785156 561.960938 C 379.992188 560.902344 380.175781 560.066406 380.3125 559.308594 C 380.867188 559.269531 381.289062 559.125 381.417969 559.253906 C 382.308594 560.273438 384.386719 560.535156 383.472656 563.058594 Z M 379.195312 319.421875 C 379.054688 319 378.886719 318.546875 378.742188 318.125 C 379.746094 317.695312 380.742188 317.289062 381.746094 316.859375 C 381.902344 317.382812 382.070312 317.894531 382.230469 318.425781 C 381.234375 318.777344 380.214844 319.101562 379.195312 319.421875 Z M 372.992188 415.714844 C 374.363281 416.207031 375.542969 416.636719 377.09375 417.164062 C 376.585938 418.390625 376.21875 419.242188 375.789062 420.261719 C 373.6875 419.449219 372.507812 418.429688 372.992188 415.714844 Z M 370.246094 308.355469 C 370.589844 308.199219 370.9375 308.03125 371.28125 307.871094 C 371.632812 308.769531 371.957031 309.660156 372.300781 310.539062 C 372.039062 310.679688 371.789062 310.808594 371.527344 310.929688 C 371.097656 310.066406 370.675781 309.214844 370.246094 308.355469 Z M 355.078125 361.898438 C 355.871094 360.882812 356.445312 360.125 357.21875 359.144531 C 358.117188 360.101562 358.789062 360.816406 359.542969 361.613281 C 358.355469 363.691406 357.097656 363.628906 355.078125 361.898438 Z M 305.300781 276.164062 L 305.769531 276.074219 C 319.285156 283.128906 331.617188 287.921875 343.929688 291.097656 C 336.691406 307.992188 331.164062 325.726562 325.925781 343.230469 C 321.113281 359.304688 317.179688 375.59375 313.429688 391.960938 C 306.605469 362.410156 297.472656 333.464844 285.363281 305.300781 C 282.160156 297.863281 278.960938 290.382812 274.800781 283.441406 C 274.59375 283.089844 274.371094 282.738281 274.171875 282.398438 C 277.820312 282.683594 280.449219 282.621094 280.632812 282.621094 C 280.734375 282.621094 281.875 282.699219 283.363281 282.699219 C 284.996094 282.699219 287.050781 282.621094 288.539062 282.292969 C 295.816406 280.296875 298.835938 279.132812 305.300781 276.164062 Z M 259.554688 279.5625 C 263.367188 280.933594 267.546875 281.703125 271.171875 282.109375 C 273.664062 286.171875 276.210938 290.140625 278.125 294.234375 C 285.113281 309.136719 291.214844 324.4375 296.597656 339.992188 C 305.132812 364.605469 311.964844 389.835938 316.566406 415.476562 C 325.335938 464.097656 329.636719 513.765625 331.839844 563.082031 C 332.285156 573.375 332.597656 583.660156 332.652344 593.953125 C 332.675781 597.480469 330.25 597.503906 327.214844 598.621094 C 324.09375 599.78125 320.933594 600.839844 317.769531 601.882812 C 310.90625 604.128906 303.914062 606.023438 296.875 607.710938 C 291.085938 609.09375 285.257812 610.257812 279.40625 611.277344 C 276.347656 556.070312 272.359375 500.902344 266.035156 445.964844 C 259.839844 392.078125 251.6875 338.035156 237.273438 285.660156 C 235.886719 280.621094 234.421875 275.605469 232.894531 270.597656 C 238.046875 269.984375 243.140625 269.046875 248.183594 267.742188 C 249.335938 269.621094 251.582031 270.390625 253.414062 271.003906 C 253.84375 271.164062 254.273438 271.308594 254.703125 271.476562 C 255.453125 271.722656 256.167969 271.921875 256.886719 272.144531 C 256.847656 272.167969 256.78125 272.207031 256.757812 272.230469 C 255.660156 273.105469 255.046875 274.453125 255.109375 275.851562 C 255.230469 278.441406 259.210938 279.484375 259.554688 279.5625 Z M 95.167969 603.882812 C 77.003906 600.417969 58.945312 596.460938 41.027344 592.265625 C 40.113281 592.042969 39.1875 591.835938 38.273438 591.613281 L 38.964844 590.570312 C 43.632812 559.164062 48.894531 527.785156 55.542969 496.722656 C 62.1875 465.691406 70.21875 434.9375 80.429688 404.792969 C 91.21875 372.964844 99.492188 340.253906 109.644531 308.214844 C 112.496094 299.210938 115.433594 290.199219 118.714844 281.339844 C 120.082031 277.628906 121.796875 269.921875 125.277344 267.453125 C 125.664062 267.191406 125.871094 266.785156 125.746094 266.316406 C 122.074219 251.476562 116.347656 237.277344 111.644531 222.761719 C 109.988281 217.730469 108.546875 212.652344 107.359375 207.503906 C 114.414062 211.863281 124.933594 214.023438 132.496094 211.046875 C 139.488281 208.257812 143.421875 201.222656 145.660156 194.4375 C 150.925781 178.644531 149.316406 157.46875 141.605469 142.472656 C 143.238281 142.304688 144.886719 142.183594 146.542969 142.167969 C 150.796875 142.121094 154.960938 142.589844 158.894531 141.53125 C 170.550781 146.609375 185.5 150.542969 199.339844 149.300781 C 203.742188 156.894531 209.246094 163.648438 214.402344 170.714844 C 220.613281 179.234375 224.53125 188.347656 227.429688 198.410156 C 233.277344 218.816406 235.703125 241.375 229.566406 261.976562 C 229.199219 263.21875 231.183594 263.769531 231.546875 262.503906 C 237.496094 242.511719 235.355469 221.089844 230.28125 201.140625 C 227.75 191.277344 224.375 182.066406 218.808594 173.511719 C 213.359375 165.113281 206.695312 157.675781 201.582031 149.070312 C 208.066406 148.21875 214.261719 146.140625 219.644531 142.40625 C 219.660156 142.40625 219.683594 142.390625 219.699219 142.367188 C 223.308594 142.183594 226.777344 141.777344 230.363281 142.65625 C 234.566406 143.671875 237.378906 147.949219 239.613281 151.292969 C 242.816406 156.101562 246.082031 160.875 249.402344 165.605469 C 253.097656 170.875 255.644531 176.972656 258.597656 182.695312 C 262.792969 190.808594 267.054688 198.855469 269.355469 207.75 C 271.625 216.53125 272.515625 226.800781 270.828125 235.785156 C 270.359375 238.320312 269.625 240.800781 268.804688 243.285156 C 268.21875 243.652344 267.707031 244.121094 267.40625 244.757812 C 266.832031 246 266.976562 246.980469 267.277344 247.671875 C 267.09375 248.140625 266.933594 248.605469 266.753906 249.097656 C 263.160156 248.792969 259.761719 248.546875 256.796875 248.523438 C 254.96875 248.546875 252.378906 248.667969 251.074219 250.078125 C 250.5 250.6875 250.238281 251.460938 250.316406 252.335938 C 250.421875 253.5625 251.058594 254.519531 251.886719 255.25 C 249.871094 255.472656 248.300781 256.945312 247.910156 259.207031 C 247.871094 260.386719 248.222656 261.808594 249.609375 263.035156 C 249.019531 263.257812 248.507812 263.609375 248.136719 264.09375 C 247.769531 264.589844 247.585938 265.152344 247.570312 265.726562 C 219.460938 272.691406 190.492188 266.96875 161.523438 265.035156 C 161.417969 265.011719 161.324219 264.996094 161.195312 265.011719 C 156.324219 264.683594 151.472656 264.460938 146.601562 264.445312 C 145.277344 264.445312 145.277344 266.484375 146.601562 266.484375 C 151.066406 266.5 155.511719 266.707031 159.953125 266.992188 C 144.769531 316.738281 134.824219 368.054688 125.707031 419.226562 C 116.191406 472.554688 108.179688 526.136719 99.308594 579.585938 C 97.960938 587.695312 96.578125 595.792969 95.167969 603.882812 Z M 106.09375 201.570312 C 104.8125 194.820312 103.449219 186.390625 104.746094 179.519531 C 107.160156 166.902344 113.171875 155.128906 124.28125 148.140625 C 128.882812 145.242188 134.105469 143.570312 139.441406 142.757812 C 146.808594 156.515625 148.007812 174.726562 144.824219 189.726562 C 143.28125 197.011719 139.933594 204.460938 133.308594 208.378906 C 125.785156 212.84375 113.433594 209.5 106.730469 204.628906 C 106.523438 203.609375 106.300781 202.613281 106.09375 201.570312 Z M 163.3125 139.574219 C 165.925781 137.824219 169.597656 134.34375 169.820312 130.9375 C 170.144531 126 169.507812 120.851562 170.410156 115.976562 C 171.179688 111.878906 192.816406 114.554688 196.136719 114.65625 C 202.761719 114.832031 200.683594 121.621094 200.597656 126.039062 C 200.476562 131.890625 201.25 134.621094 205.636719 138.722656 C 208.511719 141.414062 212.039062 142.265625 215.75 142.433594 C 199.703125 151.339844 177.765625 147.175781 161.640625 140.511719 C 162.214844 140.226562 162.765625 139.949219 163.3125 139.574219 Z M 204.332031 130.898438 C 204.410156 130.585938 204.59375 130.21875 205.375 129.972656 C 206.304688 129.671875 208.019531 130.777344 209.769531 132.894531 C 211.324219 134.765625 213.019531 136.621094 215.097656 138.761719 C 215.605469 139.289062 216.117188 139.84375 216.601562 140.355469 C 212.589844 140.148438 209.039062 138.882812 206.511719 136.582031 C 204.292969 133.238281 204.125 131.628906 204.332031 130.898438 Z M 296.980469 214.125 L 300.363281 216.125 C 306.582031 219.875 313.023438 223.765625 320.261719 225.335938 C 321.296875 225.582031 322.300781 225.675781 323.28125 225.675781 C 330.351562 225.675781 335.242188 219.9375 339.03125 214.0625 C 338.324219 222.90625 339.261719 231.996094 340.726562 240.882812 C 339.117188 242.289062 337.488281 243.554688 335.839844 244.574219 L 335.855469 244.617188 C 335.695312 244.695312 335.550781 244.839844 335.464844 244.996094 C 335.304688 245.269531 335.265625 245.609375 335.488281 245.960938 C 336.792969 247.976562 338.910156 249.242188 341.214844 249.765625 C 341.5 249.972656 341.851562 250.011719 342.214844 249.726562 C 342.230469 249.710938 342.28125 249.6875 342.320312 249.644531 C 342.503906 250.640625 342.703125 251.644531 342.886719 252.625 C 330.863281 252.910156 318.851562 252.113281 306.335938 249.464844 L 306.152344 249.257812 C 304.113281 247.179688 301.460938 245.546875 298.492188 244.550781 C 294.105469 243.046875 288.824219 242.371094 282.28125 242.488281 C 279.324219 242.539062 276.855469 242.488281 274.515625 242.355469 C 273.480469 242.289062 272.316406 242.308594 271.234375 242.472656 C 272.070312 239.742188 272.78125 237.011719 273.15625 234.21875 C 274.308594 225.398438 273.496094 215.917969 271.300781 207.175781 C 271.011719 206.054688 270.703125 204.914062 270.375 203.816406 C 269.601562 201.269531 268.6875 198.753906 267.644531 196.292969 C 277.0625 202.488281 286.914062 208.257812 296.980469 214.125 Z M 341.929688 207.765625 C 342.886719 201.753906 345.355469 196.398438 348.433594 191.199219 C 352.609375 184.144531 356.828125 177.195312 360.523438 169.855469 L 360.5 170.144531 C 360.746094 169.59375 360.96875 169.042969 361.214844 168.519531 C 361.84375 167.132812 362.457031 165.683594 363.070312 164.253906 C 366.757812 155.65625 370.589844 146.769531 378.359375 143.570312 C 379.277344 143.269531 380.175781 143.042969 381.050781 142.835938 C 380.660156 143.285156 380.3125 143.753906 380.007812 144.238281 C 372.652344 156.125 370 173.917969 367.855469 188.183594 L 367.203125 192.464844 C 366.167969 200.1875 362.457031 210.089844 357.28125 219.402344 C 353.101562 226.925781 347.964844 234.019531 342.464844 239.273438 C 340.886719 228.78125 340.28125 218.160156 341.929688 207.765625 Z M 395.417969 138.417969 C 391.441406 140.164062 387.9375 143.921875 385.511719 147.136719 C 378.375 156.570312 376.519531 168.636719 375.160156 180.109375 C 372.140625 205.21875 361.988281 231.773438 341.484375 247.726562 C 340.097656 247.363281 338.808594 246.691406 337.851562 245.648438 C 352.917969 235.523438 366.980469 209.253906 369.226562 192.742188 L 369.878906 188.484375 C 371.972656 174.386719 374.609375 156.855469 381.71875 145.320312 C 384.230469 141.453125 389.429688 138.355469 395.417969 138.417969 Z M 401.4375 139.675781 C 399.742188 140.164062 397.867188 140.355469 395.910156 140.394531 C 397.6875 139.558594 399.558594 139.207031 401.4375 139.675781 Z M 404.964844 140.371094 C 407.1875 139.007812 410.035156 136.421875 411.460938 133.929688 C 411.644531 133.953125 411.8125 133.953125 411.996094 133.953125 C 414.191406 133.953125 416.519531 133.746094 418.84375 133.277344 C 419.394531 133.171875 419.742188 132.625 419.640625 132.074219 C 419.511719 131.527344 418.988281 131.183594 418.4375 131.285156 C 418.351562 131.304688 418.292969 131.304688 418.214844 131.328125 C 409.773438 132.972656 402.796875 130.871094 400.273438 129.527344 C 395.949219 127.1875 392.078125 123.722656 388.894531 119.402344 C 388.878906 119.363281 388.839844 119.339844 388.816406 119.296875 C 388.777344 119.234375 388.710938 119.1875 388.65625 119.132812 C 388.71875 119.1875 388.777344 119.234375 388.824219 119.296875 C 388.066406 118.277344 387.34375 117.210938 386.671875 116.097656 C 383.527344 110.828125 381.585938 104.324219 381.050781 97.277344 C 379.921875 82.527344 380.675781 70.246094 383.296875 59.925781 C 383.097656 59.902344 382.898438 59.878906 382.699219 59.839844 C 382.167969 61.757812 381.519531 64.488281 380.949219 67.917969 C 381.519531 64.480469 382.160156 61.75 382.699219 59.832031 C 379.65625 59.363281 377.054688 58.199219 375.722656 55.691406 C 372.546875 49.617188 379.640625 41.59375 383.773438 38.089844 C 391.285156 31.667969 400.578125 27.628906 410.585938 28.101562 C 411.890625 28.164062 411.890625 30.203125 410.585938 30.136719 C 400.964844 29.667969 391.195312 33.648438 384.285156 40.351562 C 380.804688 43.75 371.648438 55.390625 381.457031 57.308594 C 388.734375 58.734375 396.4375 57.285156 403.816406 57.691406 C 412.601562 58.160156 421.445312 58.46875 430.199219 59.527344 C 430.03125 60.175781 429.886719 60.851562 429.730469 61.503906 C 426.488281 75.15625 424.542969 89.421875 423.101562 103.34375 C 422.347656 110.78125 421.429688 124.941406 431.925781 125.53125 L 431.949219 125.53125 C 435.429688 125.777344 438.957031 125.816406 442.46875 125.960938 C 442.796875 130.484375 443.792969 134.6875 447.320312 138.003906 C 447.398438 138.125 447.5 138.230469 447.621094 138.316406 C 447.851562 138.5 448.089844 138.699219 448.3125 138.882812 C 442.34375 140.003906 434.785156 143.203125 426.8125 146.585938 C 416.636719 150.910156 406.0625 155.367188 399.757812 154.84375 C 395.910156 154.597656 393.417969 153.496094 392.566406 151.707031 C 391.890625 150.273438 392.320312 148.339844 393.746094 146.378906 C 395.195312 144.40625 399.699219 142.433594 401.332031 141.84375 C 401.332031 141.820312 401.332031 141.820312 401.347656 141.820312 C 402.640625 141.515625 403.855469 141.046875 404.964844 140.371094 Z M 387.144531 118.683594 C 387.398438 118.742188 387.652344 118.789062 387.914062 118.84375 C 387.652344 118.796875 387.398438 118.742188 387.144531 118.683594 Z M 380.121094 96.730469 C 381.617188 108.75 385.304688 115.78125 387.046875 118.535156 C 385.296875 115.761719 381.609375 108.742188 380.121094 96.730469 Z M 413.015625 30.816406 C 413.199219 31.117188 413.378906 31.429688 413.5625 31.730469 C 413.339844 32.058594 413.117188 32.382812 412.886719 32.6875 L 411.957031 31.238281 C 412.296875 31.101562 412.664062 30.957031 413.015625 30.816406 Z M 433.703125 78.808594 C 434.210938 79.558594 434.707031 80.339844 435.214844 81.085938 C 434.90625 81.308594 434.617188 81.539062 434.316406 81.738281 C 433.820312 80.984375 433.359375 80.210938 432.867188 79.4375 C 433.152344 79.230469 433.414062 79.007812 433.703125 78.808594 Z M 435.921875 22.351562 C 436.878906 23.316406 437.554688 23.984375 438.226562 24.636719 C 435.78125 25.59375 434.96875 25.042969 435.921875 22.351562 Z M 451.460938 136.90625 C 453.109375 137.25 453.863281 138.316406 454.046875 139.703125 C 452.496094 139.207031 451.09375 138.476562 449.867188 137.519531 C 450.398438 137.273438 450.910156 137.074219 451.460938 136.90625 Z M 447.683594 164.992188 C 441.753906 172.308594 435.070312 178.929688 429.464844 186.550781 C 417.457031 202.894531 409.503906 222.03125 402.414062 240.90625 C 401.414062 240.984375 400.378906 241.023438 399.359375 240.945312 C 404.550781 214.652344 419.679688 190.585938 436.65625 170.269531 C 442.261719 163.566406 448.703125 157.675781 453.171875 150.035156 C 454.90625 147.058594 457.351562 140.105469 454.945312 136.722656 C 466.605469 138.09375 451.171875 160.710938 447.683594 164.992188 Z M 461.300781 142.40625 C 462.773438 142.390625 464.238281 142.328125 465.730469 142.25 C 468.5625 142.121094 471.398438 142.328125 474.210938 142.757812 C 471.3125 143.632812 468.683594 145.34375 466.300781 147.894531 C 460.121094 154.597656 455.496094 163.542969 452.167969 175.261719 L 450.558594 180.921875 C 446.363281 195.886719 442.390625 210.027344 435.804688 223.910156 C 434.195312 227.308594 432.539062 230.675781 430.890625 234.035156 C 430.722656 234.339844 430.5 234.894531 430.214844 235.5625 C 429.6875 236.871094 428.238281 240.332031 427.585938 240.722656 C 419.941406 242.839844 411.972656 244.082031 404.261719 245.269531 L 396.539062 246.46875 C 382.070312 248.769531 368.511719 250.914062 355.140625 251.972656 C 351.714844 252.257812 348.292969 252.457031 344.882812 252.582031 C 344.582031 251.136719 344.292969 249.710938 344.007812 248.261719 C 348.59375 244.488281 352.65625 240.214844 356.222656 235.546875 C 364.886719 224.171875 370.691406 210.558594 374.28125 196.84375 C 377.171875 185.699219 377.316406 174.097656 380.269531 162.96875 C 381.761719 157.328125 384.1875 152.046875 387.835938 147.488281 C 389.140625 145.832031 390.828125 143.9375 392.773438 142.390625 C 393.648438 142.40625 394.523438 142.433594 395.402344 142.433594 C 394.09375 143.21875 392.828125 144.160156 392.097656 145.203125 C 390.226562 147.75 389.730469 150.441406 390.734375 152.582031 C 391.546875 154.308594 393.753906 156.492188 399.621094 156.878906 C 400.003906 156.921875 400.394531 156.921875 400.824219 156.921875 C 407.671875 156.921875 417.800781 152.621094 427.609375 148.457031 C 436.027344 144.890625 444.730469 141.207031 450.664062 140.578125 C 450.742188 140.578125 450.78125 140.539062 450.847656 140.511719 C 451.890625 141.046875 452.949219 141.429688 454.023438 141.714844 C 453.578125 144.890625 451.601562 148.6875 450.78125 150.074219 C 448.480469 154.007812 445.449219 157.484375 442.429688 160.851562 C 436.640625 167.308594 431.011719 173.757812 425.859375 180.761719 C 412.609375 198.738281 401.269531 219.425781 397.152344 241.574219 C 397.128906 241.660156 397.152344 241.742188 397.152344 241.820312 C 397.074219 242.265625 397.273438 242.738281 397.867188 242.816406 C 399.621094 243.085938 401.371094 243.046875 403.148438 242.902344 C 403.386719 242.878906 403.59375 242.761719 403.753906 242.617188 C 403.898438 242.511719 404.039062 242.371094 404.128906 242.148438 C 412.925781 218.589844 423.308594 195.679688 440.128906 176.6875 C 447.199219 168.695312 454.945312 160.8125 459.039062 150.78125 C 460.1875 147.972656 461.300781 145.242188 461.300781 142.40625 Z M 486.074219 272.023438 C 485.929688 273.105469 485.867188 274.179688 485.789062 275.265625 C 483.34375 275.835938 480.875 276.324219 478.390625 276.753906 C 482.140625 272.535156 485.175781 267.726562 487.90625 262.710938 C 487.132812 265.789062 486.480469 268.902344 486.074219 272.023438 Z M 491.917969 293.34375 C 491.511719 293.644531 491.066406 293.949219 490.558594 294.320312 C 490.046875 293.320312 489.65625 292.5625 488.964844 291.242188 C 489.65625 290.953125 490.351562 290.667969 491.003906 290.40625 C 491.3125 291.359375 491.617188 292.339844 491.917969 293.34375 Z M 505.3125 330.105469 C 504.945312 330.878906 504.621094 331.53125 504.109375 332.574219 C 503.585938 331.371094 503.296875 330.757812 502.683594 329.386719 C 503.871094 329.53125 504.421875 329.613281 505.167969 329.699219 C 505.214844 329.84375 505.273438 329.960938 505.3125 330.105469 Z M 533.8125 569.929688 C 532.28125 566.664062 533.851562 566.441406 535.261719 566.058594 C 535.5625 566.324219 535.851562 566.609375 536.160156 566.894531 C 535.378906 567.914062 534.59375 568.910156 533.8125 569.929688 Z M 497.015625 379.261719 C 496.019531 376.691406 496.386719 375.511719 498.449219 374.859375 C 498.832031 375.425781 499.246094 376.023438 499.792969 376.769531 C 498.917969 377.566406 498.175781 378.21875 497.015625 379.261719 Z M 494.839844 367.664062 C 494.125 366.054688 494.019531 364.726562 497.140625 364.160156 C 496.695312 365.847656 496.410156 366.972656 496.097656 368.070312 C 495.691406 367.949219 495.261719 367.808594 494.839844 367.664062 Z M 484.664062 282.578125 C 484.785156 282.230469 484.910156 281.886719 485.03125 281.519531 C 485.621094 281.785156 486.234375 282.03125 486.871094 282.292969 C 485.804688 284.554688 485.253906 283.3125 484.664062 282.578125 Z M 368.71875 82.589844 C 367.699219 80.027344 368.0625 78.851562 370.117188 78.195312 C 370.507812 78.761719 370.9375 79.335938 371.464844 80.109375 C 370.589844 80.902344 369.855469 81.539062 368.71875 82.589844 Z M 366.535156 71 C 365.800781 69.390625 365.699219 68.046875 368.820312 67.496094 C 368.390625 69.167969 368.078125 70.285156 367.800781 71.40625 C 367.371094 71.261719 366.941406 71.144531 366.535156 71 Z M 354.917969 98.171875 C 354.527344 97.714844 354.183594 97.492188 354.183594 97.3125 C 354.265625 95.820312 354.828125 94.90625 357.28125 95.640625 C 356.238281 96.761719 355.570312 97.453125 354.917969 98.171875 Z M 350.878906 112.332031 C 341.171875 109.617188 343.132812 97.941406 346.375 90.789062 C 348.554688 85.984375 351.9375 81.597656 355.324219 77.320312 C 351.730469 85.347656 348.699219 93.746094 347.65625 102.484375 C 347.167969 106.726562 348.515625 109.984375 351.078125 112.386719 C 351.023438 112.371094 350.945312 112.347656 350.878906 112.332031 Z M 447.484375 37.230469 C 448.585938 37.070312 449.667969 36.929688 451.277344 36.683594 C 451.109375 38.234375 451.03125 38.96875 450.886719 40.222656 C 449.460938 39.371094 448.417969 38.742188 447.382812 38.105469 C 447.421875 37.804688 447.445312 37.519531 447.484375 37.230469 Z M 453.457031 80.496094 C 454.921875 81.867188 455.457031 82.375 456.308594 83.1875 C 455.367188 84.144531 454.621094 84.925781 453.863281 85.695312 C 453.601562 85.570312 453.316406 85.449219 453.050781 85.304688 C 453.148438 84.039062 453.273438 82.757812 453.457031 80.496094 Z M 458.085938 33.441406 C 458.609375 34.804688 459 35.457031 459.039062 36.132812 C 459.0625 36.640625 458.609375 37.152344 458.226562 38.003906 C 456.714844 36.683594 456.230469 35.640625 458.085938 33.441406 Z M 466.253906 98.148438 C 468.214844 98.878906 468.578125 100.105469 467.785156 102.367188 C 464.566406 101.648438 465.15625 100.105469 466.253906 98.148438 Z M 474.027344 61.605469 C 476.039062 63.828125 477.308594 65.238281 478.574219 66.636719 C 478.46875 66.964844 478.367188 67.289062 478.246094 67.617188 C 476.246094 67.410156 474.226562 67.210938 471.519531 66.925781 C 472.355469 65.171875 472.941406 63.90625 474.027344 61.605469 Z M 479.671875 108.78125 C 479.449219 108.925781 479.226562 109.070312 478.996094 109.210938 C 478.628906 108.703125 478.261719 108.191406 477.894531 107.660156 C 478.246094 107.476562 478.589844 107.277344 478.914062 107.09375 C 479.179688 107.644531 479.425781 108.21875 479.671875 108.78125 Z M 486.742188 122.195312 C 491.289062 113.40625 488.925781 100.222656 487.683594 90.972656 C 487.476562 89.523438 487.253906 88.078125 487.054688 86.652344 C 487.578125 88.707031 488.128906 90.742188 488.726562 92.78125 C 490.714844 99.699219 492.476562 106.886719 492.085938 114.148438 C 491.785156 119.609375 488.765625 123.070312 484.648438 125.007812 C 485.460938 124.210938 486.175781 123.292969 486.742188 122.195312 Z M 486.886719 347.386719 C 493.957031 379.5 501.976562 411.414062 509.023438 443.535156 C 516.078125 475.609375 521.238281 507.914062 526.335938 540.355469 C 528.554688 554.421875 531.082031 568.582031 532.082031 582.785156 C 532.710938 591.796875 533.261719 600.785156 533.8125 609.789062 C 534.609375 622.730469 535.363281 635.691406 536.121094 648.652344 C 536.136719 649.019531 536.160156 649.382812 536.175781 649.75 C 545.152344 645.007812 554.117188 640.261719 563.082031 635.484375 C 563.394531 635.324219 563.59375 634.960938 563.578125 634.609375 C 562.820312 606.324219 562.988281 577.976562 560.4375 549.773438 C 557.746094 519.976562 551.976562 490.386719 545.636719 461.160156 C 539.703125 433.816406 532.449219 406.773438 523.929688 380.113281 C 515.816406 354.742188 505.597656 330.183594 496.832031 305.0625 C 493.535156 295.5625 490.621094 285.898438 487.867188 276.242188 C 487.90625 274.835938 487.984375 273.433594 488.113281 272.023438 C 488.679688 265.804688 490.492188 259.535156 492.59375 253.394531 C 493.066406 252.417969 493.535156 251.4375 493.980469 250.457031 L 495.039062 248.222656 C 502.070312 233.460938 506.316406 221.792969 508.824219 210.351562 C 514.246094 185.753906 509.4375 163.320312 495.980469 150.351562 C 491.65625 146.179688 486.988281 143.515625 482.46875 142.511719 C 482.441406 142.511719 482.425781 142.511719 482.402344 142.496094 C 475.101562 140.394531 468.394531 140.554688 461.117188 140.410156 C 461 139.859375 460.832031 139.296875 460.609375 138.722656 C 459.261719 135.417969 455.925781 134.382812 452.703125 134.644531 C 452.675781 134.644531 452.675781 134.644531 452.675781 134.644531 C 451.09375 134.828125 449.644531 135.273438 448.296875 136.070312 C 446.21875 133.808594 444.9375 130.832031 444.753906 127.449219 C 444.714844 126.980469 444.691406 126.535156 444.667969 126.066406 C 447.175781 126.191406 449.683594 126.375 452.167969 126.71875 C 456.84375 127.410156 461.484375 128.269531 466.199219 128.777344 C 468.5625 129.019531 471.167969 129.183594 473.761719 129.042969 C 473.804688 129.042969 473.84375 129.058594 473.882812 129.058594 C 480.15625 129.183594 488.253906 127.425781 491.941406 121.910156 C 496.019531 115.773438 494.0625 106.417969 492.636719 99.792969 C 490.820312 91.300781 487.945312 83.003906 485.851562 74.542969 C 484.992188 71.039062 484.089844 67.515625 483.097656 64.035156 C 482.609375 61.671875 482.078125 59.304688 481.527344 56.957031 C 479.34375 47.914062 475.308594 39.636719 468.460938 33.234375 C 459.980469 25.265625 447.75 20.21875 436.496094 17.992188 C 413.253906 13.429688 387.167969 24.429688 373.875 43.59375 C 368.636719 51.128906 364.128906 59.15625 360.054688 67.371094 C 359.191406 68.714844 358.339844 70.046875 357.425781 71.351562 C 351.453125 79.660156 343.992188 87.449219 342.050781 97.820312 C 340.886719 103.957031 342.007812 110.558594 348.003906 113.429688 C 350.777344 114.777344 353.976562 115.167969 356.972656 115.796875 C 366.535156 119.257812 377.523438 118.527344 387.40625 120.800781 C 390.734375 125.292969 394.789062 128.875 399.308594 131.328125 C 400.417969 131.914062 401.84375 132.441406 403.492188 132.894531 L 404.429688 138.292969 C 404.3125 138.371094 404.183594 138.460938 404.0625 138.515625 C 403.386719 138.171875 402.71875 137.925781 402.042969 137.765625 L 402.089844 137.640625 C 395.050781 135.011719 388.203125 136.789062 383.65625 140.3125 C 381.800781 140.511719 379.800781 140.96875 377.644531 141.660156 C 369.042969 145.203125 365.046875 154.476562 361.191406 163.441406 C 360.578125 164.863281 359.972656 166.296875 359.359375 167.660156 C 359.359375 167.675781 359.359375 167.675781 359.359375 167.675781 C 353.300781 179.949219 343.539062 191.484375 340.402344 204.972656 C 340.074219 206.378906 339.828125 207.789062 339.605469 209.214844 C 335.226562 216.671875 329.722656 225.3125 320.683594 223.359375 C 313.78125 221.847656 307.5 218.035156 301.40625 214.371094 L 298 212.375 C 286.730469 205.789062 276.109375 199.558594 266.113281 192.871094 C 263.183594 186.574219 259.695312 180.476562 256.597656 174.347656 C 253.214844 167.660156 249.136719 161.769531 244.917969 155.574219 C 241.980469 151.292969 239.273438 145.59375 234.789062 142.632812 C 230.035156 139.496094 224.921875 139.964844 219.460938 140.355469 L 219.316406 140.355469 C 218.457031 139.351562 217.542969 138.355469 216.539062 137.335938 C 214.523438 135.257812 212.875 133.421875 211.347656 131.589844 C 209.648438 129.550781 207.125 127.265625 204.738281 128.039062 C 203.71875 128.367188 203.152344 128.898438 202.777344 129.449219 C 202.617188 128.390625 202.554688 127.265625 202.644531 126.046875 C 202.824219 122.625 203.597656 118.589844 202.292969 115.324219 C 201.152344 112.476562 197.929688 112.652344 195.40625 112.59375 C 187.578125 112.371094 178.523438 110.613281 170.917969 113.105469 C 168.800781 113.773438 168.410156 115.285156 168.1875 117.300781 C 167.613281 122.234375 169.246094 129.121094 166.59375 133.460938 C 162.113281 140.777344 153.980469 140.332031 146.535156 140.132812 C 140.222656 139.988281 133.492188 141.347656 127.785156 144.023438 C 116.140625 149.484375 109.109375 158.855469 104.976562 170.820312 C 96.738281 194.597656 109.09375 221.910156 116.882812 244.226562 C 119.261719 251.109375 121.507812 258.046875 123.363281 265.113281 C 123.707031 266.5 124.242188 265.464844 123.324219 266.578125 C 122.855469 267.113281 122.488281 267.726562 122.113281 268.339844 C 119.710938 272.429688 118.125 277.09375 116.46875 281.519531 C 110.496094 297.617188 105.582031 314.128906 100.613281 330.574219 C 91.296875 361.304688 82.019531 392.015625 72.457031 422.6875 C 55.257812 477.933594 45.121094 535.078125 36.664062 592.242188 C 36.664062 592.304688 36.6875 592.371094 36.6875 592.425781 C 36.625 592.878906 36.808594 593.339844 37.382812 593.484375 C 56.605469 598.03125 75.90625 602.25 95.3125 605.894531 C 95.636719 606.222656 96.148438 606.324219 96.511719 606.125 C 125.707031 611.585938 155.144531 615.71875 184.796875 617.558594 L 185.65625 617.613281 L 185.65625 640.953125 C 185.65625 645.355469 190.308594 648.574219 194.832031 649.003906 L 195.835938 649.042969 L 195.835938 649.003906 C 200.460938 648.546875 204.003906 645.085938 204.003906 640.953125 L 204.003906 618.394531 C 225.472656 618.917969 247.074219 618.003906 268.335938 615.050781 C 268.296875 615.210938 268.28125 615.375 268.242188 615.535156 C 268.152344 616.027344 268.320312 616.394531 268.703125 616.683594 C 285.242188 628.949219 303.5 639.886719 322.722656 648.453125 C 327.253906 678.265625 333.917969 716.597656 337.039062 734.230469 C 336.832031 734.636719 336.914062 735.207031 337.28125 735.550781 C 338.203125 740.8125 338.769531 743.910156 338.769531 743.910156 L 332.875 747.921875 L 332.453125 748.042969 C 331.738281 748.429688 315.285156 758.152344 308.882812 763.085938 C 296.101562 772.910156 289.476562 780.671875 291.253906 785.910156 C 292.050781 788.210938 294.453125 788.839844 297.289062 789.554688 C 302.933594 790.980469 322.15625 797.136719 351.574219 789.621094 C 364.703125 786.253906 369.839844 784.867188 377.667969 781.222656 C 382.539062 778.9375 388.28125 775.25 388.28125 775.25 L 388.609375 789.660156 C 388.609375 789.660156 397.257812 789.660156 404.941406 789.660156 L 405.59375 789.660156 L 405.855469 789.148438 C 406.023438 788.824219 409.488281 770.785156 409.464844 756.949219 C 409.464844 745.949219 407.527344 739.222656 407.425781 738.910156 L 407.449219 738.910156 C 405.019531 715.050781 402.511719 691.59375 399.542969 668.140625 C 420.046875 670.402344 440.695312 671.148438 461.261719 669.683594 C 461.730469 669.644531 462.175781 669.605469 462.632812 669.582031 C 468.4375 705.53125 475.347656 743.910156 475.347656 743.910156 L 469.457031 747.921875 L 469.035156 748.042969 C 468.316406 748.429688 451.867188 758.152344 445.464844 763.085938 C 432.683594 772.910156 426.058594 780.671875 427.832031 785.910156 C 428.628906 788.210938 431.035156 788.839844 433.871094 789.554688 C 439.515625 790.980469 458.738281 797.136719 488.152344 789.621094 C 501.28125 786.253906 506.417969 784.867188 514.246094 781.222656 C 519.121094 778.9375 524.859375 775.25 524.859375 775.25 L 525.1875 789.660156 C 525.1875 789.660156 533.835938 789.660156 541.519531 789.660156 L 542.171875 789.660156 L 542.433594 789.148438 C 542.601562 788.824219 546.066406 770.785156 546.042969 756.949219 C 546.042969 745.949219 544.109375 739.222656 544.003906 738.910156 L 544.027344 738.910156 C 541.011719 709.226562 537.871094 680.183594 533.875 650.976562 C 533.980469 650.9375 534.097656 650.875 534.203125 650.816406 C 534.179688 650.425781 534.160156 650.0625 534.136719 649.695312 C 533.753906 642.785156 533.339844 635.875 532.9375 628.949219 C 531.757812 609.300781 531.207031 589.449219 528.660156 569.90625 C 524.335938 536.851562 519.136719 503.71875 512.679688 471.007812 C 500.214844 407.890625 481.855469 345.960938 472.65625 282.214844 C 473.269531 281.703125 473.882812 281.195312 474.472656 280.660156 C 477.671875 303.078125 482.035156 325.296875 486.886719 347.386719 "/>
</g>
</g>
</svg>
