<?xml version="1.0" encoding="UTF-8"?>
<svg xmlns="http://www.w3.org/2000/svg" xmlns:xlink="http://www.w3.org/1999/xlink" width="810pt" height="712.499978pt" viewBox="0 0 810 712.499978" version="1.2">
<defs>
<clipPath id="clip1">
  <path d="M 0.285156 0 L 809.714844 0 L 809.714844 712 L 0.285156 712 Z M 0.285156 0 "/>
</clipPath>
<clipPath id="clip2">
  <path d="M 700 416 L 791.910156 416 L 791.910156 604 L 700 604 Z M 700 416 "/>
</clipPath>
<clipPath id="clip3">
  <path d="M 387 648 L 508 648 L 508 697.660156 L 387 697.660156 Z M 387 648 "/>
</clipPath>
</defs>
<g id="surface1">
<g clip-path="url(#clip1)" clip-rule="nonzero">
<path style=" stroke:none;fill-rule:nonzero;fill:rgb(100%,100%,100%);fill-opacity:1;" d="M 0.285156 0 L 809.714844 0 L 809.714844 719.496094 L 0.285156 719.496094 Z M 0.285156 0 "/>
<path style=" stroke:none;fill-rule:nonzero;fill:rgb(100%,100%,100%);fill-opacity:1;" d="M 0.285156 0 L 809.714844 0 L 809.714844 712 L 0.285156 712 Z M 0.285156 0 "/>
<path style=" stroke:none;fill-rule:nonzero;fill:rgb(100%,100%,100%);fill-opacity:1;" d="M 0.285156 0 L 809.714844 0 L 809.714844 712 L 0.285156 712 Z M 0.285156 0 "/>
</g>
<path style=" stroke:none;fill-rule:nonzero;fill:rgb(100%,100%,100%);fill-opacity:1;" d="M 356.792969 649.675781 C 355.320312 645.148438 351.816406 643.214844 349.855469 642.464844 L 349.390625 642.277344 L 349.058594 641.824219 L 250.132812 634.277344 L 250.132812 673.769531 L 250.210938 673.769531 L 349.003906 666.234375 L 349.335938 665.773438 L 349.867188 665.578125 C 351.585938 664.933594 354.714844 663.300781 356.417969 659.609375 L 356.949219 658.039062 L 358.566406 658.582031 L 364.269531 658.582031 L 364.269531 650.984375 L 357.21875 650.984375 L 356.792969 649.675781 "/>
<path style=" stroke:none;fill-rule:nonzero;fill:rgb(100%,100%,100%);fill-opacity:1;" d="M 498.632812 680.433594 C 497.820312 675.738281 494.617188 673.335938 492.777344 672.320312 L 492.339844 672.085938 L 492.066406 671.566406 L 395.222656 650.1875 L 389.617188 689.308594 L 488.605469 695.726562 L 488.953125 695.335938 L 489.550781 695.199219 C 491.34375 694.792969 494.679688 693.601562 496.8125 690.230469 L 497.566406 688.769531 L 499.097656 689.515625 L 504.75 690.320312 L 505.835938 682.789062 L 498.871094 681.796875 L 498.632812 680.433594 "/>
<path style=" stroke:none;fill-rule:nonzero;fill:rgb(100%,100%,100%);fill-opacity:1;" d="M 511.578125 537.050781 L 447.960938 537.050781 C 443.769531 537.050781 440.355469 540.457031 440.355469 544.640625 L 440.355469 548.441406 C 440.355469 551.414062 442.113281 554.117188 444.824219 555.332031 L 447.269531 556.421875 L 445.433594 558.363281 C 444.410156 559.453125 443.515625 560.671875 442.789062 562.003906 L 442.445312 562.625 L 423.824219 569.492188 L 423.488281 567.175781 C 420.519531 546.722656 415.746094 524.386719 409.6875 502.574219 L 409.382812 501.480469 L 410.207031 500.691406 C 431.71875 480.292969 451.894531 456.746094 468.539062 432.589844 L 468.945312 432.007812 L 469.625 431.832031 C 474.460938 430.5625 486.832031 427.125 497.308594 422.550781 L 499.292969 421.683594 L 499.902344 423.753906 C 503.855469 437.238281 511.222656 462.339844 514.941406 462.339844 C 515.027344 462.332031 515.316406 462.292969 515.308594 462.292969 C 519.132812 460.726562 517.015625 445.625 509.027344 417.394531 L 508.695312 416.234375 L 509.609375 415.445312 C 510.871094 414.355469 511.75 413.300781 512.300781 412.15625 C 514.339844 408.707031 513.960938 405.96875 512.691406 402.675781 L 512.414062 401.945312 L 512.730469 401.238281 C 516.761719 392.019531 513.894531 386.070312 512.46875 383.9375 L 511.855469 383.019531 L 512.355469 382.03125 C 513.863281 379.054688 514.144531 375.90625 513.222656 372.675781 C 512.003906 368.542969 509.238281 365.714844 508.695312 365.183594 L 508.320312 364.824219 L 508.179688 364.316406 C 508.03125 363.746094 507.933594 362.78125 507.851562 360.976562 C 507.789062 359.945312 507.746094 359.207031 507.644531 358.84375 C 507.109375 356.816406 506.222656 355.09375 505.007812 353.714844 C 502.523438 350.863281 498.632812 349.027344 494.074219 348.550781 C 493.441406 348.484375 492.800781 348.453125 492.175781 348.453125 C 491.121094 348.453125 490.078125 348.539062 489.03125 348.6875 L 487.453125 348.917969 L 486.945312 347.414062 C 478.042969 320.71875 473.492188 308.921875 470.125 303.882812 L 469.503906 302.957031 L 470.015625 301.960938 C 470.078125 301.847656 470.132812 301.757812 470.148438 301.757812 C 470.15625 301.757812 470.164062 301.765625 470.15625 301.789062 C 470.710938 300.214844 475.414062 286.1875 469.570312 278.753906 C 463.359375 270.898438 450.796875 261.933594 450.675781 261.847656 C 450.621094 262.035156 445.394531 280.570312 452.683594 292.855469 C 455.378906 297.34375 459.558594 300.425781 465.125 302.027344 L 466.5 302.425781 L 466.5 303.851562 C 466.5 309.074219 469.898438 320.910156 477.117188 344.824219 C 477.640625 346.605469 479.246094 351.875 479.246094 351.875 L 477.832031 352.597656 C 475.714844 353.691406 473.625 354.925781 471.628906 356.09375 L 466.285156 359.242188 L 468.550781 353.925781 C 469.933594 350.699219 472.019531 344.617188 470.519531 340.144531 C 469.769531 337.894531 468.085938 336.371094 465.625 335.730469 C 465.203125 335.617188 464.742188 335.558594 464.238281 335.558594 C 460.34375 335.558594 455.011719 339.019531 452.09375 342.371094 C 450.710938 343.925781 449.507812 345.207031 448.457031 346.328125 L 447.957031 346.851562 C 444.324219 350.707031 442.328125 352.824219 439.628906 359.730469 C 437.59375 364.890625 436.773438 370.375 437.238281 375.582031 L 437.328125 376.570312 L 436.5625 377.207031 C 418.675781 392.140625 403.539062 403.910156 388.925781 414.253906 L 386.902344 415.6875 L 386.042969 413.363281 C 373.667969 379.976562 339.097656 302.246094 285.488281 301.464844 L 284.570312 301.464844 C 277.007812 301.34375 267.585938 301.199219 261.507812 296.082031 C 257.640625 292.824219 257.996094 287.433594 258.328125 282.539062 C 258.402344 281.691406 258.4375 280.921875 258.472656 280.136719 C 258.660156 276.472656 258.738281 272.8125 258.8125 269.144531 L 258.84375 267.890625 L 260.007812 267.421875 C 264.332031 265.683594 268.515625 263.546875 272.792969 260.890625 C 282.765625 254.636719 291.203125 245.171875 297.179688 233.527344 C 301.597656 224.90625 304.375 214.566406 305.238281 203.632812 L 305.429688 201.164062 L 307.765625 201.992188 C 310.425781 202.9375 313.167969 203.410156 315.917969 203.410156 C 331.691406 203.410156 344.746094 188.445312 349.488281 173.65625 L 349.644531 173.207031 C 349.835938 172.605469 350.03125 172.007812 350.199219 171.40625 L 350.261719 171.140625 C 350.589844 169.863281 350.882812 168.582031 351.097656 167.347656 C 353.933594 148.226562 335.539062 132.609375 320.761719 120.0625 C 316.648438 116.570312 312.765625 113.269531 309.574219 110.082031 C 304.929688 104.753906 299.859375 96.71875 293.992188 87.425781 C 279.203125 64 260.796875 34.851562 239.578125 34.851562 C 234.882812 34.851562 230.132812 36.328125 225.464844 39.242188 L 224.617188 39.773438 L 223.699219 39.367188 C 222.609375 38.894531 221.558594 38.464844 220.507812 38.039062 L 219.1875 37.488281 C 209.25 33.503906 201.613281 31.800781 193.792969 31.800781 C 190.292969 31.800781 186.753906 32.136719 182.839844 32.859375 C 175.503906 33.738281 168.574219 35.339844 161.640625 37.773438 C 160.867188 38.042969 160.109375 38.320312 159.355469 38.597656 C 141.386719 45.394531 124.640625 57.503906 105.046875 77.859375 C 92.121094 91.367188 85.183594 106.492188 77.851562 122.5 L 75.082031 128.457031 C 72.085938 132.945312 68.050781 138.773438 63.445312 143.964844 C 58.769531 149.261719 53.335938 153.707031 48.070312 157.992188 C 39.566406 164.941406 31.527344 171.503906 26.625 181.351562 C 21.480469 191.570312 20.78125 202.320312 24.707031 210.847656 C 26.417969 214.574219 29.378906 217.257812 33.511719 218.832031 L 34.101562 219.054688 L 34.441406 219.582031 C 40.910156 229.757812 53.183594 231.894531 62.335938 231.894531 C 69.082031 231.894531 76.265625 230.738281 83.117188 228.554688 L 85.59375 227.765625 L 85.582031 231.785156 C 85.535156 234.527344 85.5 236.507812 87.207031 238.359375 C 91.097656 242.679688 97.320312 245.152344 104.28125 245.152344 C 109.726562 245.152344 114.949219 243.546875 118.621094 240.734375 C 120.207031 239.546875 121.660156 238.125 123.136719 236.652344 L 124.453125 235.34375 L 125.796875 236.621094 C 131.417969 241.984375 141.195312 248.234375 153.472656 254.308594 C 158.859375 257.613281 164.589844 260.738281 171.007812 263.863281 L 172.050781 264.375 L 172.085938 265.996094 C 172.121094 267.5 172.144531 268.875 172.144531 270.042969 L 172.195312 271.972656 C 172.25 274.375 172.304688 276.761719 172.464844 280.445312 C 172.503906 281.125 172.53125 281.828125 172.609375 282.683594 C 172.925781 287.433594 173.285156 292.824219 169.4375 296.0625 C 168.78125 296.628906 168.082031 297.109375 167.507812 297.433594 C 167.148438 297.707031 166.75 297.941406 166.300781 298.1875 C 160.375 301.46875 152.558594 302.3125 144.988281 303.125 C 139.855469 303.648438 135.628906 304.128906 131.902344 305.117188 C 120.164062 308.308594 106.191406 317.351562 97.929688 327.117188 C 65.808594 364.789062 71.597656 422.6875 78.761719 462.964844 C 79.269531 465.902344 82.664062 483.851562 85.980469 500.679688 C 89.890625 520.601562 92.113281 531.96875 93.195312 534.007812 C 97.511719 533.964844 102.378906 533.605469 107.652344 532.917969 L 110.207031 532.585938 L 96.289062 613.003906 L 345.078125 613.003906 L 348.769531 621.253906 L 371.324219 612.800781 L 371.75 613.003906 L 381.964844 613.003906 L 381.300781 609.328125 L 440.363281 587.289062 L 440.363281 616.796875 C 440.363281 627.273438 448.898438 635.792969 459.382812 635.792969 L 503.132812 635.792969 C 512.578125 635.792969 520.253906 628.121094 520.253906 618.699219 L 520.253906 571.226562 C 520.253906 567.5625 519.207031 564.035156 517.222656 561.027344 L 515.90625 559.042969 L 550.597656 546.074219 L 551.328125 547.707031 C 552.085938 549.410156 553.449219 550.769531 555.164062 551.527344 L 557.574219 552.605469 L 555.785156 554.550781 C 552.496094 558.113281 550.6875 562.691406 550.6875 567.429688 L 550.6875 616.796875 C 550.6875 627.273438 559.222656 635.792969 569.714844 635.792969 L 611.601562 635.792969 C 622.070312 635.792969 630.585938 627.292969 630.585938 616.839844 L 630.585938 567.429688 C 630.585938 563.273438 629.179688 559.210938 626.613281 555.863281 C 626.027344 555.976562 625.460938 556.039062 624.875 556.039062 L 622.976562 556.039062 L 622.976562 552.238281 C 627.171875 552.238281 630.585938 548.847656 630.585938 544.640625 L 630.585938 540.847656 C 630.585938 536.65625 627.171875 533.25 622.976562 533.25 L 595.394531 533.25 L 594.726562 529.570312 L 661.019531 504.800781 L 661.019531 504.550781 L 703.484375 488.679688 L 696.070312 468.835938 L 511.578125 537.050781 "/>
<path style=" stroke:none;fill-rule:nonzero;fill:rgb(100%,100%,100%);fill-opacity:1;" d="M 790.367188 514.261719 L 790.367188 510.460938 C 790.367188 506.273438 786.953125 502.871094 782.753906 502.871094 L 762.703125 502.871094 L 763.570312 500.347656 C 772.371094 474.976562 775.796875 463.519531 776.21875 458.058594 L 776.378906 456.320312 L 777.671875 456.3125 C 779.761719 454.886719 789.164062 448.066406 789.070312 440.375 C 788.960938 431.683594 785.027344 418.929688 784.949219 418.824219 C 784.8125 418.914062 771.488281 428.835938 770 441.214844 C 769.492188 445.679688 770.703125 449.960938 773.605469 453.933594 L 774.425781 455.066406 L 773.585938 456.191406 C 770.96875 459.691406 767.265625 468.960938 759.425781 489.800781 C 757.980469 493.597656 754.425781 502.871094 754.425781 502.871094 L 744.835938 502.871094 L 744.308594 501.828125 C 733.234375 479.960938 727.8125 470.328125 724.296875 466.289062 L 723.824219 465.753906 L 723.824219 465.042969 L 723.898438 464.128906 L 724.03125 463.996094 C 724.488281 461.253906 725.902344 450.46875 720.574219 445.457031 C 714.484375 439.714844 703 433.851562 702.839844 433.785156 C 702.652344 435.464844 701.199219 450.453125 708.375 459.214844 C 711.082031 462.554688 714.859375 464.585938 719.597656 465.246094 L 720.984375 465.445312 L 721.207031 466.824219 C 721.960938 471.4375 726.914062 482.148438 734.960938 499.203125 L 736.804688 502.863281 L 718.078125 502.863281 C 713.878906 502.863281 710.46875 506.273438 710.46875 510.460938 L 710.46875 514.261719 C 710.46875 517.230469 712.222656 519.933594 714.9375 521.148438 L 717.347656 522.226562 L 715.5625 524.164062 C 712.28125 527.734375 710.472656 532.304688 710.472656 537.042969 L 710.472656 582.617188 C 710.472656 593.089844 719.007812 601.609375 729.496094 601.609375 L 771.34375 601.609375 C 776.429688 601.609375 781.210938 599.640625 784.800781 596.050781 C 788.386719 592.476562 790.367188 587.710938 790.367188 582.660156 L 790.367188 537.042969 C 790.367188 532.890625 788.964844 528.824219 786.390625 525.484375 C 785.804688 525.597656 785.238281 525.652344 784.65625 525.652344 L 782.753906 525.652344 L 782.753906 521.851562 C 786.953125 521.859375 790.367188 518.46875 790.367188 514.261719 "/>
<path style=" stroke:none;fill-rule:nonzero;fill:rgb(6.269836%,5.879211%,5.099487%);fill-opacity:1;" d="M 271.761719 205.054688 C 302.957031 202.503906 284.246094 167.480469 274.589844 152.074219 C 273.292969 150.003906 269.992188 151.910156 271.300781 153.996094 C 279.128906 166.476562 298.640625 199.050781 271.761719 201.257812 C 269.335938 201.453125 269.3125 205.246094 271.761719 205.054688 "/>
<g clip-path="url(#clip2)" clip-rule="nonzero">
<path style=" stroke:none;fill-rule:nonzero;fill:rgb(6.269836%,5.879211%,5.099487%);fill-opacity:1;" d="M 788.464844 514.261719 C 788.464844 517.414062 785.914062 519.957031 782.761719 519.957031 L 758.726562 519.957031 C 759.316406 518.300781 759.910156 516.621094 760.519531 514.886719 C 760.820312 514.027344 761.109375 513.207031 761.40625 512.371094 L 784.660156 512.371094 C 785.710938 512.371094 786.558594 511.523438 786.558594 510.472656 C 786.558594 509.425781 785.710938 508.578125 784.660156 508.578125 L 762.730469 508.578125 C 763.183594 507.28125 763.625 506.011719 764.058594 504.777344 L 760.035156 504.777344 C 759.597656 506.050781 759.148438 507.320312 758.710938 508.578125 L 754.292969 508.578125 C 754.789062 507.296875 755.273438 506.042969 755.753906 504.777344 L 751.683594 504.777344 C 751.195312 506.035156 750.707031 507.300781 750.210938 508.578125 L 749.855469 508.578125 C 749.191406 507.257812 748.570312 506.023438 747.945312 504.777344 L 743.691406 504.777344 C 744.332031 506.050781 744.96875 507.320312 745.605469 508.578125 L 741.496094 508.578125 C 740.894531 507.296875 740.300781 506.03125 739.710938 504.777344 L 735.507812 504.777344 C 736.09375 506.023438 736.695312 507.300781 737.292969 508.578125 L 716.179688 508.578125 C 715.128906 508.578125 714.277344 509.425781 714.277344 510.472656 C 714.277344 511.523438 715.128906 512.371094 716.179688 512.371094 L 739.066406 512.371094 C 740.230469 514.863281 741.398438 517.390625 742.578125 519.957031 L 718.085938 519.957031 C 714.925781 519.957031 712.378906 517.410156 712.378906 514.261719 L 712.378906 510.460938 C 712.378906 507.347656 714.925781 504.765625 718.085938 504.765625 L 782.761719 504.765625 C 785.914062 504.765625 788.464844 507.347656 788.464844 510.460938 Z M 748.292969 523.753906 L 753.347656 523.753906 C 735.738281 572.824219 728.089844 586.652344 724.777344 588.699219 C 724.816406 582.511719 735.925781 554.785156 744.902344 532.261719 C 746.042969 529.449219 747.148438 526.601562 748.292969 523.753906 Z M 755.589844 528.691406 C 776.820312 571.949219 781.164062 586.117188 780.4375 589.652344 C 776.175781 585.359375 764.382812 559.152344 754.832031 537.886719 C 754.371094 536.820312 753.882812 535.753906 753.425781 534.695312 C 754.113281 532.757812 754.875 530.746094 755.589844 528.691406 Z M 752.085938 514.226562 C 752.335938 513.605469 752.5625 512.996094 752.8125 512.375 L 757.375 512.375 C 757.226562 512.792969 757.074219 513.21875 756.929688 513.636719 C 756.171875 515.808594 755.429688 517.902344 754.691406 519.957031 L 749.808594 519.957031 C 750.566406 518.042969 751.332031 516.132812 752.085938 514.226562 Z M 748.191406 513.730469 C 747.535156 515.398438 746.863281 517.066406 746.199219 518.742188 C 745.21875 516.597656 744.242188 514.472656 743.265625 512.375 L 747.507812 512.375 C 747.738281 512.828125 747.96875 513.285156 748.191406 513.730469 Z M 788.464844 537.050781 L 788.464844 582.625 C 788.464844 592.042969 780.78125 599.710938 771.34375 599.710938 L 729.496094 599.710938 C 720.0625 599.710938 712.378906 592.042969 712.378906 582.625 L 712.378906 537.050781 C 712.378906 531.65625 714.925781 526.910156 718.878906 523.753906 L 744.179688 523.753906 C 743.269531 526.152344 742.316406 528.503906 741.363281 530.859375 C 725.582031 570.398438 719.339844 586.917969 721.46875 591.167969 C 721.847656 591.925781 722.457031 592.421875 723.214844 592.648438 C 723.480469 592.726562 723.824219 592.761719 724.132812 592.761719 C 728.734375 592.761719 735.472656 583.039062 751.527344 539.78125 C 770.664062 582.359375 776.484375 593.902344 780.820312 593.902344 C 781.277344 593.902344 781.730469 593.785156 782.152344 593.5625 C 786.902344 590.753906 784.28125 578.101562 757.425781 523.753906 L 781.957031 523.753906 C 785.878906 526.910156 788.464844 531.65625 788.464844 537.050781 Z M 736.726562 498.425781 C 730.90625 486.121094 724.929688 473.472656 723.332031 468.003906 C 727.136719 472.75 734.519531 486.730469 741.785156 500.96875 L 737.902344 500.96875 C 737.523438 500.136719 737.105469 499.257812 736.726562 498.425781 Z M 709.828125 458.015625 C 704.691406 451.714844 704.351562 441.683594 704.539062 436.824219 C 708.273438 438.878906 715.152344 442.933594 719.300781 446.847656 C 723.445312 450.761719 722.765625 459.269531 722.304688 462.644531 C 722.234375 463.253906 722.15625 463.675781 722.117188 463.941406 C 721.855469 463.75 721.546875 463.632812 721.207031 463.632812 C 720.984375 463.617188 720.773438 463.5625 720.5625 463.519531 C 720.773438 463.554688 720.984375 463.605469 721.207031 463.621094 C 721.539062 463.652344 721.839844 463.753906 722.101562 463.921875 C 722.144531 463.695312 722.222656 463.238281 722.300781 462.652344 C 722.160156 462.628906 722.015625 462.582031 721.882812 462.582031 C 721.605469 462.582031 721.015625 462.710938 720.761719 462.828125 C 720.519531 462.941406 720.25 463.140625 719.988281 463.410156 C 715.761719 462.839844 712.335938 461.050781 709.828125 458.015625 Z M 761.1875 490.449219 C 766.246094 477.003906 771.5 463.183594 774.390625 458.316406 C 773.667969 464.890625 767.617188 483.042969 761.382812 500.96875 L 757.195312 500.96875 C 758.601562 497.359375 759.933594 493.828125 761.1875 490.449219 Z M 771.917969 441.453125 C 772.90625 432.988281 780.210938 425.46875 783.9375 422.128906 C 785.117188 426.34375 787.097656 434.507812 787.167969 440.394531 C 787.246094 446.320312 780.359375 451.976562 777.507812 454.101562 C 776.933594 454.519531 776.519531 454.789062 776.367188 454.898438 C 776.367188 454.898438 776.363281 454.898438 776.363281 454.890625 C 776.535156 454.785156 776.953125 454.496094 777.515625 454.085938 C 777.195312 453.597656 776.761719 453.273438 776.222656 453.066406 C 776.007812 452.988281 775.535156 452.90625 775.304688 452.90625 C 775.269531 452.90625 775.234375 452.917969 775.203125 452.917969 C 775.324219 453.078125 775.4375 453.25 775.546875 453.410156 C 775.433594 453.253906 775.3125 453.089844 775.1875 452.929688 C 772.597656 449.351562 771.421875 445.519531 771.917969 441.453125 Z M 782.761719 500.96875 L 765.375 500.96875 C 773.929688 476.28125 777.660156 464.128906 778.117188 458.203125 C 778.195312 458.203125 778.269531 458.203125 778.308594 458.167969 C 778.839844 457.824219 791.089844 449.925781 790.976562 440.351562 C 790.867188 431.542969 786.984375 418.78125 786.789062 418.214844 C 786.640625 417.640625 786.144531 417.183594 785.578125 417 C 784.96875 416.804688 784.359375 416.882812 783.863281 417.261719 C 783.253906 417.679688 769.671875 428.011719 768.113281 441.003906 C 767.542969 446.011719 768.90625 450.71875 772.066406 455.054688 C 769.257812 458.8125 765.488281 468.304688 757.652344 489.117188 C 756.207031 492.917969 754.6875 496.902344 753.125 500.96875 L 746.007812 500.96875 C 735.394531 480.003906 729.539062 469.40625 725.730469 465.035156 C 725.730469 465 725.773438 464.921875 725.808594 464.886719 C 725.917969 464.277344 728.664062 450.453125 721.890625 444.074219 C 715.683594 438.226562 704.195312 432.300781 703.707031 432.074219 C 703.167969 431.765625 702.523438 431.765625 701.953125 432.074219 C 701.421875 432.375 701.039062 432.910156 700.960938 433.511719 C 700.890625 434.199219 698.875 450.605469 706.898438 460.40625 C 709.980469 464.199219 714.207031 466.402344 719.339844 467.125 C 720.097656 471.796875 724.328125 481.097656 733.265625 500.050781 C 733.414062 500.359375 733.566406 500.660156 733.722656 500.96875 L 718.085938 500.96875 C 712.832031 500.96875 708.574219 505.21875 708.574219 510.457031 L 708.574219 514.253906 C 708.574219 518.089844 710.859375 521.394531 714.164062 522.875 C 710.707031 526.640625 708.574219 531.578125 708.574219 537.042969 L 708.574219 582.617188 C 708.574219 594.167969 717.96875 603.503906 729.5 603.503906 L 771.34375 603.503906 C 777.089844 603.503906 782.339844 601.191406 786.148438 597.394531 C 789.914062 593.628906 792.273438 588.429688 792.273438 582.65625 L 792.273438 537.042969 C 792.273438 531.804688 790.292969 527.019531 787.097656 523.335938 C 786.300781 523.597656 785.5 523.75 784.667969 523.75 L 782.761719 523.75 C 788.015625 523.75 792.273438 519.5 792.273438 514.296875 C 792.273438 514.253906 792.273438 514.253906 792.273438 514.253906 L 792.273438 510.457031 C 792.273438 505.222656 788.007812 500.96875 782.761719 500.96875 "/>
</g>
<path style=" stroke:none;fill-rule:nonzero;fill:rgb(6.269836%,5.879211%,5.099487%);fill-opacity:1;" d="M 554.488281 540.859375 C 554.488281 541.90625 555.339844 542.757812 556.386719 542.757812 L 624.871094 542.757812 C 625.925781 542.757812 626.769531 541.90625 626.769531 540.859375 C 626.769531 539.8125 625.917969 538.957031 624.871094 538.957031 L 556.386719 538.957031 C 555.339844 538.957031 554.488281 539.8125 554.488281 540.859375 "/>
<path style=" stroke:none;fill-rule:nonzero;fill:rgb(6.269836%,5.879211%,5.099487%);fill-opacity:1;" d="M 514.542969 542.757812 L 446.0625 542.757812 C 445.007812 542.757812 444.164062 543.605469 444.164062 544.660156 C 444.164062 545.707031 445.011719 546.554688 446.0625 546.554688 L 514.542969 546.554688 C 515.59375 546.554688 516.445312 545.707031 516.445312 544.660156 C 516.445312 543.605469 515.59375 542.757812 514.542969 542.757812 "/>
<path style=" stroke:none;fill-rule:nonzero;fill:rgb(6.269836%,5.879211%,5.099487%);fill-opacity:1;" d="M 362.371094 656.683594 L 359.171875 656.683594 C 359.28125 655.847656 359.4375 654.972656 359.4375 654.023438 C 359.4375 653.609375 359.359375 653.265625 359.324219 652.886719 L 362.363281 652.886719 L 362.363281 656.683594 Z M 350.953125 662.953125 L 350.953125 645.136719 C 353.195312 646.46875 355.632812 649.050781 355.632812 654.023438 C 355.632812 658.996094 353.195312 661.585938 350.953125 662.953125 Z M 347.148438 664.433594 C 347.074219 664.433594 346.996094 664.46875 346.917969 664.503906 L 252.039062 671.722656 L 252.039062 636.328125 L 346.917969 643.542969 C 346.996094 643.578125 347.074219 643.621094 347.148438 643.65625 Z M 364.269531 649.085938 L 358.601562 649.085938 C 357.074219 644.414062 353.613281 641.875 350.539062 640.695312 C 350.230469 640.277344 349.769531 639.972656 349.203125 639.933594 L 250.289062 632.375 C 249.753906 632.335938 249.222656 632.53125 248.84375 632.867188 C 248.460938 633.246094 248.234375 633.738281 248.234375 634.277344 L 248.234375 673.769531 C 248.234375 674.304688 248.460938 674.835938 248.84375 675.179688 C 249.1875 675.523438 249.640625 675.671875 250.140625 675.671875 L 250.289062 675.671875 L 349.203125 668.152344 C 349.777344 668.074219 350.230469 667.769531 350.539062 667.351562 C 353.273438 666.328125 356.394531 664.199219 358.140625 660.40625 C 358.257812 660.441406 358.414062 660.476562 358.566406 660.476562 L 364.269531 660.476562 C 365.335938 660.476562 366.167969 659.644531 366.167969 658.582031 L 366.167969 650.984375 C 366.167969 649.960938 365.335938 649.085938 364.269531 649.085938 "/>
<g clip-path="url(#clip3)" clip-rule="nonzero">
<path style=" stroke:none;fill-rule:nonzero;fill:rgb(6.269836%,5.879211%,5.099487%);fill-opacity:1;" d="M 503.132812 688.164062 L 499.972656 687.707031 C 500.238281 686.914062 500.46875 686.078125 500.625 685.125 C 500.695312 684.710938 500.660156 684.367188 500.660156 683.988281 L 503.707031 684.410156 Z M 496.855469 684.597656 C 496.132812 689.53125 493.351562 691.773438 490.957031 692.800781 L 493.507812 675.066406 C 495.523438 676.734375 497.578125 679.621094 496.855469 684.597656 Z M 487 693.675781 C 486.921875 693.675781 486.851562 693.710938 486.734375 693.710938 L 391.8125 687.523438 L 396.800781 652.46875 L 489.703125 672.976562 C 489.78125 673.011719 489.859375 673.046875 489.933594 673.089844 Z M 506.101562 680.910156 L 500.503906 680.117188 C 499.671875 675.292969 496.589844 672.253906 493.695312 670.65625 C 493.464844 670.199219 493.050781 669.820312 492.476562 669.707031 L 395.617188 648.328125 C 395.082031 648.214844 394.550781 648.328125 394.136719 648.628906 C 393.675781 648.9375 393.410156 649.386719 393.332031 649.921875 L 387.742188 689.039062 C 387.664062 689.570312 387.816406 690.105469 388.160156 690.484375 C 388.460938 690.898438 388.960938 691.171875 389.492188 691.207031 L 488.484375 697.625 C 488.519531 697.660156 488.558594 697.660156 488.636719 697.660156 C 489.128906 697.660156 489.625 697.433594 489.96875 697.050781 C 492.820312 696.40625 496.203125 694.734375 498.410156 691.242188 C 498.566406 691.320312 498.675781 691.355469 498.832031 691.394531 L 504.503906 692.195312 C 504.574219 692.195312 504.691406 692.230469 504.769531 692.230469 C 505.679688 692.230469 506.515625 691.542969 506.632812 690.597656 L 507.734375 683.078125 C 507.769531 682.585938 507.65625 682.050781 507.355469 681.667969 C 507.054688 681.253906 506.59375 680.988281 506.101562 680.910156 "/>
</g>
<path style=" stroke:none;fill-rule:nonzero;fill:rgb(6.269836%,5.879211%,5.099487%);fill-opacity:1;" d="M 683.769531 485.167969 C 682.585938 484.640625 681.5625 483.609375 680.039062 482.472656 C 680.988281 480.539062 681.789062 478.902344 683.308594 475.789062 C 685.023438 479.050781 686.125 481.105469 687.574219 483.917969 C 685.25 484.710938 684.339844 485.398438 683.769531 485.167969 Z M 670.414062 498.992188 L 667.863281 499.945312 C 667.449219 496.789062 668.359375 495.617188 672.277344 496.640625 C 671.707031 497.359375 671.132812 498.121094 670.414062 498.992188 Z M 648.003906 494.171875 C 647.09375 493.5625 646.140625 492.953125 645.230469 492.347656 C 645.378906 491.929688 645.574219 491.472656 645.761719 491.058594 C 646.828125 491.507812 647.890625 491.929688 648.957031 492.382812 C 648.648438 492.996094 648.347656 493.597656 648.003906 494.171875 Z M 622.96875 535.152344 C 626.128906 535.152344 628.675781 537.734375 628.675781 540.847656 L 628.675781 544.648438 C 628.675781 547.796875 626.128906 550.34375 622.96875 550.34375 L 558.292969 550.34375 C 555.140625 550.34375 552.585938 547.796875 552.585938 544.648438 L 552.585938 542.746094 C 552.585938 538.566406 555.976562 535.152344 560.199219 535.152344 Z M 628.679688 567.433594 L 628.679688 573.128906 C 618.253906 569.675781 606.914062 568.117188 596 567.699219 C 580.703125 567.128906 568.039062 577.265625 552.585938 576.921875 L 552.585938 567.433594 C 552.585938 562.039062 555.140625 557.289062 559.09375 554.140625 L 622.171875 554.140625 C 626.09375 557.289062 628.679688 562.039062 628.679688 567.433594 Z M 628.679688 616.804688 C 628.679688 626.226562 620.996094 633.894531 611.558594 633.894531 L 569.710938 633.894531 C 560.277344 633.894531 552.585938 626.226562 552.585938 616.804688 L 552.585938 580.726562 C 566.707031 580.992188 578.039062 572.523438 591.699219 571.535156 C 603.644531 570.660156 617.078125 573.128906 628.410156 577 C 628.488281 577.042969 628.566406 577 628.675781 577.042969 L 628.675781 616.804688 Z M 548.789062 611.109375 L 522.15625 611.109375 L 522.15625 592.042969 C 522.078125 591.511719 522 590.976562 521.925781 590.445312 C 522 590.445312 522.078125 590.410156 522.15625 590.410156 L 522.15625 571.226562 C 522.15625 567.085938 520.9375 563.214844 518.808594 559.988281 L 549.585938 548.480469 C 550.539062 550.605469 552.242188 552.316406 554.378906 553.261719 C 550.917969 557.023438 548.789062 561.960938 548.789062 567.429688 Z M 518.351562 548.441406 C 518.351562 551.59375 515.796875 554.140625 512.644531 554.140625 L 447.96875 554.140625 C 444.808594 554.140625 442.261719 551.59375 442.261719 548.441406 L 442.261719 544.648438 C 442.261719 541.527344 444.808594 538.945312 447.96875 538.945312 L 512.644531 538.945312 C 515.796875 538.945312 518.351562 541.527344 518.351562 544.648438 Z M 518.351562 585.585938 C 511.460938 584.671875 504.617188 584.863281 497.308594 587.296875 C 497.730469 588.355469 498.109375 589.378906 498.527344 590.445312 C 497.765625 590.597656 497.042969 590.789062 496.320312 590.976562 C 496.132812 589.953125 495.902344 588.890625 495.714844 587.863281 C 495.601562 587.898438 495.484375 587.898438 495.40625 587.941406 C 485.78125 591.621094 477.792969 598.34375 468.015625 601.570312 C 459.457031 604.382812 450.289062 605.671875 442.261719 603.246094 L 442.261719 573.089844 C 442.261719 571.800781 442.335938 570.425781 442.484375 569.058594 C 442.484375 568.910156 442.484375 568.796875 442.527344 568.644531 C 442.5625 568.265625 442.644531 567.886719 442.679688 567.507812 C 443.558594 563.671875 445.761719 560.332031 448.769531 557.933594 L 511.84375 557.933594 C 515.761719 561.089844 518.351562 565.832031 518.351562 571.226562 Z M 508.644531 607.917969 C 510.128906 607.652344 511.65625 607.34375 513.554688 607.007812 C 512.070312 611.300781 512.070312 611.300781 508.644531 607.917969 Z M 499.136719 608.332031 C 499.480469 603.015625 499.480469 603.015625 503.964844 603.015625 C 503.964844 606.550781 502.410156 608.144531 499.136719 608.332031 Z M 484.5625 627.363281 C 484.226562 626.984375 483.882812 626.605469 483.539062 626.183594 C 484.457031 625.125 485.367188 624.058594 486.277344 622.992188 C 486.734375 623.527344 487.230469 624.09375 487.6875 624.628906 C 486.65625 625.539062 485.632812 626.449219 484.5625 627.363281 Z M 456.527344 627.25 C 456.375 626.71875 456.183594 626.183594 456.03125 625.652344 C 457.9375 624.515625 459.835938 623.371094 462.574219 621.703125 C 463.035156 624.132812 463.261719 625.238281 463.644531 627.363281 C 460.976562 627.320312 458.734375 627.285156 456.527344 627.25 Z M 545.285156 543.808594 C 545.628906 544.226562 545.964844 544.648438 546.308594 545.0625 C 546.082031 545.25 545.894531 545.441406 545.699219 545.632812 L 542.960938 546.65625 C 542.847656 546.507812 542.734375 546.355469 542.625 546.242188 C 543.5 545.441406 544.410156 544.605469 545.285156 543.808594 Z M 583.0625 522.195312 L 586.71875 522.996094 C 586.640625 523.492188 586.523438 524.019531 586.453125 524.515625 L 582.796875 523.605469 C 582.875 523.148438 582.949219 522.652344 583.0625 522.195312 Z M 438.457031 611.109375 L 381.957031 611.109375 L 438.457031 590.03125 Z M 338.820312 598.878906 C 338.324219 599.066406 337.945312 599.445312 337.714844 599.941406 C 337.523438 600.433594 337.523438 600.96875 337.75 601.464844 L 342.085938 611.109375 L 98.527344 611.109375 L 111.804688 534.351562 C 111.84375 534.316406 111.804688 534.28125 111.804688 534.28125 C 117.777344 533.328125 124.167969 531.996094 130.941406 530.179688 C 130.941406 530.402344 130.980469 530.667969 131.09375 530.894531 C 145.328125 561.089844 187.9375 580.421875 222.703125 583.914062 C 227.613281 584.335938 232.488281 584.519531 237.355469 584.519531 C 286.585938 584.519531 334.21875 563.0625 375.457031 532.492188 L 385.914062 581.480469 Z M 94.460938 532.113281 C 92.140625 523.492188 81.789062 469.292969 80.609375 462.609375 C 73.535156 422.730469 67.792969 365.382812 99.363281 328.316406 C 107.46875 318.820312 121.050781 310.046875 132.390625 306.972656 C 136.117188 305.984375 140.53125 305.492188 145.167969 304.996094 C 152.890625 304.203125 160.800781 303.328125 167.003906 299.953125 C 171.289062 301.859375 188.171875 308.628906 211.714844 308.628906 C 226.179688 308.628906 243.160156 306.039062 261.25 298.222656 C 261.585938 298.074219 261.917969 297.960938 262.261719 297.808594 C 262.738281 297.597656 263.085938 297.210938 263.261719 296.761719 C 263.09375 297.21875 262.75 297.609375 262.273438 297.820312 C 261.929688 297.972656 261.59375 298.085938 261.25 298.234375 C 267.871094 303.058594 277.109375 303.25 284.644531 303.367188 L 285.402344 303.367188 C 302.753906 303.628906 319.648438 312.179688 335.585938 328.851562 C 358.300781 352.582031 374.847656 388.515625 384.589844 414.988281 C 373.78125 422.507812 362.863281 429.417969 351.605469 435.792969 C 351.085938 436.09375 350.5625 436.382812 350.042969 436.679688 C 350.5625 436.382812 351.082031 436.089844 351.597656 435.792969 C 347.8125 425.746094 331.679688 383.375 328.835938 382.632812 C 328.234375 382.476562 327.578125 382.625 327.105469 383.023438 C 326.304688 383.710938 326.214844 384.910156 326.894531 385.703125 C 326.925781 385.734375 326.949219 385.761719 326.972656 385.792969 C 328.46875 388.308594 337.9375 409.753906 348.257812 437.691406 C 348.257812 437.691406 348.257812 437.691406 348.257812 437.695312 C 330.109375 447.722656 310.894531 456.378906 289.441406 463.75 C 275.023438 468.949219 253.261719 476.734375 236.636719 471.460938 C 221.457031 454.402344 201.902344 421.972656 192.011719 387.449219 C 191.742188 386.460938 190.679688 385.855469 189.691406 386.160156 C 188.664062 386.425781 188.09375 387.484375 188.359375 388.515625 C 198.859375 425.164062 218.523438 456.378906 232.792969 472.828125 C 229.863281 475.144531 226.933594 477.386719 224.007812 479.511719 C 198.894531 497.925781 174.546875 510.726562 152.707031 519.082031 C 129.804688 527.855469 109.675781 531.769531 94.460938 532.113281 Z M 170.777344 297.40625 C 175.265625 293.527344 174.847656 287.375 174.503906 282.4375 C 174.425781 281.644531 174.355469 280.84375 174.355469 280.046875 C 174.160156 275.832031 174.125 273.171875 174.046875 270.015625 C 174.011719 268.429688 174.011719 266.71875 173.929688 264.585938 L 173.929688 264.359375 C 173.929688 264.25 173.894531 264.171875 173.894531 264.058594 C 173.851562 263.941406 173.851562 263.828125 173.816406 263.714844 C 173.746094 263.5625 173.667969 263.449219 173.585938 263.335938 C 173.550781 263.261719 173.472656 263.183594 173.4375 263.105469 C 173.324219 263.035156 173.242188 262.957031 173.128906 262.878906 C 173.128906 262.878906 173.125 262.878906 173.117188 262.871094 C 173.03125 262.804688 172.960938 262.726562 172.863281 262.679688 C 171.128906 261.847656 169.4375 261 167.773438 260.148438 C 167.761719 260.136719 167.742188 260.121094 167.730469 260.109375 C 148.59375 239.714844 150.195312 217.34375 150.722656 213.050781 C 153.195312 214 155.976562 214.453125 158.636719 214.339844 C 159.511719 214.304688 160.386719 214.230469 161.261719 214.039062 C 162.136719 213.851562 162.671875 213.015625 162.515625 212.175781 C 162.328125 211.304688 161.488281 210.769531 160.613281 210.960938 C 159.925781 211.074219 159.203125 211.152344 158.40625 211.152344 C 154.679688 211.339844 150.53125 210.160156 148.171875 208.113281 C 146.574219 206.667969 145.285156 204.808594 144.332031 202.753906 C 143.269531 200.515625 142.660156 197.933594 142.46875 195.234375 C 142.351562 192.652344 142.660156 189.960938 143.457031 187.335938 C 144.480469 183.921875 146.273438 181.414062 148.480469 179.515625 C 151.675781 178.148438 154.601562 176.289062 157.195312 174.007812 L 157.230469 174.007812 C 158.035156 173.285156 158.792969 172.527344 159.515625 171.730469 C 168.835938 161.628906 173.894531 148.75 178.761719 136.292969 C 180.058594 132.953125 181.390625 129.609375 182.761719 126.347656 C 183.707031 124.101562 184.660156 121.789062 185.613281 119.359375 C 189.457031 109.828125 193.714844 99.34375 199.917969 91.785156 C 203.71875 87.871094 207.789062 84.191406 212.621094 81.832031 C 220.761719 77.882812 232.136719 77.160156 241.042969 78.109375 C 246.441406 78.683594 252.605469 78.910156 257.824219 80.65625 C 273.304688 85.824219 285.78125 105.722656 293.621094 123.878906 C 293.652344 123.941406 293.671875 124 293.703125 124.066406 C 293.980469 124.824219 294.261719 125.570312 294.519531 126.347656 C 292.734375 126.769531 290.992188 127.292969 289.359375 128.015625 C 287.53125 128.816406 279.203125 132.996094 281.332031 136.105469 C 282.816406 138.3125 288.980469 135.421875 290.769531 134.964844 C 292.75 134.433594 294.761719 134.097656 296.777344 133.867188 C 298.261719 139.257812 299.515625 144.992188 300.546875 150.992188 C 301.144531 151.851562 301.613281 152.933594 301.988281 154.089844 C 301.609375 152.941406 301.144531 151.871094 300.539062 151.007812 C 299.207031 149.125 297.433594 148.050781 295.699219 148.371094 C 292.800781 148.902344 291.144531 153.050781 291.988281 157.632812 C 292.832031 162.226562 295.859375 165.507812 298.753906 164.980469 C 300.21875 164.710938 301.367188 163.507812 302.035156 161.792969 C 302.222656 163.496094 302.453125 165.199219 302.601562 166.980469 C 303.441406 176.332031 303.785156 186.164062 303.671875 196.988281 C 303.511719 210.167969 300.703125 222.507812 295.488281 232.648438 C 289.628906 244.042969 281.453125 253.230469 271.785156 259.269531 C 261.972656 265.386719 252.648438 268.808594 242.378906 269.980469 C 241.503906 270.058594 240.859375 270.78125 240.742188 271.65625 C 240.742188 271.804688 240.699219 271.921875 240.699219 272.070312 C 240.742188 272.226562 240.777344 272.339844 240.859375 272.492188 C 241.042969 276.132812 243.023438 282.480469 245.839844 287.796875 C 247.285156 290.453125 250.554688 294.0625 254.058594 296.1875 C 254.359375 296.375 254.667969 296.53125 254.96875 296.683594 C 255.15625 296.796875 255.351562 296.910156 255.5 296.984375 C 255.964844 297.21875 256.621094 297.421875 257.226562 297.597656 C 256.621094 297.429688 255.972656 297.222656 255.519531 297 C 255.332031 296.910156 255.152344 296.796875 254.964844 296.699219 C 215.425781 311.914062 182.285156 301.890625 171.421875 297.671875 C 171.207031 297.585938 170.96875 297.496094 170.765625 297.417969 C 170.722656 297.453125 170.699219 297.496094 170.65625 297.53125 C 170.167969 297.945312 169.644531 298.3125 169.113281 298.667969 C 169.644531 298.308594 170.164062 297.929688 170.664062 297.511719 C 170.699219 297.476562 170.734375 297.441406 170.777344 297.40625 Z M 170.699219 263.070312 C 170.488281 262.863281 170.300781 262.660156 170.089844 262.460938 C 170.292969 262.660156 170.488281 262.863281 170.699219 263.0625 C 170.851562 262.914062 171.03125 262.796875 171.21875 262.703125 C 171.03125 262.796875 170.851562 262.917969 170.699219 263.070312 Z M 146.582031 97.75 C 145.742188 100.855469 145.210938 102.953125 144.640625 105.035156 C 143.878906 104.8125 143.078125 104.546875 142.28125 104.277344 C 140.949219 101.277344 140.761719 98.773438 146.582031 97.75 Z M 120.628906 154.902344 C 119.910156 154.109375 119.222656 153.652344 119.261719 153.308594 C 119.417969 150.539062 120.480469 148.828125 125.042969 150.195312 C 123.066406 152.285156 121.847656 153.574219 120.628906 154.902344 Z M 149.011719 117.683594 C 149.734375 118.75 150.496094 119.816406 151.527344 121.253906 C 149.886719 122.734375 148.515625 123.914062 146.351562 125.882812 C 144.488281 121.105469 145.167969 118.902344 149.011719 117.683594 Z M 158.828125 158.210938 C 161.261719 151.183594 164.191406 144.464844 167.582031 137.851562 C 173.363281 126.457031 179.414062 115.902344 187.097656 106.101562 C 185.304688 110.054688 183.636719 114.078125 182.074219 117.957031 C 181.121094 120.34375 180.210938 122.664062 179.257812 124.867188 C 177.851562 128.167969 176.554688 131.550781 175.226562 134.925781 C 170.46875 147.046875 165.523438 159.574219 156.738281 169.183594 C 156.164062 169.792969 155.554688 170.324219 154.980469 170.894531 C 156.429688 166.035156 157.726562 161.707031 158.828125 158.210938 Z M 200.105469 85.894531 C 199.804688 86.167969 199.53125 86.46875 199.269531 86.734375 C 198.320312 86.734375 197.253906 86.734375 195.921875 86.695312 C 197.101562 83.011719 198.550781 83.390625 200.105469 85.894531 Z M 294.4375 125.765625 C 294.515625 125.957031 294.605469 126.148438 294.691406 126.347656 L 294.582031 126.347656 C 294.613281 126.34375 294.648438 126.335938 294.679688 126.328125 C 294.601562 126.144531 294.515625 125.949219 294.4375 125.765625 Z M 304.539062 121.976562 C 307.242188 124.523438 308.265625 125.46875 309.863281 126.992188 C 308.117188 128.773438 306.710938 130.21875 305.296875 131.664062 C 304.804688 131.433594 304.273438 131.207031 303.777344 130.941406 C 303.972656 128.585938 304.160156 126.191406 304.539062 121.976562 Z M 260.710938 294.328125 C 261.429688 294.007812 262.25 294.171875 262.792969 294.691406 C 262.25 294.183594 261.429688 294.023438 260.722656 294.335938 C 260.023438 294.648438 259.332031 294.917969 258.632812 295.214844 L 258.660156 296.609375 L 258.617188 295.203125 C 259.34375 294.929688 260.023438 294.628906 260.710938 294.328125 Z M 438.609375 377.953125 C 439.101562 377.539062 439.367188 376.851562 439.253906 376.207031 L 439.101562 375.300781 C 438.6875 370.476562 439.445312 365.304688 441.382812 360.445312 C 443.96875 353.835938 445.796875 351.902344 449.410156 348.070312 C 450.589844 346.851562 451.917969 345.40625 453.523438 343.582031 C 456.527344 340.164062 462.230469 336.785156 465.125 337.542969 C 467.027344 338.074219 468.164062 339.066406 468.738281 340.773438 C 470.636719 346.472656 465.429688 356.875 463.601562 359.230469 C 462.992188 359.988281 463.070312 361.089844 463.789062 361.777344 C 464.476562 362.464844 465.578125 362.5 466.300781 361.851562 C 467.785156 360.640625 469.5 359.609375 471.167969 358.585938 L 472.007812 358.09375 C 478.628906 354.105469 486.164062 349.621094 493.882812 350.421875 C 497.875 350.839844 501.414062 352.511719 503.542969 354.9375 C 504.574219 356.117188 505.335938 357.597656 505.792969 359.34375 C 505.90625 359.6875 505.90625 360.410156 505.945312 361.242188 C 506.09375 364.015625 506.246094 365.5 507.164062 366.371094 L 507.199219 366.371094 C 507.542969 366.714844 515.109375 373.820312 510.164062 382.054688 C 509.707031 382.777344 509.820312 383.691406 510.394531 384.335938 C 510.589844 384.566406 515.71875 390.375 510.660156 401.15625 C 510.429688 401.617188 510.429688 402.179688 510.625 402.679688 C 512.1875 406.4375 512.1875 408.605469 510.589844 411.339844 C 506.898438 419.007812 478.929688 427.515625 468.46875 430.136719 C 468.015625 430.25 467.636719 430.519531 467.363281 430.898438 C 416.5 505.183594 322.035156 588.851562 223.042969 580.113281 C 189.378906 576.738281 148.136719 558.199219 134.554688 529.300781 C 134.511719 529.257812 134.476562 529.222656 134.476562 529.1875 L 134.511719 529.144531 C 163.8125 520.75 199.382812 503.929688 235.941406 475.21875 C 253.746094 480.570312 275.929688 472.632812 290.6875 467.320312 C 348.667969 447.421875 390.292969 418.363281 438.609375 377.953125 Z M 478.9375 344.269531 C 473.796875 327.371094 468.550781 309.976562 468.324219 304.351562 C 471.820312 309.097656 478.40625 327.75 485.023438 347.574219 C 483.460938 348.027344 481.941406 348.597656 480.421875 349.242188 C 479.925781 347.574219 479.433594 345.902344 478.9375 344.269531 Z M 466.796875 299.644531 C 466.496094 299.71875 466.117188 299.945312 465.773438 300.289062 C 460.710938 298.84375 456.832031 296.074219 454.320312 291.894531 C 452.382812 288.628906 451.429688 284.835938 450.972656 281.109375 C 454.015625 279.78125 456.984375 278.679688 459.304688 280.347656 C 462.882812 283.011719 466.574219 285.476562 470.335938 285.816406 C 471.097656 291.136719 469.578125 297.210938 468.78125 299.832031 C 468.359375 299.644531 467.980469 299.53125 467.597656 299.53125 C 467.40625 299.53125 466.988281 299.601562 466.796875 299.644531 Z M 514.925781 460.179688 C 512.148438 457.214844 506.976562 441.1875 501.570312 422.65625 C 503.742188 421.59375 505.757812 420.492188 507.546875 419.316406 C 515.992188 449.351562 516.222656 458.132812 514.925781 460.179688 Z M 390.671875 595.875 C 389.683594 597.207031 389.074219 598.007812 387.742188 599.710938 C 387.019531 597.4375 386.601562 596.105469 385.765625 593.5625 C 388.007812 594.625 389.113281 595.152344 390.671875 595.875 Z M 399.613281 584.371094 C 396.378906 585.886719 394.667969 586.6875 391.355469 588.285156 C 391.625 586.117188 391.8125 584.671875 392.007812 583.269531 L 395.203125 582.089844 C 396.457031 582.738281 397.785156 583.417969 399.613281 584.371094 Z M 421.75 568.230469 L 389.535156 580.15625 L 378.839844 529.988281 C 389.148438 522.160156 399.042969 513.726562 408.476562 504.996094 C 413.457031 523.226562 418.484375 545.140625 421.75 568.230469 Z M 61.816406 149.664062 C 48.5 169.605469 24.726562 181.941406 28.523438 208.527344 C 28.753906 210.273438 29.132812 211.914062 29.554688 213.464844 C 19.621094 202.910156 26.855469 178.984375 39.332031 167.511719 C 48.039062 159.503906 57.097656 152.621094 64.96875 144.269531 C 63.945312 146.09375 62.917969 147.878906 61.816406 149.664062 Z M 328.433594 154.867188 C 332.082031 156.234375 332.769531 158.515625 331.285156 162.730469 C 325.273438 161.398438 326.378906 158.515625 328.433594 154.867188 Z M 697.878906 468.191406 C 697.5 467.203125 696.4375 466.710938 695.40625 467.054688 L 511.234375 535.152344 L 447.96875 535.152344 C 442.714844 535.152344 438.457031 539.402344 438.457031 544.648438 L 438.457031 548.441406 C 438.457031 552.273438 440.738281 555.582031 444.046875 557.0625 C 442.90625 558.277344 441.917969 559.648438 441.121094 561.089844 L 425.371094 566.898438 C 421.988281 543.582031 416.769531 520.984375 411.523438 502.070312 C 434.429688 480.347656 454.324219 456.570312 470.113281 433.667969 C 473.878906 432.683594 487.042969 429.113281 498.074219 424.289062 C 507.089844 455.011719 510.96875 464.242188 515.003906 464.242188 C 515.230469 464.242188 515.804688 464.128906 516.027344 464.054688 C 520.480469 462.230469 520.9375 452.507812 510.851562 416.882812 C 512.265625 415.667969 513.324219 414.414062 513.933594 413.128906 C 516.300781 409.140625 515.914062 405.757812 514.472656 402 C 518.84375 392.007812 515.726562 385.402344 514.050781 382.890625 C 515.796875 379.4375 516.105469 375.828125 515.039062 372.144531 C 513.863281 368.125 511.3125 365.082031 510.019531 363.832031 C 509.863281 363.257812 509.792969 361.820312 509.753906 361.019531 C 509.675781 359.722656 509.640625 358.929688 509.484375 358.359375 C 508.875 356.082031 507.851562 354.070312 506.445312 352.46875 C 503.628906 349.242188 499.328125 347.195312 494.269531 346.660156 C 492.40625 346.472656 490.578125 346.546875 488.75 346.816406 C 480.269531 321.367188 475.359375 308.300781 471.707031 302.835938 C 471.785156 302.683594 471.863281 302.605469 471.933594 302.457031 C 472.164062 301.804688 477.796875 286.164062 471.0625 277.578125 C 464.78125 269.644531 452.304688 260.679688 451.773438 260.300781 C 451.277344 259.921875 450.632812 259.84375 450.023438 260.03125 C 449.453125 260.257812 449 260.714844 448.84375 261.324219 C 448.613281 262.117188 443.402344 280.957031 451.050781 293.835938 C 454.058594 298.84375 458.660156 302.148438 464.59375 303.859375 C 464.59375 309.402344 468.058594 321.402344 475.28125 345.371094 C 475.820312 347.152344 476.386719 349.054688 476.960938 350.917969 C 474.679688 352.089844 472.429688 353.421875 470.300781 354.671875 C 472.277344 350.042969 473.839844 344.078125 472.316406 339.5625 C 471.367188 336.671875 469.195312 334.695312 466.117188 333.902344 C 461.019531 332.535156 453.902344 337.394531 450.671875 341.113281 C 449.109375 342.867188 447.773438 344.269531 446.636719 345.484375 C 442.945312 349.394531 440.699219 351.753906 437.847656 359.042969 C 435.71875 364.476562 434.839844 370.210938 435.339844 375.75 C 419.054688 389.351562 403.496094 401.617188 387.820312 412.707031 C 374.925781 377.917969 340 300.367188 285.480469 299.566406 L 284.722656 299.566406 C 277.417969 299.453125 268.324219 299.335938 262.730469 294.628906 C 259.570312 291.972656 259.914062 287.265625 260.21875 282.707031 C 260.296875 281.828125 260.332031 281.035156 260.375 280.242188 C 260.5625 276.554688 260.640625 272.871094 260.71875 269.1875 C 265.054688 267.441406 269.390625 265.238281 273.804688 262.496094 C 284.039062 256.078125 292.710938 246.398438 298.875 234.398438 C 303.441406 225.472656 306.257812 214.988281 307.132812 203.785156 C 326.269531 210.546875 345.023438 193.796875 351.296875 174.234375 C 350.917969 173.707031 350.539062 173.171875 350.15625 172.640625 C 350.765625 172.261719 351.410156 171.882812 352.058594 171.539062 C 352.058594 171.582031 352.097656 171.617188 352.097656 171.617188 C 352.441406 170.285156 352.746094 168.957031 352.972656 167.625 C 356.78125 141.996094 325.28125 123.078125 311.011719 108.835938 C 291.988281 86.996094 262.503906 13.929688 224.460938 37.628906 C 223.621094 40.625 222.859375 43.4375 222.101562 46.207031 C 221.492188 46.019531 220.917969 45.863281 220.351562 45.71875 L 220.730469 36.070312 C 207.335938 30.601562 196.535156 28.398438 182.609375 30.980469 C 174.964844 31.890625 167.808594 33.601562 161 35.996094 C 160.578125 36.828125 160.164062 37.707031 159.589844 38.878906 C 159.253906 38.085938 158.945312 37.441406 158.679688 36.828125 C 137.792969 44.726562 120.484375 59.085938 103.671875 76.558594 C 88.941406 91.933594 81.753906 109.636719 73.496094 127.414062 C 69.921875 132.765625 66.195312 138.011719 62.007812 142.71875 C 50.097656 156.234375 33.167969 163.945312 24.917969 180.503906 C 20.125 190.039062 18.410156 201.730469 22.976562 211.648438 C 25.070312 216.207031 28.644531 219.015625 32.832031 220.613281 C 42.722656 236.144531 66.421875 235.878906 83.691406 230.371094 C 83.691406 233.90625 83.238281 236.867188 85.78125 239.636719 C 94.003906 248.753906 110.589844 249.28125 119.761719 242.257812 C 121.433594 241.003906 122.953125 239.523438 124.476562 238.007812 C 131.207031 244.425781 142.238281 250.878906 152.472656 255.929688 C 157.917969 259.269531 163.777344 262.460938 170.167969 265.574219 C 170.203125 267.246094 170.242188 268.765625 170.242188 270.097656 C 170.320312 273.25 170.355469 275.949219 170.546875 280.234375 C 170.585938 281.035156 170.621094 281.871094 170.699219 282.703125 C 171 287.261719 171.34375 291.96875 168.191406 294.628906 C 167.617188 295.125 167.007812 295.539062 166.363281 295.925781 C 166.0625 296.148438 165.71875 296.339844 165.375 296.527344 C 159.820312 299.601562 152.207031 300.441406 144.789062 301.242188 C 139.960938 301.726562 135.394531 302.226562 131.402344 303.289062 C 119.375 306.554688 104.996094 315.820312 96.476562 325.882812 C 63.871094 364.132812 69.648438 422.617188 76.878906 463.289062 C 77.375 466.179688 80.722656 483.882812 84.113281 501.046875 C 90.804688 535.1875 91.035156 535.910156 93.015625 535.910156 L 93.164062 535.910156 C 97.617188 535.867188 102.597656 535.488281 107.886719 534.808594 L 94.382812 612.703125 C 94.304688 613.234375 94.457031 613.804688 94.800781 614.257812 C 95.179688 614.671875 95.710938 614.902344 96.28125 614.902344 L 343.84375 614.902344 L 347.035156 622.042969 C 347.339844 622.726562 348.027344 623.144531 348.789062 623.144531 C 348.976562 623.144531 349.203125 623.105469 349.433594 623.035156 L 371.234375 614.863281 C 371.308594 614.90625 371.386719 614.90625 371.457031 614.90625 L 438.457031 614.90625 L 438.457031 616.804688 C 438.457031 628.351562 447.851562 637.695312 459.382812 637.695312 L 503.132812 637.695312 C 513.632812 637.695312 522.15625 629.183594 522.15625 618.699219 L 522.15625 614.90625 L 548.789062 614.90625 L 548.789062 616.804688 C 548.789062 628.351562 558.183594 637.695312 569.710938 637.695312 L 611.601562 637.695312 C 623.125 637.695312 632.488281 628.316406 632.488281 616.839844 L 632.488281 567.433594 C 632.488281 562.191406 630.507812 557.40625 627.3125 553.71875 C 626.515625 553.984375 625.714844 554.140625 624.875 554.140625 L 622.976562 554.140625 C 628.222656 554.140625 632.488281 549.886719 632.488281 544.683594 C 632.488281 544.648438 632.488281 544.648438 632.488281 544.648438 L 632.488281 540.847656 C 632.488281 535.605469 628.222656 531.355469 622.976562 531.355469 L 595.390625 531.355469 L 659.113281 507.542969 L 659.113281 614.90625 L 643.898438 614.90625 L 643.898438 618.707031 L 670.53125 618.707031 L 670.53125 614.90625 L 662.917969 614.90625 L 662.917969 505.867188 L 704.160156 490.449219 C 705.148438 490.070312 705.640625 489.003906 705.261719 488.015625 L 697.878906 468.191406 "/>
<path style=" stroke:none;fill-rule:nonzero;fill:rgb(6.269836%,5.879211%,5.099487%);fill-opacity:1;" d="M 245.9375 214.933594 C 244.523438 212.953125 241.226562 214.84375 242.648438 216.847656 C 250.121094 227.324219 266.234375 227.789062 276.839844 222.074219 C 279.003906 220.914062 277.078125 217.632812 274.921875 218.800781 C 266.308594 223.4375 252.136719 223.621094 245.9375 214.933594 "/>
<path style=" stroke:none;fill-rule:nonzero;fill:rgb(6.269836%,5.879211%,5.099487%);fill-opacity:1;" d="M 229.886719 138.75 C 234.511719 137.527344 239.257812 137.234375 244.023438 137.160156 C 246.773438 137.117188 252.128906 137.945312 254.058594 135.367188 C 256.007812 132.761719 248.511719 130.632812 247.230469 130.296875 C 241.019531 128.679688 234.332031 129.21875 228.476562 131.828125 C 226.679688 132.628906 218.3125 136.789062 220.449219 139.917969 C 221.949219 142.09375 228.101562 139.21875 229.886719 138.75 "/>
<path style=" stroke:none;fill-rule:nonzero;fill:rgb(6.269836%,5.879211%,5.099487%);fill-opacity:1;" d="M 248.328125 157.539062 C 249.175781 162.121094 247.511719 166.277344 244.613281 166.800781 C 241.726562 167.332031 238.691406 164.042969 237.847656 159.460938 C 237.011719 154.875 238.667969 150.726562 241.5625 150.195312 C 244.457031 149.664062 247.484375 152.953125 248.328125 157.539062 "/>
</g>
</svg>
