<?xml version="1.0" encoding="UTF-8"?>
<svg xmlns="http://www.w3.org/2000/svg" xmlns:xlink="http://www.w3.org/1999/xlink" width="735pt" height="809.999993pt" viewBox="0 0 735 809.999993" version="1.2">
<defs>
<clipPath id="clip1">
  <path d="M 18 10.652344 L 721.269531 10.652344 L 721.269531 799.652344 L 18 799.652344 Z M 18 10.652344 "/>
</clipPath>
</defs>
<g id="surface1">
<rect x="0" y="0" width="735" height="809.999993" style="fill:rgb(100%,100%,100%);fill-opacity:1;stroke:none;"/>
<rect x="0" y="0" width="735" height="809.999993" style="fill:rgb(100%,100%,100%);fill-opacity:1;stroke:none;"/>
<rect x="0" y="0" width="735" height="809.999993" style="fill:rgb(100%,100%,100%);fill-opacity:1;stroke:none;"/>
<path style=" stroke:none;fill-rule:nonzero;fill:rgb(100%,100%,100%);fill-opacity:1;" d="M 718.75 669.554688 C 715.175781 588.507812 696.023438 503.742188 672.1875 463.445312 C 638.480469 407.835938 585.082031 399.496094 523.257812 389.839844 L 515.921875 388.722656 C 514.214844 388.457031 510.71875 388.136719 505.609375 387.710938 L 495.582031 386.792969 L 495.3125 384.988281 C 495.238281 384.488281 495.132812 384.085938 495.007812 383.792969 C 492.4375 377.8125 476.980469 374.296875 471.113281 372.960938 L 469.488281 372.546875 C 464.335938 370.945312 457.65625 369.105469 451.703125 369.105469 C 447.484375 369.105469 444.273438 370.128906 442.164062 372.144531 L 439.519531 374.671875 L 438.339844 371.203125 C 435.824219 363.773438 436.621094 346.246094 436.960938 338.707031 L 437.027344 337.113281 C 437.066406 336.429688 437.097656 335.808594 437.097656 335.226562 L 437.097656 334.074219 L 438.015625 333.378906 C 444.480469 328.433594 450.136719 323.039062 454.347656 317.78125 C 463.652344 306.023438 470.644531 290.710938 474.578125 273.488281 C 476.714844 264.167969 478.496094 255.136719 480.015625 245.875 L 480.175781 244.90625 L 480.976562 244.347656 C 489.378906 238.460938 494.984375 229.210938 496.328125 218.976562 C 497.277344 211.839844 493.394531 205.882812 489.089844 204.25 L 489.632812 199.753906 C 544.007812 193.15625 553.125 184.527344 553.722656 179.976562 L 553.792969 179.484375 C 553.792969 178.101562 553.039062 176.746094 551.480469 175.332031 L 551.269531 175.144531 L 551.109375 174.910156 C 545.8125 167.046875 499.855469 138.796875 499.855469 138.796875 L 498.40625 138.332031 C 498.40625 138.332031 495.742188 136.984375 495.527344 136.011719 C 495.101562 134.1875 494.675781 132.25 494.238281 130.253906 L 496.207031 128.316406 L 495.605469 125.726562 L 491.230469 116.839844 C 489.816406 110.605469 488.382812 104.453125 486.933594 98.796875 C 488.023438 98.230469 489.003906 97.515625 488.835938 96.863281 C 488.46875 95.457031 487.160156 90.859375 487.160156 90.785156 C 487.160156 90.703125 481.683594 75.5 481.011719 73.945312 C 480.691406 73.199219 480.1875 72.023438 479.839844 71.269531 C 478.78125 68.953125 470.773438 53.652344 470.316406 52.941406 C 469.507812 51.679688 468.40625 49.957031 468.40625 49.957031 L 455.59375 32.675781 C 455.59375 32.675781 455.277344 32.4375 454.96875 31.992188 C 454.753906 31.683594 454.175781 31.066406 454.175781 31.066406 L 450.382812 30.390625 C 447.75 27.570312 445.351562 25.242188 442.996094 23.214844 C 435.5625 16.808594 425.074219 13.140625 414.210938 13.140625 L 413.597656 13.140625 C 407.808594 13.1875 403.394531 14.199219 399.300781 16.40625 C 397.992188 17.109375 396.667969 17.9375 395.3125 18.769531 C 391.1875 21.308594 386.519531 24.195312 381.03125 24.65625 C 375.867188 24.1875 371.148438 21.269531 366.992188 18.699219 C 365.679688 17.886719 364.390625 17.089844 363.152344 16.40625 C 359.101562 14.230469 354.539062 13.1875 348.785156 13.140625 L 348.183594 13.140625 C 337.3125 13.140625 326.835938 16.808594 319.4375 23.214844 C 306.496094 34.324219 283.765625 68.847656 283.765625 68.847656 L 280.921875 75.242188 C 280.921875 75.242188 283.476562 75.15625 283.082031 76.136719 C 280.972656 81.214844 279.300781 85.679688 277.976562 89.710938 C 274.855469 100.328125 271.710938 114.402344 268.941406 126.820312 L 266.863281 136.050781 L 264.3125 136.929688 C 227.800781 147.992188 213.207031 166.253906 207.347656 174.828125 L 207.195312 175.050781 L 206.992188 175.234375 C 205.417969 176.664062 204.617188 177.992188 204.542969 179.28125 L 204.648438 179.660156 L 204.648438 180.117188 C 205.402344 184.585938 214.554688 193.066406 267.347656 199.613281 L 267.640625 204.1875 C 263.238281 205.316406 259.539062 211.117188 259.21875 217.40625 C 258.671875 227.511719 265.046875 238.570312 275.460938 245.574219 L 276.292969 246.136719 L 276.457031 247.128906 C 277.949219 256.195312 279.652344 264.816406 281.65625 273.488281 C 285.597656 290.726562 292.605469 306.042969 301.929688 317.78125 C 306.742188 323.878906 312.65625 329.445312 319.507812 334.304688 L 320.4375 334.96875 L 320.683594 341.035156 C 320.832031 344.179688 321.046875 348.75 321.046875 353.429688 C 321.046875 362.25 320.417969 368.199219 319.136719 371.578125 C 318.613281 373.015625 317.929688 374.070312 317.097656 374.765625 C 316.714844 375.109375 316.261719 375.425781 315.492188 375.957031 L 314.917969 376.355469 L 314.222656 376.382812 C 285.742188 377.316406 265.136719 380.609375 261.730469 384.765625 L 260.847656 385.574219 L 259.824219 385.628906 C 259.046875 385.671875 258.277344 385.714844 257.414062 385.800781 L 250.984375 386.207031 C 237.179688 387.085938 224.136719 387.917969 220.976562 388.304688 C 154.261719 396.757812 124.972656 445.128906 91.046875 501.140625 L 87.835938 506.441406 C 78.667969 521.964844 71.144531 535.917969 64.832031 549.097656 C 60.449219 558.238281 56.667969 566.335938 53.285156 573.878906 L 51.367188 578.070312 C 35.070312 614 16.605469 654.726562 22.019531 695.3125 C 26.394531 727.910156 49.878906 758.894531 79.136719 770.675781 C 110.988281 783.519531 143.691406 790.664062 171.230469 790.8125 C 177.777344 790.851562 185.042969 791.21875 192.738281 791.609375 L 194.578125 791.699219 C 199.40625 791.929688 204.320312 792.167969 209.292969 792.347656 L 209.59375 792.367188 L 209.890625 792.457031 C 220.5625 795.738281 236.492188 797.625 253.570312 797.625 C 272.339844 797.625 288.960938 795.296875 296.960938 791.539062 L 297.425781 791.320312 L 714.410156 791.355469 L 714.988281 791.230469 C 714.988281 791.230469 715.617188 791.25 715.734375 791.25 C 715.867188 791.25 715.953125 791.226562 715.945312 791.132812 C 715.945312 777.476562 716.679688 753.949219 717.394531 731.203125 L 717.488281 728.351562 C 718.335938 701.832031 719.078125 677.378906 718.75 669.554688 "/>
<path style=" stroke:none;fill-rule:nonzero;fill:rgb(6.269836%,5.879211%,5.099487%);fill-opacity:1;" d="M 397.773438 290.960938 C 386.925781 298.558594 368.664062 300.929688 358.964844 290.285156 C 356.796875 287.898438 353.28125 291.441406 355.4375 293.8125 C 366.582031 306.046875 387.648438 304.125 400.289062 295.257812 C 402.902344 293.433594 400.417969 289.105469 397.773438 290.960938 "/>
<path style=" stroke:none;fill-rule:nonzero;fill:rgb(6.269836%,5.879211%,5.099487%);fill-opacity:1;" d="M 356.722656 187.234375 C 359.769531 184.25 350.488281 179.96875 348.902344 179.285156 C 341.183594 175.925781 332.410156 175.277344 324.296875 177.484375 C 321.8125 178.164062 310.128906 181.875 312.273438 186.363281 C 313.773438 189.5 322.316406 187.003906 324.730469 186.757812 C 330.96875 186.105469 337.175781 186.675781 343.359375 187.539062 C 346.925781 188.035156 353.707031 190.191406 356.722656 187.234375 "/>
<path style=" stroke:none;fill-rule:nonzero;fill:rgb(6.269836%,5.879211%,5.099487%);fill-opacity:1;" d="M 414.511719 186.757812 C 420.75 186.105469 426.953125 186.675781 433.144531 187.539062 C 436.707031 188.035156 443.484375 190.191406 446.503906 187.234375 C 449.550781 184.25 440.269531 179.96875 438.6875 179.285156 C 430.96875 175.925781 422.195312 175.277344 414.078125 177.484375 C 411.59375 178.164062 399.910156 181.875 402.058594 186.363281 C 403.554688 189.5 412.101562 187.003906 414.511719 186.757812 "/>
<path style=" stroke:none;fill-rule:nonzero;fill:rgb(6.269836%,5.879211%,5.099487%);fill-opacity:1;" d="M 335.0625 225.242188 C 331.207031 225.222656 328.109375 220.242188 328.136719 214.117188 C 328.175781 207.996094 331.324219 203.046875 335.179688 203.066406 C 339.039062 203.089844 342.140625 208.070312 342.109375 214.191406 C 342.074219 220.316406 338.921875 225.265625 335.0625 225.242188 "/>
<path style=" stroke:none;fill-rule:nonzero;fill:rgb(6.269836%,5.879211%,5.099487%);fill-opacity:1;" d="M 424.832031 225.234375 C 420.980469 225.214844 417.878906 220.234375 417.910156 214.113281 C 417.941406 207.984375 421.097656 203.039062 424.949219 203.058594 C 428.808594 203.078125 431.90625 208.058594 431.875 214.1875 C 431.84375 220.308594 428.691406 225.253906 424.832031 225.234375 "/>
<path style=" stroke:none;fill-rule:nonzero;fill:rgb(6.269836%,5.879211%,5.099487%);fill-opacity:1;" d="M 381.433594 267.664062 C 384.644531 267.613281 384.644531 262.625 381.433594 262.675781 C 368.097656 262.886719 375.75 245.980469 376.914062 239.617188 C 379.164062 227.324219 382.414062 215.425781 382.445312 202.847656 C 382.449219 199.636719 377.460938 199.636719 377.457031 202.855469 C 377.417969 220.085938 371.050781 236.023438 368.964844 252.886719 C 367.78125 262.472656 371.53125 267.816406 381.433594 267.664062 "/>
<g clip-path="url(#clip1)" clip-rule="nonzero">
<path style=" stroke:none;fill-rule:nonzero;fill:rgb(6.269836%,5.879211%,5.099487%);fill-opacity:1;" d="M 714.828125 728.242188 C 714.125 750.867188 713.378906 774.105469 713.289062 788.660156 L 560.332031 788.660156 C 568.589844 733.042969 572.789062 676.960938 572.886719 620.738281 C 572.886719 617.515625 567.933594 617.515625 567.890625 620.738281 C 567.800781 676.960938 563.644531 733.042969 555.339844 788.660156 L 380.59375 788.660156 L 380.59375 758.703125 L 425.480469 758.703125 C 439.246094 758.703125 450.394531 747.558594 450.394531 733.789062 L 450.394531 604.128906 C 450.394531 602.355469 450.167969 600.671875 449.789062 599.042969 C 449.882812 599.507812 449.976562 599.976562 450.023438 600.445312 C 449.230469 601.140625 448.207031 601.933594 446.851562 602.914062 C 442.976562 599.277344 445.5 596.101562 447.175781 592.742188 C 447.410156 592.929688 447.554688 593.070312 447.738281 593.210938 C 443.730469 584.90625 435.285156 579.167969 425.480469 579.167969 L 380.59375 579.167969 L 380.59375 540.066406 C 389.503906 532.460938 396.96875 522.753906 404.152344 513.328125 C 409.707031 506.003906 415.449219 498.445312 421.75 492.195312 C 429.402344 484.496094 434.070312 478.476562 433.601562 472.269531 C 433.316406 467.976562 430.660156 464.246094 426.503906 460.417969 L 427.25 460.417969 C 443.957031 460.417969 452.121094 450.898438 462.671875 436.386719 C 471.671875 423.933594 493.417969 393.558594 496.308594 389.542969 C 499.578125 389.820312 502.660156 390.105469 505.410156 390.339844 C 510.121094 390.757812 513.855469 391.085938 515.492188 391.320312 L 522.863281 392.484375 C 586.554688 402.421875 636.855469 410.308594 669.894531 464.757812 C 689.867188 498.539062 712.121094 579.726562 716.085938 669.640625 C 716.414062 677.429688 715.667969 702.113281 714.828125 728.242188 Z M 425.480469 706.453125 L 425.480469 708.878906 C 425.480469 712.890625 423.058594 716.34375 419.605469 717.925781 C 418.714844 715.640625 417.035156 713.730469 414.886719 712.515625 C 414.753906 712.472656 414.609375 712.421875 414.519531 712.378906 C 416.195312 711.492188 417.871094 710.695312 419.597656 709.765625 C 420.441406 709.246094 421.421875 708.734375 422.402344 708.175781 C 423.378906 707.664062 424.40625 707.058594 425.480469 706.453125 Z M 388.777344 679.457031 C 388.691406 679.507812 388.597656 679.542969 388.515625 679.597656 C 388.597656 679.542969 388.691406 679.507812 388.777344 679.457031 Z M 360.484375 742.707031 C 360.390625 742.753906 349.144531 745.457031 342.890625 745.128906 C 331.644531 744.011719 324.414062 743.03125 316.570312 741.347656 C 317.226562 734.820312 317.652344 728.191406 317.878906 721.757812 C 318.019531 718.816406 318.164062 715.78125 318.304688 712.707031 C 318.765625 703.605469 319.234375 693.945312 318.632812 684.097656 C 318.019531 674.535156 316.386719 664.832031 312.75 655.40625 C 315.40625 654.285156 318.070312 652.984375 320.492188 650.972656 C 325.488281 646.816406 329.21875 639.820312 332.015625 629.648438 C 333.792969 623.210938 336.449219 619.011719 338.921875 618.730469 C 340.1875 618.59375 341.863281 618.964844 342.566406 620.179688 C 344.804688 623.863281 343.730469 630.351562 343.035156 634.683594 C 342.515625 637.910156 341.863281 640.332031 341.300781 642.667969 C 340.320312 646.449219 339.441406 649.992188 339.25 655.734375 L 339.207031 656.992188 C 339.113281 660.722656 338.972656 663.988281 340.746094 668.234375 C 343.3125 674.445312 353.109375 672.945312 357.214844 672.015625 C 363.65625 670.574219 370.046875 668.890625 376.394531 667.207031 C 385.957031 664.691406 395.855469 662.078125 405.742188 660.300781 C 412.414062 659.085938 415.171875 659.839844 416.292969 660.675781 C 416.621094 660.953125 416.988281 661.375 417.082031 662.3125 C 417.457031 666.554688 411.625 670.105469 409.800781 671.085938 C 407.746094 672.199219 405.601562 673.179688 403.457031 674.160156 C 399.492188 675.511719 395.570312 676.960938 391.699219 678.359375 L 389.269531 679.246094 C 389.191406 679.289062 389.109375 679.296875 389.03125 679.328125 C 389.035156 679.328125 389.042969 679.320312 389.054688 679.316406 L 389.261719 679.234375 C 383.246094 681 377.234375 682.371094 371.613281 683.574219 C 370.378906 683.839844 369.121094 684.082031 367.855469 684.328125 C 364.730469 684.929688 361.488281 685.554688 358.417969 686.535156 C 357.457031 686.835938 356.828125 687.675781 356.710938 688.617188 C 356.671875 688.957031 356.683594 689.316406 356.800781 689.667969 C 357.140625 690.726562 358.121094 691.40625 359.175781 691.40625 C 359.429688 691.40625 359.679688 691.363281 359.933594 691.289062 C 362.722656 690.394531 365.816406 689.800781 368.804688 689.230469 C 370.101562 688.976562 371.394531 688.722656 372.660156 688.457031 C 376.582031 687.613281 380.695312 686.683594 384.867188 685.609375 C 385.34375 683.828125 386.222656 682.207031 387.574219 680.894531 C 387.726562 680.417969 388.019531 680 388.414062 679.683594 C 388.03125 679.992188 387.753906 680.398438 387.59375 680.882812 C 386.242188 682.1875 385.355469 683.816406 384.886719 685.589844 C 383.578125 690.398438 385.261719 696.277344 388.808594 700.054688 C 380.6875 702.292969 372.566406 704.160156 365.242188 705.84375 C 363.886719 706.121094 363.046875 707.476562 363.375 708.828125 C 363.609375 709.949219 364.632812 710.738281 365.796875 710.738281 C 365.988281 710.738281 366.171875 710.738281 366.359375 710.695312 C 378.910156 707.847656 393.753906 704.488281 407 699.359375 C 412.089844 697.675781 415.632812 696.089844 418.523438 694.828125 C 420.71875 693.894531 422.589844 693.058594 424.5 692.445312 C 426.597656 691.792969 428.09375 692.261719 428.789062 692.964844 C 429.585938 693.660156 429.535156 694.640625 429.402344 695.34375 C 428.421875 699.257812 424.125 701.546875 420.015625 703.785156 C 418.945312 704.394531 417.964844 704.90625 417.125 705.417969 C 395.804688 716.757812 377.652344 722.871094 363.183594 723.617188 C 361.785156 723.660156 360.761719 724.832031 360.804688 726.230469 C 360.894531 727.539062 361.976562 728.613281 363.324219 728.613281 C 363.375 728.613281 363.375 728.613281 363.417969 728.5625 C 374.898438 728 388.011719 724.414062 403.171875 717.738281 C 405.410156 716.664062 407.464844 716.101562 409.238281 716.101562 C 410.453125 716.101562 411.527344 716.386719 412.457031 716.898438 C 414.371094 717.925781 415.214844 719.796875 415.398438 721.195312 C 415.632812 722.964844 411.710938 725.671875 408.726562 727.019531 C 388.617188 738.457031 360.996094 742.613281 360.484375 742.707031 Z M 375.601562 788.660156 L 303.789062 788.660156 C 309.949219 780.40625 313.863281 764.117188 316.015625 746.34375 C 323.851562 747.976562 331.179688 749 342.566406 750.074219 C 342.890625 750.074219 343.261719 750.121094 343.636719 750.121094 C 346.019531 750.121094 348.726562 749.84375 351.339844 749.46875 C 355.90625 755.066406 362.8125 758.703125 370.605469 758.703125 L 375.601562 758.703125 Z M 296.367188 788.945312 C 288.949219 792.632812 272.566406 794.960938 253.578125 794.960938 C 236.550781 794.960938 220.777344 793.09375 210.328125 789.832031 C 208.457031 789.222656 206.964844 787.730469 205.703125 785.164062 C 193.710938 760.621094 216.019531 665.488281 223.484375 645.515625 C 225.671875 639.683594 234.539062 636.417969 248.351562 636.417969 C 272.289062 636.417969 303.832031 646.683594 307.5625 655.691406 C 315.171875 674.210938 314.191406 694.554688 313.304688 712.472656 C 313.164062 715.546875 313.027344 718.582031 312.929688 721.570312 C 311.441406 762.859375 303.320312 785.441406 296.367188 788.945312 Z M 194.691406 789.039062 C 186.292969 788.617188 178.363281 788.199219 171.226562 788.199219 C 143.972656 788.015625 111.636719 780.917969 80.140625 768.230469 C 52.191406 756.984375 28.855469 726.140625 24.65625 694.925781 C 19.34375 655.128906 37.628906 614.765625 53.777344 579.167969 L 55.6875 574.960938 C 59.425781 566.65625 63.296875 558.445312 67.210938 550.234375 C 73.421875 537.3125 80.886719 523.410156 90.125 507.824219 L 93.347656 502.503906 C 128.292969 444.789062 155.871094 399.203125 221.289062 390.945312 C 224.882812 390.523438 242.238281 389.402344 257.542969 388.421875 C 258.195312 388.421875 258.851562 388.378906 259.460938 388.328125 C 260.765625 390.199219 283.628906 423.558594 292.914062 436.4375 C 298.234375 443.710938 302.945312 449.777344 308.410156 453.976562 C 314.007812 458.273438 320.351562 460.605469 329.074219 460.417969 C 324.925781 464.246094 322.3125 468.027344 321.984375 472.269531 C 321.515625 478.476562 326.183594 484.496094 333.882812 492.195312 C 340.136719 498.445312 345.917969 506.003906 351.476562 513.328125 C 358.800781 522.988281 366.40625 532.929688 375.601562 540.578125 L 375.601562 579.167969 L 370.605469 579.167969 C 363.84375 579.167969 357.777344 581.875 353.25 586.257812 C 353.203125 586.632812 353.15625 587.050781 353.058594 587.519531 C 352.734375 587.472656 352.503906 587.429688 352.222656 587.378906 C 348.207031 591.8125 345.640625 597.644531 345.640625 604.128906 L 345.640625 616.214844 C 343.871094 614.445312 341.210938 613.464844 338.367188 613.792969 C 332.25 614.488281 328.941406 622.09375 327.214844 628.347656 C 324.691406 637.488281 321.472656 643.648438 317.316406 647.152344 C 315.265625 648.828125 312.933594 649.949219 310.414062 650.972656 C 306.726562 646.355469 298.980469 642.15625 289.554688 638.796875 C 276.910156 634.320312 261.277344 631.421875 248.355469 631.421875 C 233.375 631.421875 223.621094 635.066406 219.746094 641.921875 C 203.464844 639.59375 187.273438 636.558594 171.550781 632.21875 C 170.195312 631.890625 168.839844 632.636719 168.46875 633.996094 C 168.097656 635.300781 168.886719 636.699219 170.238281 637.027344 C 185.78125 641.320312 201.789062 644.351562 217.835938 646.683594 C 210.371094 669.542969 188.4375 761.273438 201.226562 787.359375 C 201.597656 788.105469 202.015625 788.761719 202.441406 789.414062 C 199.828125 789.273438 197.210938 789.179688 194.691406 789.039062 Z M 314.007812 379.042969 C 320.402344 390.199219 366.457031 471.757812 374.621094 533.0625 C 367.621094 526.300781 361.464844 518.230469 355.4375 510.296875 C 349.75 502.878906 343.914062 495.179688 337.378906 488.648438 C 329.585938 480.855469 326.695312 476.375 326.980469 472.644531 C 327.214844 469 330.710938 464.992188 338.59375 459.15625 C 339.527344 458.457031 339.851562 457.242188 339.390625 456.171875 C 339.019531 455.242188 338.082031 454.628906 337.101562 454.628906 C 336.960938 454.628906 336.824219 454.679688 336.683594 454.679688 C 333.699219 455.191406 330.894531 455.425781 328.328125 455.425781 C 313.679688 455.425781 306.867188 447.070312 296.972656 433.496094 C 288.296875 421.453125 267.625 391.40625 264.027344 386.140625 C 267.347656 382.730469 291.796875 379.789062 314.007812 379.042969 Z M 355.113281 613.367188 C 356.328125 612.292969 357.449219 611.078125 358.800781 610.289062 C 360.53125 609.257812 362.394531 608.5625 365.570312 607.113281 C 363.324219 613.785156 360.25 615.277344 355.113281 613.367188 Z M 345.640625 666.746094 C 345.550781 666.652344 345.40625 666.511719 345.363281 666.324219 C 344.015625 663.105469 344.105469 660.726562 344.199219 657.132812 L 344.242188 655.875 C 344.382812 651.578125 344.945312 648.6875 345.640625 645.746094 Z M 404.984375 678.914062 C 405.066406 678.882812 405.144531 678.859375 405.230469 678.828125 C 409.523438 677.335938 413.863281 675.9375 418.246094 674.769531 C 421.65625 673.835938 424.734375 675.425781 425.855469 678.410156 C 426.695312 682.464844 423.945312 686.015625 417.550781 689 C 410.738281 692.78125 402.804688 695.765625 394.6875 698.285156 C 389.601562 696.1875 387.03125 686.480469 392.308594 683.539062 L 392.351562 683.496094 C 392.445312 683.445312 392.496094 683.402344 392.539062 683.351562 L 393.382812 683.027344 C 395.355469 682.324219 397.335938 681.601562 399.324219 680.894531 C 397.335938 681.601562 395.363281 682.324219 393.402344 683.039062 L 392.550781 683.351562 C 392.476562 683.394531 392.4375 683.464844 392.363281 683.507812 C 392.339844 683.519531 392.328125 683.539062 392.304688 683.558594 C 396.570312 682.253906 400.832031 680.714844 404.984375 678.914062 Z M 401.078125 644.019531 C 401.125 643.925781 401.21875 643.785156 401.3125 643.691406 C 401.496094 643.785156 401.636719 643.925781 401.824219 644.019531 L 415.492188 644.019531 C 421.003906 644.019531 425.480469 648.5 425.480469 654.007812 L 425.480469 670.851562 C 423.703125 669.871094 421.652344 669.402344 419.503906 669.542969 C 421.1875 667.398438 422.304688 664.875 422.070312 661.84375 C 421.886719 659.742188 420.90625 657.972656 419.320312 656.707031 C 415.542969 653.863281 409.238281 654.609375 404.855469 655.398438 C 394.964844 657.175781 385.121094 659.742188 375.601562 662.261719 L 375.601562 654 C 375.601562 648.496094 380.035156 644.019531 385.582031 644.019531 Z M 400.933594 630.863281 C 399.628906 632.3125 398.277344 633.710938 396.925781 635.109375 C 396.367188 634.507812 395.804688 633.851562 395.246094 633.242188 C 396.601562 631.800781 397.949219 630.398438 399.308594 629 C 399.863281 629.648438 400.421875 630.257812 400.933594 630.863281 Z M 391.089844 610.472656 C 391.089844 606.644531 394.222656 603.519531 398.042969 603.519531 C 401.871094 603.519531 405 606.644531 405 610.472656 C 405 614.296875 401.871094 617.429688 398.042969 617.429688 C 394.222656 617.429688 391.089844 614.296875 391.089844 610.472656 Z M 318.765625 376.851562 C 324.363281 372.140625 324.085938 355.902344 323.292969 339.710938 C 323.292969 339.660156 323.292969 339.660156 323.292969 339.617188 C 339.902344 349.925781 360.199219 355.902344 380.964844 355.902344 C 396.273438 355.902344 410.738281 352.496094 422.773438 346.105469 C 426.277344 344.242188 430.238281 341.8125 434.296875 339.015625 C 433.601562 354.273438 433.367188 369.390625 437.566406 375.40625 L 379.003906 529.007812 C 369.675781 467.886719 325.714844 389.5 318.582031 376.992188 C 318.625 376.941406 318.71875 376.898438 318.765625 376.851562 Z M 303.976562 316.148438 C 294.925781 304.667969 288.113281 289.742188 284.238281 272.898438 C 282.464844 265.148438 280.972656 257.78125 279.707031 250.59375 C 280.316406 250.871094 280.878906 251.152344 281.484375 251.386719 C 284.46875 252.554688 285.773438 247.742188 282.789062 246.578125 C 282.414062 246.441406 282.085938 246.207031 281.761719 246.019531 C 274.621094 242.890625 269.304688 237.386719 265.433594 230.714844 C 263.046875 226.609375 262.023438 221.992188 261.882812 217.277344 C 261.605469 209.347656 268.417969 202.394531 274.855469 210.5625 C 275.464844 211.351562 276.253906 211.492188 276.957031 211.308594 C 277.144531 211.257812 277.335938 211.214844 277.46875 211.117188 C 296.507812 205.425781 306.492188 179.25 310.320312 158.113281 C 330.710938 156.765625 353.761719 156.019531 379.1875 156.019531 C 404.480469 156.019531 427.441406 156.765625 447.785156 158.070312 C 447.601562 178.507812 459.03125 204.773438 478.300781 210.703125 C 478.441406 210.796875 478.585938 210.839844 478.769531 210.886719 C 479.328125 211.03125 479.890625 210.9375 480.402344 210.5625 C 480.453125 210.5625 480.453125 210.511719 480.496094 210.511719 C 480.636719 210.371094 480.773438 210.328125 480.914062 210.140625 C 486.746094 202.953125 492.722656 207.621094 493.703125 214.996094 C 494.304688 219.613281 492.863281 224.324219 491.039062 228.519531 C 487.683594 236.078125 481.054688 242.378906 473.449219 245.597656 C 473.078125 245.742188 472.75 245.925781 472.375 246.066406 C 469.390625 247.1875 470.648438 251.992188 473.683594 250.875 C 474.710938 250.5 475.691406 249.988281 476.714844 249.476562 C 475.410156 256.984375 473.875 264.730469 472.003906 272.898438 C 468.132812 289.742188 461.320312 304.667969 452.269531 316.148438 C 447.785156 321.792969 442.046875 327.023438 436.171875 331.457031 C 435.746094 331.640625 435.375 331.917969 435.09375 332.292969 C 429.960938 336.074219 424.828125 339.339844 420.441406 341.671875 C 409.105469 347.6875 395.476562 350.914062 380.964844 350.914062 C 350.914062 350.90625 320.679688 337.238281 303.976562 316.148438 Z M 207.335938 180.09375 C 207.710938 179.296875 208.550781 177.804688 209.949219 175.886719 C 217.277344 170.800781 239.253906 165.296875 273.085938 161.375 C 274.054688 161.269531 275.070312 161.167969 276.070312 161.054688 C 275.078125 161.167969 274.066406 161.277344 273.085938 161.394531 L 272.828125 162.761719 C 270.835938 173.367188 269.824219 184.890625 269.761719 197.214844 C 222.730469 191.566406 208.550781 184.058594 207.335938 180.09375 Z M 290.582031 175.753906 C 287.507812 182.417969 282.519531 193.507812 274.738281 196.503906 C 274.835938 184.761719 275.828125 173.792969 277.730469 163.679688 L 278.257812 160.820312 L 278.265625 160.820312 C 284.324219 160.167969 290.769531 159.558594 297.53125 159.003906 C 295.292969 164.648438 293.148438 170.246094 290.582031 175.753906 Z M 270.328125 197.304688 C 270.292969 197.300781 270.25 197.292969 270.207031 197.289062 C 270.257812 197.292969 270.300781 197.300781 270.34375 197.304688 C 271.296875 197.335938 272.214844 197.226562 273.097656 197.023438 C 272.222656 197.226562 271.304688 197.335938 270.328125 197.304688 Z M 272.148438 202.160156 C 272.625 202.132812 273.09375 202.097656 273.566406 202.035156 C 273.109375 202.097656 272.65625 202.144531 272.191406 202.175781 C 272.179688 202.171875 272.160156 202.164062 272.148438 202.160156 Z M 305.191406 158.441406 C 301.59375 177.246094 293.007812 200.15625 277.335938 205.84375 C 276.488281 204.957031 275.652344 204.167969 274.8125 203.558594 C 274.675781 203.460938 274.542969 203.398438 274.410156 203.3125 C 274.546875 203.398438 274.683594 203.460938 274.820312 203.550781 C 274.804688 202.976562 274.804688 202.410156 274.800781 201.832031 C 274.800781 201.832031 274.804688 201.832031 274.8125 201.832031 C 290.347656 198.195312 297.675781 172.671875 303.136719 158.582031 C 303.789062 158.535156 304.488281 158.492188 305.191406 158.441406 Z M 312.65625 135.4375 C 316.058594 137.117188 319.605469 138.890625 323.761719 140.945312 C 322.871094 143.273438 322.125 145.144531 321.238281 147.429688 C 317.324219 146.867188 313.863281 146.355469 311.207031 145.9375 C 306.960938 140.945312 309.15625 138.238281 312.65625 135.4375 Z M 346.949219 148.828125 C 346.4375 149.996094 346.296875 151.019531 345.875 151.160156 C 345.128906 151.394531 344.335938 151.53125 343.636719 151.578125 L 343.3125 151.578125 C 341.117188 151.628906 339.484375 150.136719 339.296875 144.625 C 342.84375 146.589844 344.894531 147.707031 346.949219 148.828125 Z M 416.800781 146.632812 C 418.296875 146.726562 419.832031 146.824219 421.375 146.917969 C 421.28125 147.984375 421.1875 149.015625 421.097656 150.085938 C 419.554688 149.667969 418.011719 149.25 416.472656 148.78125 C 416.570312 148.082031 416.707031 147.335938 416.800781 146.632812 Z M 461.457031 159.09375 C 461.96875 175.007812 468.128906 193.199219 481.425781 201.460938 C 481.433594 201.46875 481.445312 201.46875 481.449219 201.472656 C 481.445312 201.96875 481.4375 202.453125 481.433594 202.953125 C 481.433594 202.953125 481.433594 202.953125 481.425781 202.953125 C 480.445312 203.605469 479.464844 204.445312 478.484375 205.476562 C 462.4375 199.550781 452.640625 176.078125 452.730469 158.390625 C 455.714844 158.625 458.609375 158.859375 461.457031 159.09375 Z M 471.117188 145.328125 C 465.890625 150.832031 465.890625 150.832031 458.003906 143.324219 C 462.90625 144.070312 466.542969 144.632812 471.117188 145.328125 Z M 485.496094 197.589844 C 485.28125 197.613281 485.0625 197.644531 484.835938 197.683594 C 484.828125 197.675781 484.824219 197.675781 484.816406 197.671875 C 485.050781 197.644531 485.273438 197.613281 485.496094 197.589844 Z M 482.5 196.136719 C 483.152344 196.617188 483.824219 197.070312 484.527344 197.484375 C 483.820312 197.066406 483.148438 196.617188 482.5 196.136719 Z M 482.78125 202.300781 C 482.429688 202.4375 482.109375 202.613281 481.777344 202.789062 C 482.105469 202.601562 482.4375 202.4375 482.769531 202.292969 C 482.769531 202.292969 482.777344 202.300781 482.78125 202.300781 Z M 483.109375 161.148438 C 518.199219 165.070312 540.96875 170.714844 548.433594 175.894531 C 549.832031 177.804688 550.671875 179.25 551.046875 180 C 549.882812 183.871094 535.28125 191.757812 486.476562 197.449219 C 486.425781 185.039062 485.421875 173.433594 483.410156 162.761719 L 483.117188 161.148438 C 481.414062 160.960938 479.6875 160.769531 477.9375 160.585938 L 478.515625 163.6875 C 480.347656 173.453125 481.320312 184.046875 481.46875 195.347656 C 471.535156 187.410156 467.054688 172.628906 466.5 159.46875 C 470.414062 159.847656 474.242188 160.214844 477.929688 160.585938 C 479.699219 160.769531 481.425781 160.960938 483.109375 161.148438 Z M 527.902344 157.554688 C 530.097656 159.003906 532.101562 160.351562 533.917969 161.75 C 533.828125 162.261719 533.734375 162.773438 533.59375 163.34375 C 531.121094 162.964844 529.492188 162.6875 526.175781 162.121094 C 526.785156 160.542969 527.339844 159.09375 527.902344 157.554688 Z M 442.742188 375.871094 C 443.164062 374.890625 444.46875 371.761719 451.703125 371.761719 C 457.726562 371.761719 464.910156 373.910156 468.78125 375.082031 L 470.554688 375.542969 C 487.960938 379.511719 491.832031 383.058594 492.578125 384.828125 C 492.722656 385.203125 492.8125 385.714844 492.4375 386.324219 C 492.4375 386.324219 468.21875 420.148438 458.65625 433.496094 C 448.71875 447.070312 441.90625 455.425781 427.25 455.425781 C 424.734375 455.425781 421.886719 455.191406 418.902344 454.679688 C 417.730469 454.488281 416.65625 455.097656 416.195312 456.171875 C 415.726562 457.242188 416.101562 458.457031 416.984375 459.15625 C 424.871094 464.988281 428.371094 469 428.65625 472.636719 C 428.933594 476.375 425.992188 480.851562 418.203125 488.644531 C 411.71875 495.179688 405.835938 502.878906 400.1875 510.296875 C 395.058594 517.058594 389.78125 523.964844 383.949219 530.078125 Z M 341.300781 87.984375 C 341.769531 89.199219 342.191406 90.363281 343.027344 92.652344 C 340.554688 92.089844 339.296875 91.855469 335.796875 91.109375 C 338.828125 89.382812 340.09375 88.6875 341.300781 87.984375 Z M 368.085938 29.804688 C 365.9375 32.601562 364.445312 34.515625 362.769531 36.707031 C 361.832031 35.070312 361.179688 34.464844 361.179688 33.859375 C 361.085938 29.847656 363.046875 28.730469 368.085938 29.804688 Z M 369.578125 49.679688 C 368.832031 49.496094 368.085938 49.355469 367.386719 49.167969 C 367.0625 47.117188 366.777344 45.0625 366.082031 40.210938 C 368.738281 43.378906 370.136719 44.402344 370.515625 45.757812 C 370.839844 46.882812 369.953125 48.375 369.578125 49.679688 Z M 386.234375 46.128906 C 386.796875 46.035156 387.359375 45.894531 387.917969 45.757812 C 388.617188 47.4375 389.460938 49.121094 389.832031 50.890625 C 389.832031 51.125 387.726562 51.871094 385.632812 52.847656 C 385.910156 49.722656 386.101562 47.953125 386.234375 46.128906 Z M 398.183594 31.621094 C 399.257812 35.820312 399.910156 38.527344 400.984375 42.867188 C 395.621094 39.835938 394.171875 37.40625 398.183594 31.621094 Z M 408.777344 25.230469 C 413.019531 27.515625 414.191406 28.164062 416.570312 29.476562 C 413.765625 33.910156 411.34375 37.824219 408.402344 42.542969 C 404.4375 35.445312 411.109375 32.367188 408.777344 25.230469 Z M 411.390625 48.1875 C 410.503906 46.597656 409.757812 45.800781 409.851562 45.339844 C 410.738281 41.886719 412.507812 39.882812 417.367188 42.308594 C 415.121094 44.546875 413.304688 46.269531 411.390625 48.1875 Z M 440.363281 76.035156 C 445.59375 81.222656 445.871094 84.296875 442.933594 87.425781 C 441.90625 87.332031 440.925781 87.191406 439.902344 87.097656 C 440.035156 84.113281 440.128906 81.128906 440.363281 76.035156 Z M 480.679688 73.378906 C 480.453125 73.570312 480.21875 73.753906 479.933594 73.988281 C 479.890625 72.867188 479.839844 72.023438 479.839844 71.371094 C 480.167969 72.03125 480.402344 72.726562 480.679688 73.378906 Z M 487.167969 90.785156 C 487.492188 91.8125 487.777344 92.886719 488.054688 93.960938 C 486.980469 94.707031 485.859375 95.5 484.558594 96.429688 C 485.070312 92.277344 485.253906 90.875 487.167969 90.785156 Z M 721.082031 669.449219 C 717.488281 588.074219 698.21875 502.878906 674.1875 462.238281 C 639.9375 405.734375 586.042969 397.289062 523.609375 387.535156 L 516.285156 386.417969 C 514.46875 386.140625 510.824219 385.8125 505.835938 385.394531 C 503.40625 385.160156 500.605469 384.925781 497.625 384.644531 C 497.53125 384.039062 497.390625 383.433594 497.15625 382.875 C 494.449219 376.574219 482.128906 373.078125 471.679688 370.695312 L 470.1875 370.320312 C 466.125 369.0625 458.472656 366.777344 451.707031 366.777344 C 446.109375 366.777344 442.699219 368.410156 440.554688 370.460938 C 438.175781 363.414062 438.96875 345.960938 439.296875 338.78125 C 439.339844 337.429688 439.433594 336.257812 439.433594 335.234375 C 445.550781 330.566406 451.472656 325.113281 456.183594 319.230469 C 465.703125 307.1875 472.84375 291.558594 476.859375 274.019531 C 479.097656 264.265625 480.871094 255.125 482.320312 246.257812 C 491.179688 240.050781 497.203125 230.253906 498.648438 219.285156 C 499.675781 211.542969 495.570312 204.21875 489.921875 202.070312 C 532.617188 196.894531 554.828125 189.5625 556.042969 180.277344 C 556.089844 180.042969 556.132812 179.859375 556.132812 179.625 L 556.132812 179.484375 C 556.132812 177.386719 555.0625 175.425781 553.058594 173.609375 C 547.644531 165.582031 533.363281 150.136719 499.863281 138.796875 C 501.074219 139.308594 501.773438 140.667969 501.351562 141.972656 C 500.984375 142.996094 500.046875 143.652344 498.972656 143.652344 C 498.738281 143.652344 498.460938 143.609375 498.183594 143.558594 C 472.238281 134.785156 439.574219 130.304688 401.175781 130.304688 C 394.824219 134.367188 399.910156 143.417969 390.71875 144.488281 C 391.1875 139.074219 391.515625 134.96875 391.933594 130.304688 L 357.355469 130.304688 C 320.960938 130.304688 289.703125 134.273438 264.453125 142.160156 C 263.148438 142.578125 261.746094 141.832031 261.328125 140.523438 C 260.910156 139.21875 261.65625 137.820312 262.960938 137.394531 C 288.722656 129.371094 320.449219 125.308594 357.355469 125.308594 L 401.035156 125.308594 C 439.390625 125.308594 472.097656 129.699219 498.417969 138.332031 C 498.226562 137.351562 498 136.320312 497.808594 135.480469 C 497.15625 132.683594 496.5 129.605469 495.804688 126.472656 C 495.753906 126.386719 495.753906 126.296875 495.710938 126.195312 C 495.710938 126.296875 495.761719 126.386719 495.761719 126.472656 C 494.128906 127.226562 492.863281 127.789062 489.367188 129.414062 C 490.816406 125.214844 491.371094 123.492188 492.535156 120.179688 C 493.9375 122.746094 494.730469 124.144531 495.621094 125.726562 C 492.914062 113.507812 489.785156 99.605469 486.703125 89.007812 C 482.789062 77.015625 477.28125 64.5625 470.328125 52.941406 C 469.539062 52.429688 468.742188 51.871094 467.8125 51.171875 C 467.996094 50.796875 468.183594 50.378906 468.417969 49.957031 C 464.195312 43.261719 459.464844 36.96875 454.316406 31.214844 C 454.542969 31.476562 454.785156 31.722656 454.976562 31.992188 C 454.558594 31.949219 454.1875 31.992188 453.667969 31.949219 C 453.855469 31.621094 453.996094 31.34375 454.179688 31.066406 C 451.109375 27.652344 447.933594 24.378906 444.527344 21.449219 C 436.078125 14.167969 424.550781 10.671875 413.585938 10.816406 C 408.082031 10.859375 403.042969 11.746094 398.183594 14.359375 C 392.964844 17.207031 387.316406 21.777344 381.25 22.335938 C 375.089844 21.777344 369.449219 17.207031 364.261719 14.359375 C 359.410156 11.746094 354.324219 10.859375 348.824219 10.816406 C 337.855469 10.671875 326.332031 14.167969 317.929688 21.449219 C 303.464844 33.859375 292.03125 51.078125 283.777344 68.855469 C 284.660156 69.179688 285.546875 69.457031 286.386719 69.792969 C 286.527344 70.773438 286.667969 71.753906 286.8125 72.726562 C 285.128906 73.472656 283.402344 74.222656 280.929688 75.246094 C 279.015625 79.867188 277.242188 84.484375 275.75 89.058594 C 271.785156 102.542969 267.769531 121.628906 264.597656 135.53125 C 264.503906 135.949219 264.410156 136.460938 264.320312 136.929688 C 226.894531 148.269531 211.265625 164.976562 205.429688 173.515625 C 203.378906 175.375 202.214844 177.335938 202.214844 179.484375 C 202.214844 179.574219 202.257812 179.625 202.257812 179.667969 C 202.257812 179.953125 202.304688 180.230469 202.355469 180.511719 C 203.890625 189.5625 225.636719 196.792969 267.074219 201.925781 C 261.613281 203.324219 257.269531 209.902344 256.902344 217.277344 C 256.246094 229.265625 264.175781 240.796875 274.164062 247.511719 C 275.566406 256.003906 277.242188 264.730469 279.386719 274.015625 C 283.402344 291.558594 290.539062 307.1875 300.109375 319.222656 C 305.148438 325.617188 311.261719 331.3125 318.167969 336.207031 C 318.210938 337.28125 318.261719 338.496094 318.304688 339.945312 C 318.445312 343.019531 318.722656 348.15625 318.722656 353.429688 C 318.722656 360.097656 318.355469 367.097656 316.953125 370.785156 C 316.578125 371.8125 316.117188 372.558594 315.554688 373.019531 C 315.136719 373.398438 314.625 373.722656 314.15625 374.050781 C 301.417969 374.46875 265.71875 376.246094 259.933594 383.292969 C 259.046875 383.335938 258.160156 383.386719 257.269531 383.476562 C 241.128906 384.5 224.421875 385.53125 220.691406 385.992188 C 152.886719 394.582031 123.304688 443.382812 89.054688 499.9375 L 85.839844 505.253906 C 76.554688 520.980469 68.992188 535.023438 62.742188 548.089844 C 58.769531 556.34375 54.898438 564.605469 51.167969 572.910156 L 49.257812 577.109375 C 32.828125 613.316406 14.210938 654.375 19.71875 695.621094 C 24.195312 728.980469 48.277344 760.757812 78.277344 772.847656 C 110.332031 785.769531 143.324219 793 171.226562 793.144531 C 178.230469 793.1875 186.066406 793.613281 194.417969 794.03125 C 199.273438 794.265625 204.214844 794.5 209.210938 794.683594 C 220.128906 798.042969 236.226562 799.957031 253.585938 799.957031 C 272.859375 799.957031 289.703125 797.527344 297.957031 793.65625 L 375.605469 793.65625 C 375.605469 795.011719 376.722656 796.128906 378.078125 796.128906 C 379.480469 796.128906 380.59375 795.011719 380.59375 793.65625 L 714.785156 793.65625 C 714.929688 793.65625 715.113281 793.5625 715.296875 793.5625 C 715.441406 793.5625 715.625 793.65625 715.808594 793.65625 C 717.167969 793.65625 718.289062 792.539062 718.289062 791.140625 C 718.289062 776.953125 719.078125 752.269531 719.824219 728.425781 C 720.664062 702.207031 721.410156 677.386719 721.082031 669.449219 "/>
</g>
<path style=" stroke:none;fill-rule:nonzero;fill:rgb(6.269836%,5.879211%,5.099487%);fill-opacity:1;" d="M 454.179688 31.0625 C 454.175781 31.066406 454.175781 31.066406 454.175781 31.066406 C 454.21875 31.117188 454.265625 31.167969 454.308594 31.214844 C 454.261719 31.160156 454.222656 31.117188 454.179688 31.0625 "/>
<path style=" stroke:none;fill-rule:nonzero;fill:rgb(6.269836%,5.879211%,5.099487%);fill-opacity:1;" d="M 350.742188 272.40625 C 349.910156 274.902344 349.082031 277.394531 348.25 279.890625 C 347.226562 282.949219 352.042969 284.25 353.054688 281.214844 C 353.890625 278.71875 354.71875 276.226562 355.550781 273.738281 C 356.574219 270.671875 351.753906 269.367188 350.742188 272.40625 "/>
<path style=" stroke:none;fill-rule:nonzero;fill:rgb(6.269836%,5.879211%,5.099487%);fill-opacity:1;" d="M 362.085938 280.554688 C 362.035156 281.148438 362.277344 279.753906 362.308594 279.625 C 362.511719 278.761719 362.738281 277.90625 362.960938 277.042969 C 363.28125 275.808594 363.640625 274.554688 363.746094 273.28125 C 364.007812 270.066406 359.015625 270.09375 358.757812 273.28125 C 358.804688 272.683594 358.566406 274.074219 358.535156 274.210938 C 358.324219 275.074219 358.097656 275.929688 357.882812 276.789062 C 357.558594 278.027344 357.203125 279.273438 357.097656 280.554688 C 356.832031 283.761719 361.828125 283.738281 362.085938 280.554688 "/>
<path style=" stroke:none;fill-rule:nonzero;fill:rgb(6.269836%,5.879211%,5.099487%);fill-opacity:1;" d="M 371.019531 280.550781 C 371.101562 278.175781 371.765625 275.863281 371.851562 273.484375 C 371.96875 270.265625 366.980469 270.277344 366.863281 273.484375 C 366.777344 275.859375 366.117188 278.167969 366.03125 280.550781 C 365.914062 283.765625 370.902344 283.753906 371.019531 280.550781 "/>
<path style=" stroke:none;fill-rule:nonzero;fill:rgb(6.269836%,5.879211%,5.099487%);fill-opacity:1;" d="M 374.964844 273.695312 C 374.964844 275.972656 374.964844 278.269531 374.964844 280.550781 C 374.964844 283.765625 379.953125 283.765625 379.953125 280.550781 C 379.953125 278.269531 379.953125 275.972656 379.953125 273.695312 C 379.953125 270.476562 374.964844 270.476562 374.964844 273.695312 "/>
<path style=" stroke:none;fill-rule:nonzero;fill:rgb(6.269836%,5.879211%,5.099487%);fill-opacity:1;" d="M 401.867188 281.214844 C 402.878906 284.253906 407.699219 282.953125 406.675781 279.890625 C 405.84375 277.394531 405.015625 274.902344 404.179688 272.40625 C 403.167969 269.367188 398.351562 270.671875 399.375 273.730469 C 400.207031 276.226562 401.035156 278.71875 401.867188 281.214844 "/>
<path style=" stroke:none;fill-rule:nonzero;fill:rgb(6.269836%,5.879211%,5.099487%);fill-opacity:1;" d="M 392.5 279.144531 C 392.566406 279.425781 392.875 281.003906 392.847656 280.550781 C 393.105469 283.730469 398.097656 283.753906 397.832031 280.550781 C 397.730469 279.265625 397.371094 278.027344 397.050781 276.78125 C 396.871094 276.085938 396.6875 275.382812 396.515625 274.6875 C 396.441406 274.402344 396.132812 272.824219 396.167969 273.28125 C 395.910156 270.097656 390.914062 270.074219 391.179688 273.28125 C 391.285156 274.5625 391.644531 275.800781 391.964844 277.046875 C 392.144531 277.742188 392.320312 278.445312 392.5 279.144531 "/>
<path style=" stroke:none;fill-rule:nonzero;fill:rgb(6.269836%,5.879211%,5.099487%);fill-opacity:1;" d="M 383.074219 273.484375 C 383.160156 275.859375 383.820312 278.175781 383.90625 280.550781 C 384.023438 283.753906 389.011719 283.765625 388.894531 280.550781 C 388.808594 278.175781 388.148438 275.859375 388.0625 273.484375 C 387.945312 270.277344 382.957031 270.265625 383.074219 273.484375 "/>
</g>
</svg>
